<svg width="300" height="300" viewBox="0 0 300 300" fill="none" xmlns="http://www.w3.org/2000/svg">
<path d="M251.982 47.7737C255.575 50.0014 259.716 51.1814 263.939 51.1814C268.163 51.1814 272.304 50.0014 275.896 47.7737C280.104 45.1645 283.349 41.2502 285.139 36.6243C286.928 31.9984 287.165 26.9133 285.813 22.1403C284.46 17.3674 281.593 13.1669 277.646 10.176C273.699 7.18506 268.886 5.56689 263.939 5.56689C258.992 5.56689 254.18 7.18506 250.233 10.176C246.286 13.1669 243.418 17.3674 242.066 22.1403C240.714 26.9133 240.951 31.9984 242.74 36.6243C244.53 41.2502 247.775 45.1645 251.982 47.7737Z" fill="#EBEBEB"/>
<path d="M257.018 25.7642C257.018 27.138 257.424 28.481 258.185 29.6233C258.946 30.7656 260.027 31.6559 261.293 32.1816C262.558 32.7073 263.951 32.8449 265.294 32.5769C266.637 32.3088 267.871 31.6473 268.84 30.6759C269.809 29.7044 270.468 28.4668 270.735 27.1193C271.003 25.7719 270.865 24.3753 270.341 23.1061C269.817 21.8368 268.929 20.752 267.791 19.9887C266.652 19.2255 265.313 18.8181 263.943 18.8181C263.033 18.8172 262.132 18.9962 261.292 19.3449C260.451 19.6936 259.687 20.2052 259.044 20.8504C258.401 21.4956 257.891 22.2617 257.543 23.1049C257.195 23.9481 257.017 24.8518 257.018 25.7642Z" fill="white"/>
<path d="M251.982 44.9118V47.7737C255.575 50.0014 259.716 51.1814 263.939 51.1814C268.163 51.1814 272.304 50.0014 275.896 47.7737V44.9191C275.936 43.3193 275.656 41.7277 275.072 40.2381C274.489 38.7485 273.615 37.3909 272.501 36.2454C271.386 35.0999 270.055 34.1896 268.585 33.5681C267.114 32.9465 265.535 32.6263 263.939 32.6263C262.344 32.6263 260.764 32.9465 259.294 33.5681C257.824 34.1896 256.492 35.0999 255.378 36.2454C254.264 37.3909 253.39 38.7485 252.806 40.2381C252.223 41.7277 251.943 43.3193 251.982 44.9191V44.9118Z" fill="white"/>
<path d="M60.6607 48.7486C63.5862 41.3715 59.9953 33.0125 52.6402 30.0783C45.2851 27.144 36.9512 30.7457 34.0257 38.1229C31.1003 45.5 34.6912 53.859 42.0462 56.7932C49.4013 59.7275 57.7353 56.1258 60.6607 48.7486Z" fill="#EBEBEB"/>
<path d="M54.651 45.2193C52.4617 49.6109 47.3535 52.202 47.3535 52.202C47.3535 52.202 42.2014 49.6036 40.056 45.2193C38.2535 41.5596 39.3919 37.6218 42.2452 36.7581C46.3245 35.5211 47.3535 42.6502 47.3535 42.6502C47.3535 42.6502 48.397 35.5211 52.4617 36.7581C55.315 37.6218 56.4534 41.6035 54.651 45.2193Z" fill="white"/>
<path d="M275.466 173.456C281.704 163.242 278.506 149.89 268.322 143.634C258.139 137.377 244.827 140.585 238.59 150.799C232.352 161.013 235.55 174.364 245.733 180.621C255.917 186.877 269.228 183.67 275.466 173.456Z" fill="#EBEBEB"/>
<path d="M266.811 167.892C261.776 173.272 253.208 174.78 253.208 174.78C253.208 174.78 246.896 168.778 245.67 161.51C244.656 155.442 248.02 150.238 252.5 150.231C258.937 150.231 257.353 160.975 257.353 160.975C257.353 160.975 261.958 151.138 267.322 154.71C271.058 157.199 271 163.398 266.811 167.892Z" fill="white"/>
<path fill-rule="evenodd" clip-rule="evenodd" d="M21.0971 126.289C20.1922 125.725 19.4114 124.905 18.1781 125.03C17.7184 125.074 17.8205 124.693 17.8132 124.437C17.8132 119.899 17.7962 115.366 17.7622 110.838C17.7622 110.501 17.7622 110.23 18.1343 110.054C21.5861 108.29 23.0674 104.85 25.1764 101.908C26.2562 100.445 27.0316 98.78 27.4566 97.0108C27.8816 95.2416 27.9474 93.4048 27.6503 91.6095C27.497 90.5848 27.9714 90.1456 28.8908 89.9187C29.9928 89.6625 31.0801 89.9626 31.4742 90.7239C32.4734 92.573 33.1474 94.5811 33.4664 96.6599C33.6707 98.3799 33.0577 100.056 32.8534 101.783C32.7001 103.035 32.4155 104.265 32.182 105.524C32.4885 105.743 32.8388 105.633 33.1599 105.633L44.6242 105.597C46.2297 105.597 47.0251 106.058 47.2513 107.127C47.3674 107.773 47.2741 108.441 46.9853 109.031C46.6965 109.62 46.2272 110.102 45.6459 110.406C45.3613 110.545 44.8432 110.406 44.814 110.867C44.7848 111.328 45.3102 111.277 45.5437 111.46C46.9302 112.404 46.6821 114.387 45.084 115.507C44.7045 115.785 43.9529 115.661 43.9383 116.239C43.9237 116.818 44.668 116.686 44.9453 116.971C46.0691 118.076 45.5218 120.141 43.8507 120.982C43.6232 121.054 43.4012 121.142 43.1866 121.246C42.9969 121.37 42.8072 121.517 43.1866 121.78C44.8432 122.958 44.814 124.605 43.1866 125.813L42.6904 126.179C42.0873 126.542 41.3831 126.699 40.6836 126.625L22.7099 126.691C22.4279 126.737 22.1396 126.725 21.8624 126.656C21.5853 126.586 21.3249 126.462 21.0971 126.289Z" fill="#EBEBEB"/>
<path fill-rule="evenodd" clip-rule="evenodd" d="M4.05008 118.347C4.05008 115.471 4.05008 112.587 4.05008 109.703C4.05008 109.117 4.10117 108.832 4.77983 108.832C8.28993 108.869 11.7854 108.832 15.2882 108.832C16.018 108.832 16.0837 109.059 16.0837 109.674C16.0837 115.471 16.1055 121.27 16.1493 127.072C16.1493 127.804 15.9523 128.016 15.2153 128.009C11.8146 128.009 8.41399 128.009 4.99876 128.045C4.15225 128.045 4.03549 127.767 4.04279 127.021C4.05009 124.115 4.05008 121.231 4.05008 118.347Z" fill="#EBEBEB"/>
<path fill-rule="evenodd" clip-rule="evenodd" d="M280.625 220.35C280.1 220.021 279.64 219.538 278.932 219.619C278.662 219.619 278.72 219.421 278.713 219.275C278.713 216.61 278.713 213.946 278.713 211.282C278.697 211.192 278.71 211.099 278.749 211.016C278.788 210.933 278.852 210.865 278.932 210.821C280.961 209.789 281.851 207.768 283.07 206.041C283.705 205.182 284.161 204.203 284.412 203.163C284.663 202.123 284.703 201.043 284.529 199.988C284.442 199.388 284.719 199.124 285.259 199C285.528 198.903 285.822 198.897 286.095 198.981C286.369 199.066 286.608 199.237 286.777 199.468C287.363 200.556 287.758 201.737 287.944 202.96C287.941 203.968 287.821 204.973 287.587 205.953C287.492 206.685 287.324 207.417 287.193 208.149C287.368 208.273 287.58 208.208 287.769 208.208H294.498C295.446 208.208 295.906 208.471 296.037 209.101C296.113 209.488 296.058 209.89 295.883 210.243C295.707 210.596 295.42 210.882 295.067 211.055C294.899 211.143 294.6 211.055 294.578 211.326C294.556 211.596 294.87 211.567 295.03 211.677C295.84 212.233 295.694 213.382 294.76 214.056C294.534 214.217 294.096 214.144 294.082 214.473C294.067 214.802 294.49 214.736 294.673 214.919C294.819 215.106 294.919 215.325 294.966 215.558C295.013 215.79 295.004 216.031 294.942 216.26C294.88 216.489 294.765 216.7 294.606 216.876C294.448 217.053 294.251 217.19 294.031 217.276C293.896 217.32 293.765 217.371 293.636 217.43C293.527 217.511 293.418 217.591 293.636 217.745C294.607 218.44 294.592 219.406 293.636 220.116L293.345 220.328C292.993 220.545 292.58 220.638 292.17 220.592C288.647 220.592 285.128 220.604 281.61 220.629C281.436 220.655 281.258 220.643 281.088 220.595C280.918 220.548 280.76 220.464 280.625 220.35Z" fill="#EBEBEB"/>
<path fill-rule="evenodd" clip-rule="evenodd" d="M270.569 215.688C270.569 213.997 270.569 212.299 270.569 210.608C270.569 210.264 270.569 210.096 271.022 210.103C273.08 210.103 275.137 210.103 277.195 210.103C277.597 210.103 277.662 210.235 277.662 210.594C277.662 214.009 277.662 217.425 277.662 220.841C277.662 221.28 277.546 221.397 277.115 221.397C275.116 221.397 273.123 221.397 271.124 221.397C270.628 221.397 270.562 221.229 270.562 220.797C270.598 219.077 270.577 217.379 270.569 215.688Z" fill="#EBEBEB"/>
<path d="M37.8959 206.831H35.2615C34.8677 206.839 34.4764 206.767 34.111 206.62C33.7457 206.472 33.414 206.252 33.1358 205.972C32.8576 205.692 32.6388 205.359 32.4924 204.992C32.346 204.625 32.2752 204.233 32.2841 203.838C32.288 203.047 32.6029 202.29 33.1604 201.73C33.718 201.171 34.473 200.855 35.2615 200.852H38.9103L40.6252 190.861H37.3194C36.5298 190.861 35.7724 190.546 35.2141 189.986C34.6557 189.426 34.342 188.666 34.342 187.874C34.342 187.082 34.6557 186.323 35.2141 185.763C35.7724 185.203 36.5298 184.888 37.3194 184.888H41.6979L42.8363 178.052C42.9479 177.347 43.312 176.708 43.8602 176.254C44.4084 175.8 45.103 175.562 45.8137 175.585C46.2481 175.592 46.6761 175.692 47.069 175.877C47.462 176.063 47.811 176.331 48.0927 176.663C48.3744 176.994 48.5824 177.383 48.7028 177.801C48.8233 178.22 48.8533 178.66 48.7911 179.091L47.7694 184.888H56.738L57.8837 178.052C57.9964 177.337 58.3689 176.689 58.9295 176.234C59.4901 175.778 60.199 175.547 60.9195 175.585C61.3509 175.594 61.7753 175.696 62.1641 175.884C62.553 176.071 62.8973 176.34 63.1739 176.672C63.4504 177.004 63.6528 177.392 63.7675 177.809C63.8821 178.227 63.9063 178.664 63.8385 179.091L62.8606 184.888H65.5096C66.2962 184.894 67.0486 185.211 67.6034 185.77C68.1582 186.329 68.4705 187.085 68.4724 187.874C68.4612 188.66 68.1459 189.411 67.5931 189.968C67.0403 190.525 66.2932 190.845 65.5096 190.861H61.8609L60.146 200.852H63.4007C63.7931 200.848 64.1823 200.922 64.5457 201.071C64.9091 201.219 65.2394 201.439 65.5172 201.717C65.795 201.995 66.0149 202.326 66.164 202.69C66.313 203.054 66.3883 203.444 66.3853 203.838C66.3815 204.631 66.0658 205.39 65.5069 205.95C64.948 206.511 64.1911 206.828 63.4007 206.831H59.1097L57.9056 213.887C57.794 214.592 57.4299 215.231 56.8817 215.685C56.3335 216.139 55.6389 216.377 54.9283 216.354C54.4927 216.355 54.062 216.263 53.6655 216.082C53.2689 215.901 52.9159 215.637 52.6306 215.307C52.3452 214.977 52.1341 214.589 52.0118 214.17C51.8895 213.75 51.8587 213.31 51.9217 212.877L53.0163 206.846H44.0185L42.8217 213.902C42.6918 214.603 42.3172 215.235 41.7649 215.685C41.2126 216.134 40.5188 216.371 39.8079 216.354C39.3738 216.362 38.9435 216.272 38.5483 216.092C38.153 215.912 37.8029 215.646 37.5232 215.313C37.2436 214.979 37.0415 214.588 36.9318 214.167C36.8221 213.745 36.8074 213.305 36.8889 212.877L37.8959 206.831ZM53.9942 200.852L55.7164 190.861H46.777L45.0548 200.852H53.9942Z" fill="#EBEBEB"/>
<path d="M225.748 137.092H223.646C223.334 137.094 223.024 137.034 222.735 136.914C222.446 136.795 222.183 136.619 221.962 136.397C221.742 136.175 221.567 135.911 221.449 135.621C221.331 135.331 221.272 135.02 221.275 134.706C221.278 134.076 221.529 133.474 221.973 133.028C222.417 132.583 223.018 132.331 223.646 132.327H226.565L227.937 124.364H225.281C224.674 124.33 224.102 124.064 223.684 123.621C223.266 123.178 223.034 122.591 223.034 121.981C223.034 121.371 223.266 120.785 223.684 120.341C224.102 119.898 224.674 119.633 225.281 119.599H228.762L229.659 114.153C229.75 113.591 230.041 113.081 230.479 112.719C230.917 112.356 231.471 112.166 232.038 112.184C232.385 112.19 232.726 112.27 233.039 112.418C233.352 112.566 233.63 112.78 233.854 113.045C234.079 113.309 234.244 113.619 234.34 113.952C234.436 114.286 234.46 114.637 234.41 114.98L233.6 119.599H240.759L241.671 114.153C241.763 113.585 242.06 113.071 242.506 112.708C242.951 112.345 243.513 112.159 244.087 112.184C244.43 112.193 244.769 112.275 245.079 112.425C245.388 112.574 245.663 112.789 245.884 113.053C246.105 113.318 246.267 113.626 246.36 113.959C246.453 114.291 246.474 114.639 246.422 114.98L245.641 119.599H247.786C248.415 119.603 249.016 119.856 249.459 120.303C249.902 120.75 250.151 121.355 250.151 121.985C250.141 122.612 249.889 123.21 249.448 123.654C249.007 124.098 248.411 124.352 247.786 124.364H244.867L243.459 132.364H246.057C246.369 132.361 246.68 132.42 246.969 132.539C247.258 132.657 247.522 132.832 247.743 133.054C247.964 133.275 248.14 133.538 248.259 133.828C248.378 134.118 248.438 134.429 248.436 134.743C248.434 135.375 248.183 135.981 247.737 136.428C247.291 136.875 246.687 137.127 246.057 137.129H242.634L241.678 142.75C241.584 143.31 241.291 143.817 240.854 144.179C240.418 144.541 239.866 144.732 239.299 144.719C238.953 144.718 238.611 144.642 238.297 144.496C237.982 144.35 237.703 144.138 237.478 143.874C237.253 143.61 237.087 143.3 236.992 142.966C236.897 142.632 236.875 142.281 236.928 141.938L237.796 137.129H230.63L229.667 142.75C229.569 143.314 229.271 143.823 228.829 144.185C228.386 144.547 227.829 144.736 227.258 144.719C226.912 144.724 226.568 144.652 226.253 144.507C225.938 144.363 225.659 144.149 225.436 143.883C225.213 143.617 225.052 143.304 224.965 142.967C224.877 142.631 224.866 142.279 224.931 141.938L225.748 137.092ZM238.577 132.364L239.949 124.4H232.826L231.455 132.364H238.577Z" fill="#EBEBEB"/>
<path d="M150 300C232.811 300 299.942 291.326 299.942 280.626C299.942 269.925 232.811 261.251 150 261.251C67.1896 261.251 0.0584412 269.925 0.0584412 280.626C0.0584412 291.326 67.1896 300 150 300Z" fill="#EBEBEB"/>
<path d="M43.3545 174.89C42.5569 177.803 42.0316 180.786 41.7856 183.797C41.8658 183.944 41.8439 184.529 41.7856 184.346C41.7856 184.837 41.0558 184.749 41.0558 184.266C41.0558 183.951 41.0558 183.636 41.0558 183.329C39.319 181.17 36.8014 179.801 34.7654 177.92C33.1225 176.448 31.9284 174.54 31.321 172.416C29.6279 166.56 31.2115 160.39 29.1828 154.564C27.4314 149.542 24.2862 145.173 21.6299 140.657C18.8204 135.841 16.7479 130.783 16.5216 125.147C16.3538 120.836 16.8719 115.083 20.1704 111.848C23.644 108.415 27.9495 110.991 30.6058 114.043C38.3193 122.922 41.8877 134.135 43.3326 145.612C44.1281 151.958 44.9527 158.348 44.7921 164.752C44.6494 168.171 44.1678 171.567 43.3545 174.89Z" fill="#EAFFD0"/>
<path d="M41.8148 186.125C42.237 180.135 42.1662 174.12 41.6032 168.141C41.6099 168.12 41.6099 168.097 41.6032 168.075C41.7054 163.215 42.0848 158.37 41.8951 153.502C41.6746 148.24 40.976 143.01 39.808 137.875C39.808 137.817 39.6986 137.831 39.7132 137.875C40.6571 142.92 41.2206 148.029 41.3989 153.158C41.501 155.91 41.4791 158.658 41.3332 161.4C41.2894 162.293 41.2018 163.193 41.1435 164.093C39.1272 150.444 34.2095 137.389 26.7236 125.813C26.6214 125.659 26.3441 125.813 26.439 125.989C31.7885 134.786 35.7492 144.361 38.1807 154.373C34.459 147.486 28.8618 141.821 24.7022 135.196C24.7022 135.16 24.6146 135.196 24.6365 135.196C28.3655 142.574 34.5392 148.371 38.5018 155.647C39.1877 158.614 39.7399 161.6 40.1583 164.606C40.7163 168.731 41.016 172.886 41.0559 177.049C38.7937 172.818 36.4512 168.763 34.6049 164.284C34.5538 164.167 34.386 164.284 34.4225 164.364C35.9987 169.019 38.1077 174.033 41.0705 178C41.0705 180.928 40.9878 183.873 40.8224 186.835C40.3626 194.681 39.0272 202.432 38.4069 210.257C38.4085 210.3 38.4255 210.342 38.4549 210.374C38.4842 210.406 38.524 210.426 38.567 210.432C38.6101 210.437 38.6536 210.427 38.6898 210.403C38.726 210.379 38.7524 210.343 38.7645 210.301C40.3264 202.321 41.3455 194.244 41.8148 186.125Z" fill="#263238"/>
<path d="M33.5029 125.571C33.5029 125.513 33.3934 125.571 33.4153 125.608C34.8748 129.575 35.6557 133.594 36.6846 137.663C36.6958 137.698 36.7194 137.728 36.751 137.748C36.7825 137.767 36.82 137.774 36.8564 137.768C36.8929 137.762 36.9258 137.743 36.9492 137.714C36.9726 137.685 36.9849 137.649 36.9838 137.612C36.5606 133.491 35.0938 129.37 33.5029 125.571Z" fill="#263238"/>
<path d="M69.8154 142.194C68.8602 144.52 67.761 146.783 66.5242 148.972C63.9482 153.663 61.2627 157.96 60.7811 163.42C60.5621 165.857 60.4819 168.309 59.7448 170.659C59.0663 172.678 58.0977 174.586 56.8696 176.324C54.0747 180.401 50.5865 183.914 48.0032 188.145C45.3129 192.556 43.326 197.362 42.1141 202.389C42.0484 202.667 41.6178 202.593 41.6835 202.315C41.6835 202.315 41.6835 202.279 41.6835 202.257C41.6835 202.235 41.6835 202.257 41.6835 202.198C41.2749 190.487 42.2089 178.688 45.7701 167.468C47.3405 162.533 49.2296 157.707 51.4257 153.019C53.3376 148.957 55.7093 145.041 59.0589 142.004C61.2481 140.042 65.9477 136.324 69.0418 138.293C70.5086 139.237 70.3992 140.73 69.8154 142.194Z" fill="#EAFFD0"/>
<path d="M58.0518 168.741C55.9944 172.139 53.7278 175.405 51.2651 178.52C50.134 179.984 48.9883 181.448 47.8644 182.948C47.3317 183.68 46.7333 184.346 46.2444 185.1C46.5509 183.87 46.8501 182.633 47.1639 181.404C48.6672 175.49 50.0829 169.524 52.3597 163.837C54.6616 158.33 57.3717 153.004 60.4672 147.903C60.5475 147.764 60.3286 147.669 60.2483 147.8C57.7817 151.87 55.2787 155.932 53.2062 160.243C52.0593 162.636 51.0601 165.098 50.2142 167.614C51.1641 162.275 52.4957 157.011 54.1987 151.863C54.1987 151.853 54.1948 151.844 54.188 151.837C54.1811 151.83 54.1719 151.826 54.1622 151.826C54.1525 151.826 54.1432 151.83 54.1364 151.837C54.1295 151.844 54.1257 151.853 54.1257 151.863C51.9138 157.054 50.5298 162.562 50.0245 168.185C49.538 169.703 49.0685 171.237 48.6161 172.789C46.7771 179.376 45.1644 185.964 43.6684 192.602C43.641 188.237 44.0172 183.878 44.7922 179.581C44.7922 179.479 44.6681 179.457 44.639 179.581C43.5011 184.061 43.1212 188.7 43.5151 193.305C42.9459 195.838 42.3938 198.368 41.8586 200.895C40.7129 206.29 39.3045 211.787 38.6331 217.269C38.6337 217.294 38.6431 217.319 38.6597 217.338C38.6763 217.357 38.699 217.37 38.7239 217.374C38.7489 217.379 38.7746 217.374 38.7966 217.362C38.8187 217.349 38.8357 217.329 38.8447 217.305C39.6475 214.378 40.1291 211.289 40.7859 208.295C41.4427 205.302 42.1213 202.301 42.8146 199.307C43.8289 194.952 44.8944 190.604 45.9744 186.264C46.7041 184.676 48.098 183.263 49.1415 181.923C50.2945 180.46 51.4402 178.996 52.5567 177.532C54.6597 174.779 56.5388 171.862 58.1758 168.807C58.2196 168.719 58.1174 168.675 58.0518 168.741Z" fill="#263238"/>
<path d="M58.5772 163.735C56.0087 167.023 53.7835 170.567 51.9364 174.311C51.9364 174.363 51.9875 174.414 52.0167 174.363C54.257 170.849 56.4536 167.314 58.6793 163.801C58.7231 163.735 58.6209 163.676 58.5772 163.735Z" fill="#263238"/>
<path d="M8.88117 153.297C10.3918 155.91 12.1213 159.05 11.4718 162.183C11.0558 164.174 9.61092 165.784 9.34821 167.812C8.76441 172.284 13.2086 175.241 16.4195 177.327C24.4467 182.597 35.4295 187.303 36.889 198.077C36.9473 198.458 37.6187 198.363 37.553 197.99C37.5564 197.965 37.5564 197.941 37.553 197.916C37.553 197.916 37.5968 197.916 37.5968 197.85C38.6423 192.413 38.5852 186.819 37.429 181.404C36.2322 175.856 33.8167 170.864 30.9634 165.989C26.1397 157.733 21.0315 149.279 13.734 142.955C11.7199 141.206 7.58222 138.058 5.97677 142.011C4.4151 145.868 7.02761 150.113 8.88117 153.297Z" fill="#EAFFD0"/>
<path d="M16.2152 170.798C21.5351 176.573 29.9856 179.808 34.5611 186.271C32.0052 176.432 27.1753 167.335 20.4624 159.716C20.2872 159.512 20.5645 159.233 20.7543 159.416C25.6477 164.186 29.5623 169.87 32.277 176.149C31.0095 171.767 29.3486 167.509 27.3147 163.427C27.2417 163.274 27.4607 163.135 27.5482 163.288C30.0695 167.744 31.8747 172.571 32.8973 177.59C38.925 192.229 39.465 209.401 38.2172 224.823C38.2172 225.042 37.8669 225.049 37.8742 224.823C38.2172 212.665 38.0201 200.295 35.1157 188.423C35.0574 188.174 34.9917 187.933 34.926 187.691C29.9491 180.73 21.5351 177.503 16.1277 170.901C16.0766 170.827 16.1568 170.732 16.2152 170.798Z" fill="#263238"/>
<path d="M14.9965 165.843C17.7841 168.412 20.528 171.032 23.3229 173.601C23.3229 173.601 23.3229 173.675 23.2864 173.653C20.1239 171.522 17.2746 168.957 14.8213 166.033C14.7962 166.01 14.7813 165.977 14.7799 165.943C14.7785 165.909 14.7908 165.875 14.814 165.85C14.8372 165.825 14.8695 165.81 14.9037 165.809C14.9379 165.807 14.9713 165.82 14.9965 165.843Z" fill="#263238"/>
<path d="M14.544 154.717C17.0117 158.778 19.8036 162.63 22.8923 166.238C22.9361 166.282 22.8923 166.348 22.8194 166.304C19.3567 163 16.5055 159.107 14.398 154.805C14.3922 154.786 14.3928 154.766 14.3998 154.748C14.4068 154.729 14.4198 154.714 14.4366 154.704C14.4534 154.694 14.4732 154.689 14.4926 154.692C14.5121 154.694 14.5302 154.703 14.544 154.717Z" fill="#263238"/>
<path d="M27.103 235.706H51.5424L48.2512 202.725H30.8686L27.103 235.706Z" fill="#455A64"/>
<path d="M30.2556 208.09H48.7912L48.2512 202.725H30.8686L30.2556 208.09Z" fill="#263238"/>
<path d="M27.8766 204.335H50.7834V199.073H27.8766V204.335Z" fill="#455A64"/>
<path d="M0 235.706L37.5018 235.531L75.0037 235.465L150 235.34L224.996 235.465L262.498 235.523L300 235.706L262.498 235.889L224.996 235.948L150 236.072L75.0037 235.948L37.5018 235.882L0 235.706Z" fill="#263238"/>
<path d="M213.692 0H86.2928C84.5841 0.0162627 82.8953 0.369952 81.3229 1.04087C79.7505 1.71179 78.3252 2.68679 77.1285 3.91021C75.9318 5.13363 74.9871 6.5815 74.3483 8.17115C73.7094 9.76079 73.3891 11.4611 73.4054 13.1749V276.234C73.3743 279.695 74.7142 283.026 77.1307 285.497C79.5471 287.967 82.8425 289.374 86.2928 289.409H213.692C217.145 289.376 220.443 287.97 222.862 285.5C225.281 283.029 226.624 279.697 226.594 276.234V13.1676C226.624 9.70567 225.281 6.37383 222.861 3.90461C220.442 1.43539 217.144 0.0309262 213.692 0ZM218.538 268.102C218.538 275.026 213.371 280.626 206.993 280.626H93.0138C86.6212 280.626 81.4546 275.026 81.4546 268.102V23.1366C81.4546 9.03213 86.6212 8.34411 93.0138 8.34411H115.84C117.169 8.34411 118.256 9.85923 118.256 11.733V12.5454C118.256 16.9371 120.649 16.9371 123.598 16.9371H176.395C179.365 16.9371 181.737 16.9371 181.737 12.5454V11.733C181.737 9.85923 182.809 8.34411 184.16 8.34411H206.993C213.371 8.34411 218.538 10.2252 218.538 23.1366V268.102Z" fill="#263238"/>
<path d="M157.195 11.4622H142.797C142.68 11.4632 142.564 11.4408 142.456 11.3962C142.347 11.3517 142.249 11.2859 142.166 11.2028C142.083 11.1197 142.017 11.0209 141.973 10.9121C141.929 10.8033 141.906 10.6868 141.907 10.5692C141.907 10.3324 142.001 10.1053 142.168 9.93781C142.335 9.77035 142.561 9.67627 142.797 9.67627H157.195C157.431 9.67627 157.658 9.77035 157.825 9.93781C157.992 10.1053 158.086 10.3324 158.086 10.5692C158.087 10.6868 158.064 10.8033 158.02 10.9121C157.975 11.0209 157.91 11.1197 157.827 11.2028C157.744 11.2859 157.646 11.3517 157.537 11.3962C157.429 11.4408 157.313 11.4632 157.195 11.4622Z" fill="white"/>
<path d="M218.545 23.1366V268.102C218.545 275.026 213.371 280.626 206.993 280.626H93.0139C86.6212 280.626 81.4546 275.026 81.4546 268.102V23.1366C81.4546 9.03214 86.6212 8.34412 93.0139 8.34412H115.84C117.169 8.34412 118.256 9.85923 118.256 11.733V12.5455C118.256 16.9371 120.649 16.9371 123.598 16.9371H176.395C179.365 16.9371 181.744 16.9371 181.744 12.5455V11.733C181.744 9.85923 182.81 8.34412 184.16 8.34412H206.993C213.371 8.34412 218.545 10.2252 218.545 23.1366Z" fill="white"/>
<path d="M218.538 23.1366V60.8901H81.4473V23.1366C81.4473 9.03214 86.6212 8.34412 93.0138 8.34412H115.848C117.176 8.34412 118.256 9.85923 118.256 11.733V12.5455C118.256 16.9371 120.657 16.9371 123.598 16.9371H176.395C179.365 16.9371 181.744 16.9371 181.744 12.5455V11.733C181.744 9.85923 182.817 8.34412 184.167 8.34412H206.993C213.371 8.34412 218.538 10.2252 218.538 23.1366Z" fill="#EAFFD0"/>
<path d="M111.907 13.8483L111.681 14.0679C111.643 14.113 111.602 14.1546 111.557 14.1924C110.993 13.6272 110.23 13.3088 109.433 13.3067C109.036 13.3045 108.643 13.3824 108.277 13.5358C107.911 13.6892 107.58 13.915 107.302 14.1997C107.267 14.1547 107.228 14.1131 107.186 14.0752L106.967 13.8557C107.054 13.7678 107.149 13.6873 107.244 13.6068C107.441 13.4435 107.657 13.3035 107.886 13.1896C108.156 13.0543 108.443 12.9582 108.74 12.9041C108.886 12.9041 109.025 12.8675 109.17 12.8456H109.543H109.835C110.104 12.876 110.369 12.9399 110.623 13.0359C110.804 13.1039 110.98 13.1872 111.148 13.2847C111.33 13.3865 111.501 13.5067 111.659 13.6434L111.892 13.8483H111.907Z" fill="white"/>
<path d="M108.003 14.8876L107.674 14.5217C107.907 14.2875 108.183 14.1017 108.488 13.975C108.792 13.8482 109.118 13.783 109.448 13.783C109.777 13.783 110.104 13.8482 110.408 13.975C110.712 14.1017 110.988 14.2875 111.221 14.5217L110.871 14.873C110.68 14.6802 110.453 14.5283 110.202 14.4264C109.951 14.3245 109.682 14.2747 109.411 14.2801C108.881 14.2901 108.375 14.5082 108.003 14.8876Z" fill="white"/>
<path d="M110.513 15.2536L110.163 15.5976C109.968 15.4057 109.706 15.2979 109.433 15.2975C109.297 15.2966 109.162 15.3235 109.037 15.3763C108.911 15.4291 108.798 15.5069 108.703 15.6049L108.353 15.2536C108.495 15.1111 108.663 14.998 108.848 14.9208C109.034 14.8437 109.232 14.804 109.433 14.804C109.634 14.804 109.832 14.8437 110.018 14.9208C110.203 14.998 110.371 15.1111 110.513 15.2536Z" fill="white"/>
<path d="M109.747 15.9051C109.747 15.9885 109.714 16.0686 109.655 16.1276C109.596 16.1866 109.516 16.2198 109.433 16.2198C109.35 16.2198 109.27 16.1866 109.211 16.1276C109.152 16.0686 109.119 15.9885 109.119 15.9051C109.119 15.8216 109.152 15.7415 109.211 15.6825C109.27 15.6235 109.35 15.5903 109.433 15.5903C109.516 15.5903 109.596 15.6235 109.655 15.6825C109.714 15.7415 109.747 15.8216 109.747 15.9051Z" fill="white"/>
<path d="M91.2989 15.4219C91.7987 15.4219 92.2038 15.0155 92.2038 14.5143C92.2038 14.013 91.7987 13.6067 91.2989 13.6067C90.7992 13.6067 90.394 14.013 90.394 14.5143C90.394 15.0155 90.7992 15.4219 91.2989 15.4219Z" fill="white"/>
<path d="M93.2548 14.5217C93.2548 14.3404 93.3085 14.1633 93.409 14.0127C93.5096 13.862 93.6525 13.7448 93.8196 13.6757C93.9867 13.6067 94.1705 13.589 94.3476 13.6249C94.5248 13.6608 94.6873 13.7487 94.8146 13.8774C94.9418 14.0061 95.0281 14.1698 95.0625 14.3477C95.0969 14.5257 95.0778 14.7099 95.0076 14.8769C94.9374 15.044 94.8194 15.1864 94.6684 15.286C94.5175 15.3857 94.3404 15.4381 94.1597 15.4366C93.919 15.4347 93.6889 15.3375 93.5194 15.1661C93.3499 14.9947 93.2548 14.7631 93.2548 14.5217Z" fill="white"/>
<path d="M97.0275 15.4219C97.5273 15.4219 97.9324 15.0155 97.9324 14.5143C97.9324 14.013 97.5273 13.6067 97.0275 13.6067C96.5278 13.6067 96.1227 14.013 96.1227 14.5143C96.1227 15.0155 96.5278 15.4219 97.0275 15.4219Z" fill="white"/>
<path d="M98.9759 14.5216C98.9759 14.3407 99.0294 14.1638 99.1296 14.0133C99.2299 13.8628 99.3723 13.7456 99.539 13.6763C99.7057 13.6071 99.8891 13.589 100.066 13.6243C100.243 13.6596 100.406 13.7467 100.533 13.8747C100.661 14.0026 100.748 14.1656 100.783 14.3431C100.818 14.5206 100.8 14.7046 100.731 14.8717C100.662 15.0389 100.545 15.1818 100.395 15.2823C100.245 15.3829 100.068 15.4365 99.8881 15.4365C99.6462 15.4365 99.4141 15.3401 99.2431 15.1686C99.072 14.997 98.9759 14.7643 98.9759 14.5216Z" fill="white"/>
<path d="M101.837 14.5216C101.837 14.3407 101.89 14.1638 101.99 14.0133C102.091 13.8628 102.233 13.7456 102.4 13.6763C102.566 13.6071 102.75 13.589 102.927 13.6243C103.104 13.6596 103.266 13.7467 103.394 13.8747C103.521 14.0026 103.608 14.1656 103.643 14.3431C103.679 14.5206 103.661 14.7046 103.592 14.8717C103.523 15.0389 103.406 15.1818 103.256 15.2823C103.106 15.3829 102.929 15.4365 102.749 15.4365C102.507 15.4365 102.275 15.3401 102.104 15.1686C101.933 14.997 101.837 14.7643 101.837 14.5216Z" fill="white"/>
<path d="M208.249 16.4979H200.864V13.0577H208.249V16.4979ZM201.228 16.1319H207.884V13.4457H201.228V16.1319Z" fill="white"/>
<path d="M206.242 13.6506H201.477V15.9197H206.242V13.6506Z" fill="white"/>
<path d="M208.92 13.8702H208.263V15.7074H208.92V13.8702Z" fill="white"/>
<path d="M168.893 162.234H119.759V169.29H168.893V162.234Z" fill="#EAFFD0"/>
<path d="M180.058 162.234H173.024V169.29H180.058V162.234Z" fill="#DBDBDB"/>
<path d="M175.125 165.762C175.125 165.849 175.1 165.934 175.052 166.006C175.003 166.079 174.935 166.135 174.855 166.168C174.775 166.201 174.687 166.21 174.602 166.193C174.517 166.176 174.439 166.134 174.378 166.073C174.317 166.012 174.275 165.933 174.258 165.848C174.241 165.763 174.25 165.675 174.283 165.594C174.316 165.514 174.372 165.446 174.444 165.397C174.516 165.349 174.601 165.323 174.688 165.323C174.745 165.323 174.802 165.335 174.855 165.357C174.908 165.379 174.956 165.411 174.997 165.452C175.038 165.493 175.07 165.541 175.092 165.594C175.114 165.648 175.125 165.705 175.125 165.762Z" fill="#263238"/>
<path d="M177.001 165.762C177.001 165.849 176.975 165.934 176.927 166.006C176.879 166.079 176.81 166.135 176.73 166.168C176.65 166.201 176.562 166.21 176.477 166.193C176.393 166.176 176.314 166.134 176.253 166.073C176.192 166.012 176.15 165.933 176.133 165.848C176.117 165.763 176.125 165.675 176.158 165.594C176.191 165.514 176.248 165.446 176.32 165.397C176.392 165.349 176.476 165.323 176.563 165.323C176.62 165.323 176.677 165.335 176.73 165.357C176.784 165.379 176.832 165.411 176.872 165.452C176.913 165.493 176.945 165.541 176.967 165.594C176.989 165.648 177.001 165.705 177.001 165.762Z" fill="#263238"/>
<path d="M178.825 165.762C178.825 165.849 178.799 165.934 178.751 166.006C178.703 166.079 178.635 166.135 178.555 166.168C178.475 166.201 178.387 166.21 178.302 166.193C178.217 166.176 178.139 166.134 178.078 166.073C178.016 166.012 177.975 165.933 177.958 165.848C177.941 165.763 177.95 165.675 177.983 165.594C178.016 165.514 178.072 165.446 178.144 165.397C178.216 165.349 178.301 165.323 178.387 165.323C178.445 165.323 178.502 165.335 178.555 165.357C178.608 165.379 178.656 165.411 178.697 165.452C178.737 165.493 178.77 165.541 178.792 165.594C178.814 165.648 178.825 165.705 178.825 165.762Z" fill="#263238"/>
<path d="M91.5762 35.8065L88.3726 32.7909L91.5762 29.7826L92.0797 30.3096L89.4308 32.7909L92.0797 35.2795L91.5762 35.8065Z" fill="white"/>
<path d="M210.81 31.5467C211.157 31.5467 211.438 31.2648 211.438 30.9172C211.438 30.5695 211.157 30.2877 210.81 30.2877C210.463 30.2877 210.183 30.5695 210.183 30.9172C210.183 31.2648 210.463 31.5467 210.81 31.5467Z" fill="white"/>
<path d="M210.81 33.7936C211.157 33.7936 211.438 33.5118 211.438 33.1641C211.438 32.8165 211.157 32.5347 210.81 32.5347C210.463 32.5347 210.183 32.8165 210.183 33.1641C210.183 33.5118 210.463 33.7936 210.81 33.7936Z" fill="white"/>
<path d="M211.445 35.4186C211.454 35.5075 211.445 35.5973 211.418 35.6824C211.39 35.7674 211.346 35.8458 211.286 35.9123C211.226 35.9788 211.154 36.0319 211.072 36.0683C210.991 36.1047 210.903 36.1235 210.814 36.1235C210.725 36.1235 210.636 36.1047 210.555 36.0683C210.474 36.0319 210.401 35.9788 210.341 35.9123C210.282 35.8458 210.237 35.7674 210.209 35.6824C210.182 35.5973 210.173 35.5075 210.182 35.4186C210.199 35.2624 210.273 35.118 210.389 35.013C210.506 34.908 210.657 34.85 210.814 34.85C210.97 34.85 211.121 34.908 211.238 35.013C211.354 35.118 211.428 35.2624 211.445 35.4186Z" fill="white"/>
<path d="M99.9539 187.259C99.1674 187.749 98.2464 187.976 97.3233 187.908C96.4001 187.839 95.5222 187.479 94.8158 186.88C94.1093 186.28 93.6106 185.471 93.3913 184.569C93.1719 183.667 93.2432 182.718 93.5949 181.859C93.9466 181 94.5607 180.276 95.3488 179.789C96.137 179.302 97.0587 179.078 97.9817 179.149C98.9046 179.221 99.7812 179.584 100.486 180.186C101.19 180.788 101.686 181.599 101.902 182.502C102.117 183.399 102.045 184.342 101.695 185.197C101.345 186.051 100.736 186.772 99.9539 187.259Z" fill="#DBDBDB"/>
<path d="M98.9906 183.051C98.9906 183.314 98.9127 183.572 98.7667 183.791C98.6208 184.01 98.4134 184.181 98.1707 184.281C97.928 184.382 97.661 184.409 97.4033 184.357C97.1457 184.306 96.909 184.179 96.7233 183.993C96.5376 183.806 96.4111 183.569 96.3598 183.311C96.3086 183.052 96.3349 182.784 96.4354 182.541C96.5359 182.298 96.7061 182.09 96.9246 181.943C97.143 181.797 97.3998 181.719 97.6624 181.719C98.0147 181.719 98.3525 181.859 98.6016 182.109C98.8507 182.359 98.9906 182.697 98.9906 183.051Z" fill="white"/>
<path d="M99.9538 186.725V187.259C99.2636 187.685 98.4691 187.911 97.6587 187.911C96.8483 187.911 96.0538 187.685 95.3637 187.259V186.71C95.3968 186.122 95.653 185.569 96.0797 185.165C96.5065 184.76 97.0715 184.535 97.6587 184.535C98.246 184.535 98.811 184.76 99.2377 185.165C99.6645 185.569 99.9207 186.122 99.9538 186.71V186.725Z" fill="white"/>
<path d="M204.731 180.672C204.808 180.674 204.881 180.705 204.936 180.76C204.99 180.814 205.021 180.888 205.023 180.965C205.023 181.042 204.992 181.117 204.938 181.172C204.883 181.227 204.809 181.257 204.731 181.257C204.693 181.257 204.656 181.25 204.621 181.235C204.586 181.22 204.554 181.199 204.527 181.171C204.501 181.144 204.48 181.112 204.466 181.076C204.452 181.041 204.446 181.003 204.447 180.965C204.447 180.888 204.476 180.815 204.53 180.76C204.583 180.705 204.655 180.674 204.731 180.672Z" fill="black"/>
<path d="M205.6 180.672C205.677 180.674 205.75 180.705 205.804 180.76C205.858 180.814 205.89 180.888 205.892 180.965C205.892 181.042 205.861 181.117 205.806 181.172C205.751 181.227 205.677 181.257 205.6 181.257C205.562 181.257 205.524 181.25 205.489 181.235C205.454 181.22 205.422 181.199 205.396 181.171C205.369 181.144 205.348 181.112 205.335 181.076C205.321 181.041 205.314 181.003 205.315 180.965C205.315 180.888 205.345 180.815 205.398 180.76C205.451 180.705 205.524 180.674 205.6 180.672Z" fill="black"/>
<path d="M206.49 180.672C206.567 180.674 206.64 180.705 206.694 180.76C206.749 180.814 206.78 180.888 206.782 180.965C206.789 181.006 206.786 181.049 206.775 181.09C206.763 181.131 206.743 181.169 206.716 181.201C206.688 181.233 206.654 181.259 206.616 181.277C206.578 181.294 206.536 181.304 206.494 181.304C206.451 181.304 206.41 181.294 206.371 181.277C206.333 181.259 206.299 181.233 206.272 181.201C206.244 181.169 206.224 181.131 206.213 181.09C206.201 181.049 206.199 181.006 206.205 180.965C206.207 180.889 206.237 180.816 206.29 180.762C206.343 180.708 206.414 180.676 206.49 180.672Z" fill="black"/>
<path d="M93.8167 192.778L107.988 192.646L119.708 192.566L143.148 192.507L154.313 192.566L166.025 192.646L177.745 192.778L166.025 192.91L154.313 192.983L143.148 193.049L119.708 192.983L107.988 192.91L93.8167 192.778Z" fill="#263238"/>
<path d="M93.8094 195.267C100.421 195.157 109.864 195.106 116.512 195.062L136.354 194.996L156.203 195.062L161.764 195.267L156.203 195.479L136.354 195.538L116.512 195.479C109.9 195.435 100.428 195.384 93.8094 195.267Z" fill="#263238"/>
<path d="M93.8094 198.143C101.019 198.034 111.323 197.982 118.548 197.938L140.178 197.873L161.8 197.938L167.864 198.143L161.8 198.356L140.178 198.422L118.548 198.356C111.323 198.312 101.027 198.239 93.8094 198.143Z" fill="#263238"/>
<path d="M131.953 180.203H105.675V183.051H131.953V180.203Z" fill="#455A64"/>
<path d="M126.641 184.471H105.675V186.191H126.641V184.471Z" fill="#DBDBDB"/>
<path d="M93.2911 204.094L107.456 203.999L121.613 203.97L149.927 203.911L178.241 203.97L192.406 203.999L206.563 204.094L192.406 204.182L178.241 204.211L149.927 204.277L121.613 204.211L107.456 204.182L93.2911 204.094Z" fill="#DBDBDB"/>
<path d="M99.9538 218.184C99.1674 218.673 98.2467 218.9 97.3239 218.831C96.4011 218.763 95.5237 218.403 94.8174 217.803C94.1112 217.204 93.6125 216.395 93.393 215.493C93.1735 214.592 93.2443 213.644 93.5955 212.785C93.9466 211.926 94.5599 211.201 95.3474 210.714C96.1348 210.227 97.056 210.002 97.9787 210.072C98.9013 210.143 99.778 210.505 100.483 211.106C101.188 211.707 101.685 212.517 101.902 213.419C102.119 214.318 102.047 215.262 101.697 216.118C101.348 216.974 100.737 217.697 99.9538 218.184Z" fill="#DBDBDB"/>
<path d="M98.9906 213.961C98.9906 214.224 98.9127 214.482 98.7667 214.701C98.6208 214.92 98.4134 215.09 98.1707 215.191C97.928 215.292 97.661 215.318 97.4033 215.267C97.1457 215.216 96.909 215.089 96.7233 214.903C96.5376 214.716 96.4111 214.479 96.3598 214.22C96.3086 213.962 96.3349 213.694 96.4354 213.451C96.5359 213.207 96.7061 212.999 96.9246 212.853C97.143 212.707 97.3998 212.628 97.6624 212.628C98.0141 212.63 98.3508 212.771 98.5995 213.021C98.8481 213.27 98.9887 213.608 98.9906 213.961Z" fill="white"/>
<path d="M99.9539 217.635V218.184C99.2637 218.61 98.4692 218.836 97.6588 218.836C96.8484 218.836 96.0539 218.61 95.3638 218.184V217.635C95.3461 217.322 95.3924 217.008 95.4998 216.714C95.6072 216.419 95.7734 216.149 95.9882 215.921C96.2031 215.693 96.4621 215.512 96.7493 215.388C97.0366 215.263 97.346 215.199 97.6588 215.199C97.9716 215.199 98.2811 215.263 98.5683 215.388C98.8556 215.512 99.1146 215.693 99.3294 215.921C99.5442 216.149 99.7104 216.419 99.8178 216.714C99.9252 217.008 99.9715 217.322 99.9539 217.635Z" fill="white"/>
<path d="M204.731 211.589C204.809 211.589 204.883 211.62 204.938 211.675C204.992 211.73 205.023 211.804 205.023 211.882C205.023 211.92 205.016 211.958 205.001 211.993C204.986 212.028 204.964 212.06 204.937 212.086C204.91 212.113 204.878 212.134 204.842 212.148C204.807 212.162 204.769 212.168 204.731 212.167C204.694 212.168 204.656 212.162 204.621 212.148C204.586 212.134 204.554 212.113 204.528 212.086C204.501 212.059 204.48 212.027 204.466 211.992C204.452 211.957 204.446 211.92 204.447 211.882C204.446 211.844 204.452 211.806 204.466 211.77C204.48 211.735 204.501 211.702 204.527 211.675C204.554 211.648 204.586 211.626 204.621 211.611C204.656 211.597 204.693 211.589 204.731 211.589Z" fill="black"/>
<path d="M205.6 211.589C205.677 211.589 205.751 211.62 205.806 211.675C205.861 211.73 205.892 211.804 205.892 211.882C205.892 211.92 205.884 211.958 205.869 211.993C205.854 212.028 205.833 212.06 205.806 212.086C205.778 212.113 205.746 212.134 205.711 212.148C205.675 212.162 205.638 212.168 205.6 212.167C205.562 212.168 205.525 212.162 205.49 212.148C205.455 212.134 205.423 212.113 205.396 212.086C205.37 212.059 205.349 212.027 205.335 211.992C205.321 211.957 205.314 211.92 205.315 211.882C205.314 211.844 205.321 211.806 205.335 211.77C205.348 211.735 205.369 211.702 205.396 211.675C205.422 211.648 205.454 211.626 205.489 211.611C205.524 211.597 205.562 211.589 205.6 211.589Z" fill="black"/>
<path d="M206.49 211.589C206.567 211.589 206.642 211.62 206.696 211.675C206.751 211.73 206.782 211.804 206.782 211.882C206.771 211.951 206.736 212.013 206.683 212.058C206.63 212.104 206.563 212.128 206.494 212.128C206.424 212.128 206.357 212.104 206.304 212.058C206.251 212.013 206.216 211.951 206.205 211.882C206.205 211.805 206.235 211.732 206.288 211.677C206.341 211.623 206.414 211.591 206.49 211.589Z" fill="black"/>
<path d="M93.8167 223.681L107.988 223.549L119.708 223.476L143.148 223.41L154.313 223.476L166.025 223.549L177.745 223.681L166.025 223.82L154.313 223.893L143.148 223.959L119.708 223.893L107.988 223.812L93.8167 223.681Z" fill="#263238"/>
<path d="M93.8094 226.177C100.421 226.067 109.864 226.008 116.512 225.964L136.354 225.906L156.203 225.964L161.764 226.177L156.203 226.389L136.354 226.447L116.512 226.382C109.9 226.338 100.428 226.286 93.8094 226.177Z" fill="#263238"/>
<path d="M131.953 211.113H105.675V213.961H131.953V211.113Z" fill="#455A64"/>
<path d="M126.641 215.38H105.675V217.101H126.641V215.38Z" fill="#DBDBDB"/>
<path d="M93.2911 233.533L107.456 233.445L121.613 233.416L149.927 233.35L178.241 233.416L192.406 233.445L206.563 233.533L192.406 233.628L178.241 233.657L149.927 233.716L121.613 233.657L107.456 233.621L93.2911 233.533Z" fill="#DBDBDB"/>
<path d="M99.9539 248.647C99.1674 249.137 98.2464 249.364 97.3233 249.295C96.4001 249.227 95.5222 248.867 94.8158 248.267C94.1093 247.667 93.6106 246.858 93.3913 245.956C93.1719 245.054 93.2432 244.106 93.5949 243.247C93.9466 242.388 94.5607 241.663 95.3488 241.176C96.137 240.69 97.0587 240.466 97.9817 240.537C98.9046 240.608 99.7812 240.971 100.486 241.574C101.19 242.176 101.686 242.987 101.902 243.89C102.117 244.787 102.045 245.73 101.695 246.584C101.345 247.438 100.736 248.16 99.9539 248.647Z" fill="#DBDBDB"/>
<path d="M98.9906 244.424C98.9906 244.687 98.9127 244.945 98.7667 245.164C98.6208 245.383 98.4134 245.554 98.1707 245.655C97.928 245.755 97.661 245.782 97.4033 245.73C97.1457 245.679 96.909 245.552 96.7233 245.366C96.5376 245.18 96.4111 244.942 96.3598 244.684C96.3086 244.425 96.3349 244.158 96.4354 243.914C96.5359 243.671 96.7061 243.463 96.9246 243.316C97.143 243.17 97.3998 243.092 97.6624 243.092C98.0147 243.092 98.3525 243.232 98.6016 243.482C98.8507 243.732 98.9906 244.071 98.9906 244.424Z" fill="white"/>
<path d="M99.9538 248.098V248.647C99.266 249.08 98.4706 249.309 97.6587 249.309C96.8469 249.309 96.0515 249.08 95.3637 248.647V248.098C95.3968 247.51 95.653 246.957 96.0797 246.553C96.5065 246.148 97.0715 245.922 97.6587 245.922C98.246 245.922 98.811 246.148 99.2377 246.553C99.6645 246.957 99.9207 247.51 99.9538 248.098Z" fill="white"/>
<path d="M204.731 242.06C204.773 242.053 204.816 242.055 204.856 242.067C204.897 242.078 204.934 242.099 204.967 242.126C204.999 242.154 205.025 242.188 205.042 242.226C205.06 242.265 205.069 242.306 205.069 242.349C205.069 242.391 205.06 242.433 205.042 242.471C205.025 242.51 204.999 242.544 204.967 242.572C204.934 242.599 204.897 242.619 204.856 242.631C204.816 242.642 204.773 242.645 204.731 242.638C204.663 242.627 204.6 242.592 204.555 242.539C204.51 242.486 204.485 242.418 204.485 242.349C204.485 242.279 204.51 242.212 204.555 242.159C204.6 242.106 204.663 242.071 204.731 242.06Z" fill="black"/>
<path d="M205.6 242.06C205.641 242.053 205.684 242.055 205.725 242.067C205.765 242.078 205.803 242.099 205.835 242.126C205.867 242.154 205.893 242.188 205.911 242.226C205.928 242.265 205.938 242.306 205.938 242.349C205.938 242.391 205.928 242.433 205.911 242.471C205.893 242.51 205.867 242.544 205.835 242.572C205.803 242.599 205.765 242.619 205.725 242.631C205.684 242.642 205.641 242.645 205.6 242.638C205.531 242.627 205.469 242.592 205.424 242.539C205.379 242.486 205.354 242.418 205.354 242.349C205.354 242.279 205.379 242.212 205.424 242.159C205.469 242.106 205.531 242.071 205.6 242.06Z" fill="black"/>
<path d="M206.49 242.06C206.532 242.053 206.574 242.055 206.615 242.067C206.656 242.078 206.693 242.099 206.725 242.126C206.758 242.154 206.783 242.188 206.801 242.226C206.819 242.265 206.828 242.306 206.828 242.349C206.828 242.391 206.819 242.433 206.801 242.471C206.783 242.51 206.758 242.544 206.725 242.572C206.693 242.599 206.656 242.619 206.615 242.631C206.574 242.642 206.532 242.645 206.49 242.638C206.421 242.627 206.359 242.592 206.314 242.539C206.269 242.486 206.244 242.418 206.244 242.349C206.244 242.279 206.269 242.212 206.314 242.159C206.359 242.106 206.421 242.071 206.49 242.06Z" fill="black"/>
<path d="M119.613 254.151L129.428 254.02L137.55 253.946L153.78 253.88L161.515 253.939L169.63 254.02L177.745 254.151L169.63 254.283L161.515 254.364L153.78 254.422L137.55 254.364L129.428 254.283L119.613 254.151Z" fill="#263238"/>
<path d="M119.613 256.64C124.196 256.53 130.756 256.479 135.339 256.435L149.081 256.369L162.829 256.435L166.682 256.64L162.829 256.852L149.081 256.918L135.339 256.852C130.756 256.794 124.196 256.794 119.613 256.64Z" fill="#263238"/>
<path d="M131.953 241.577H105.675V244.424H131.953V241.577Z" fill="#455A64"/>
<path d="M126.641 245.851H105.675V247.571H126.641V245.851Z" fill="#DBDBDB"/>
<path d="M93.2913 271.418H116.052V253.881H93.2913V271.418Z" fill="#EAFFD0"/>
<path opacity="0.2" d="M95.7432 257.994C95.6594 258.422 95.7151 258.866 95.9021 259.261C96.0892 259.655 96.3976 259.978 96.7819 260.183C97.1662 260.388 97.606 260.463 98.0363 260.398C98.4666 260.333 98.8647 260.131 99.1717 259.822C99.4787 259.512 99.6784 259.112 99.7413 258.68C99.8042 258.248 99.727 257.807 99.521 257.423C99.315 257.038 98.9912 256.731 98.5974 256.545C98.2036 256.359 97.7607 256.305 97.334 256.391C96.9405 256.47 96.5793 256.665 96.2961 256.95C96.0129 257.236 95.8205 257.599 95.7432 257.994Z" fill="black"/>
<path opacity="0.2" d="M99.6036 267.714H116.052L107.828 258.47L99.6036 267.714Z" fill="black"/>
<path d="M93.2911 267.722H106.872L100.085 261.698L93.2911 267.722Z" fill="#EAFFD0"/>
<path opacity="0.3" d="M93.2911 267.722H106.872L100.085 261.698L93.2911 267.722Z" fill="black"/>
<path d="M116.059 267.714H93.2984V271.418H116.059V267.714Z" fill="#EAFFD0"/>
<path opacity="0.3" d="M116.059 267.714H93.2984V271.418H116.059V267.714Z" fill="black"/>
<path d="M173.286 134.655C166.285 138.992 158.218 141.289 149.989 141.289C141.76 141.289 133.693 138.992 126.692 134.655C118.494 129.571 112.172 121.945 108.686 112.932C105.199 103.919 104.739 94.0119 107.373 84.7128C110.008 75.4136 115.594 67.2298 123.285 61.4027C130.975 55.5755 140.351 52.4229 149.989 52.4229C159.627 52.4229 169.003 55.5755 176.694 61.4027C184.384 67.2298 189.97 75.4136 192.605 84.7128C195.24 94.0119 194.779 103.919 191.292 112.932C187.806 121.945 181.484 129.571 173.286 134.655Z" fill="#A6A6A6"/>
<path d="M148.198 86.5958C164.632 96.294 186.145 102.589 191.486 99.1998C196.828 95.8109 205.352 68.4144 204.68 61.9075C204.403 59.0968 185.364 57.5963 183.466 59.9312C181.569 62.2661 179.54 78.8811 178.511 80.4255C177.782 81.5381 160.961 78.8519 150.438 77.7905C143.724 77.1025 139.528 81.4795 148.198 86.5958Z" fill="#AD6359"/>
<path d="M204.469 65.6183C205.118 62.8077 207.388 48.2714 207.066 44.5019C206.745 40.7324 205.103 29.9509 202.206 29.8631C199.309 29.7753 199.535 32.9958 199.535 32.9958C199.535 32.9958 198.12 28.5529 195.193 28.7652C192.267 28.9774 192.793 33.8888 192.793 33.8888C192.793 33.8888 191.005 29.4386 188.1 29.8485C185.196 30.2583 186.56 35.1623 186.56 35.1623C186.56 35.1623 185.101 31.0122 182.868 32.3663C180.161 33.9912 183.685 41.3399 183.714 45.5412C183.714 46.4928 182.452 64.8132 182.452 64.8132L204.469 65.6183Z" fill="#AD6359"/>
<path d="M186.488 34.811C189.071 40.2201 189.268 43.0307 188.582 48.8935C188.582 49.0106 188.735 49.0546 188.757 48.9375C189.954 43.2576 190.217 39.6931 186.743 34.672C186.539 34.4231 186.327 34.5475 186.488 34.811Z" fill="#263238"/>
<path d="M192.581 33.5521C194.77 39.4077 195.011 42.4598 194.77 48.6521C194.77 48.6734 194.779 48.6939 194.794 48.709C194.809 48.7241 194.829 48.7326 194.85 48.7326C194.872 48.7326 194.892 48.7241 194.907 48.709C194.922 48.6939 194.931 48.6734 194.931 48.6521C195.697 42.5989 195.879 39.0344 192.924 33.4716C192.756 33.2155 192.479 33.2667 192.581 33.5521Z" fill="#263238"/>
<path d="M199.513 33.3398C201.228 39.1953 201.637 42.4964 200.601 48.4763C200.594 48.5054 200.599 48.536 200.615 48.5614C200.631 48.5868 200.656 48.6049 200.685 48.6117C200.714 48.6185 200.744 48.6135 200.77 48.5977C200.795 48.5819 200.813 48.5567 200.82 48.5275C202.462 42.5329 201.987 38.3682 199.696 33.3105C199.543 32.9592 199.404 32.9738 199.513 33.3398Z" fill="#263238"/>
<path d="M181.948 68.6047C181.948 68.6047 177.519 62.5442 176.162 59.4481C174.804 56.352 173.972 42.9575 176.84 42.6135C180.555 42.167 182.554 49.8011 183.043 53.6731C183.043 53.6731 191.632 52.6337 194.252 57.8086C196.872 62.9834 181.948 68.6047 181.948 68.6047Z" fill="#AD6359"/>
<path d="M177.898 42.8258C181.547 44.8679 181.897 49.9915 182.656 53.7097C182.666 53.7645 182.688 53.8162 182.722 53.8606C182.755 53.905 182.798 53.9409 182.848 53.9652C182.898 53.9895 182.953 54.0015 183.009 54.0004C183.064 53.9992 183.118 53.9849 183.167 53.9586C186.816 53.761 191.968 54.5442 194.325 57.6183C194.339 57.635 194.358 57.6461 194.379 57.6494C194.401 57.6527 194.422 57.648 194.44 57.6363C194.459 57.6245 194.472 57.6064 194.477 57.5856C194.483 57.5647 194.481 57.5425 194.471 57.5232C192.384 53.922 187.363 52.7363 183.408 53.2047C182.678 49.3767 182.138 44.2531 177.92 42.8258C177.891 42.7819 177.876 42.8112 177.898 42.8258Z" fill="#263238"/>
<path d="M173.644 101.22L178.132 79.2617C178.132 79.2617 161.041 76.4291 150.555 76.5974C140.068 76.7658 136.602 80.8207 149.766 88.711C157.465 93.3623 165.439 97.5396 173.644 101.22Z" fill="#455A64"/>
<path d="M173.892 79.5984C173.007 82.6189 172.199 85.6638 171.469 88.733C171.112 90.2408 170.74 91.7486 170.397 93.271C170.054 94.7935 169.82 96.433 169.47 97.9994C169.47 98.1092 169.616 98.1604 169.645 98.0506C170.032 96.5501 170.521 95.0716 170.922 93.5711C171.323 92.0707 171.652 90.4604 172.053 88.9087C172.788 85.8345 173.447 82.7433 174.031 79.635C174.032 79.618 174.027 79.6011 174.017 79.5873C174.007 79.5735 173.993 79.5635 173.976 79.5592C173.96 79.5548 173.943 79.5564 173.927 79.5635C173.912 79.5707 173.899 79.583 173.892 79.5984Z" fill="#263238"/>
<path d="M169.835 136.536C167.033 137.959 164.084 139.071 161.041 139.852L160.414 140.013C160.02 140.115 159.611 140.203 159.217 140.291C153.049 141.634 146.666 141.634 140.499 140.291C139.9 140.159 139.302 140.013 138.711 139.852C135.162 138.925 131.744 137.553 128.538 135.767C128.283 135.636 128.035 135.497 127.808 135.343C127.414 135.116 127.02 134.875 126.619 134.611C124.981 133.593 123.411 132.468 121.919 131.244C121.737 131.112 121.562 130.966 121.387 130.812C119.89 129.548 118.479 128.186 117.161 126.735L116.767 126.303C116.023 125.459 115.31 124.588 114.629 123.69C114.746 123.207 114.87 122.724 114.987 122.227C115.03 122.088 115.06 121.941 115.096 121.802C115.439 120.47 115.826 119.116 116.191 117.718C116.227 117.571 116.278 117.432 116.315 117.279C116.694 115.954 117.096 114.585 117.541 113.216C117.575 113.07 117.619 112.924 117.672 112.777C118.103 111.438 118.555 110.069 119.037 108.693C119.081 108.561 119.139 108.415 119.19 108.268C119.672 106.922 120.168 105.56 120.701 104.192C120.752 104.06 120.803 103.921 120.861 103.782C121.394 102.42 121.963 101.074 122.554 99.7121C122.613 99.5584 122.678 99.4193 122.744 99.273C123.35 97.9042 123.985 96.5501 124.649 95.1961C124.707 95.0643 124.773 94.9252 124.838 94.8008C125.519 93.4248 126.232 92.0658 126.976 90.7239C127.006 90.6582 127.04 90.5946 127.079 90.5336L127.225 90.2774C127.998 88.9014 128.808 87.54 129.662 86.2152C129.75 86.0688 129.844 85.9224 129.939 85.776C130.837 84.3853 131.786 83.0239 132.771 81.7064C132.84 81.5973 132.916 81.4923 132.997 81.3917L133.092 81.2746C133.96 80.1181 134.872 78.9836 135.814 77.9003C136.04 77.6397 136.284 77.3952 136.543 77.1684L136.653 77.0806C136.784 76.9781 136.908 76.8829 137.054 76.7878C137.078 76.7665 137.105 76.7492 137.135 76.7365C141.601 73.7502 150.11 74.9506 151.197 76.5389C151.246 76.6013 151.29 76.6674 151.328 76.7365L151.474 76.9488C152.375 78.3341 153.193 79.7712 153.926 81.2526C154.656 82.6433 155.313 84.1804 155.984 85.754C156.59 87.1813 157.174 88.6818 157.75 90.2408C157.75 90.3213 157.808 90.3945 157.83 90.4677C157.865 90.5379 157.891 90.6115 157.911 90.6873C158.451 92.1512 158.976 93.6151 159.494 95.1814C159.932 96.5209 160.377 97.8823 160.793 99.2583C160.837 99.412 160.888 99.5438 160.932 99.6975C161.37 101.11 161.8 102.545 162.209 103.979C162.224 104.054 162.243 104.127 162.267 104.199C162.669 105.56 163.041 106.922 163.413 108.276C163.413 108.4 163.464 108.51 163.5 108.627C163.88 110.025 164.23 111.416 164.588 112.785L164.705 113.224C165.055 114.592 165.39 115.954 165.712 117.286C165.712 117.33 165.712 117.367 165.712 117.403C165.712 117.44 165.763 117.615 165.785 117.725C166.12 119.116 166.441 120.477 166.748 121.809C167.098 123.361 167.434 124.869 167.74 126.311C167.777 126.465 167.806 126.604 167.835 126.743C168.149 128.207 168.448 129.612 168.718 130.944C168.718 131.046 168.718 131.149 168.777 131.251C169.09 132.81 169.368 134.252 169.608 135.548C169.608 135.621 169.608 135.687 169.645 135.753L169.835 136.536Z" fill="#EAFFD0"/>
<path opacity="0.1" d="M138.711 139.852C139.302 140.013 139.9 140.159 140.499 140.291H159.217C159.611 140.203 160.02 140.115 160.414 140.013L161.041 139.852H138.711ZM169.703 135.563C169.703 135.489 169.667 135.416 169.652 135.343H127.779C128.035 135.497 128.283 135.636 128.509 135.767H169.703C169.703 135.702 169.703 135.636 169.703 135.563ZM168.813 130.959C168.799 130.918 168.786 130.876 168.777 130.834H121.357C121.533 130.988 121.708 131.134 121.89 131.266H168.835C168.813 131.164 168.791 131.061 168.777 130.959H168.813ZM167.835 126.325H116.753L117.147 126.757H167.908C167.864 126.618 167.835 126.508 167.799 126.325H167.835ZM114.016 126.325C114.009 126.4 113.995 126.474 113.972 126.545C113.972 126.472 113.972 126.399 114.023 126.325H114.016ZM166.784 121.824H115.06C115.06 121.963 114.994 122.109 114.958 122.249H166.894L166.784 121.824ZM165.748 117.432C165.748 117.396 165.748 117.359 165.748 117.315H116.286C116.249 117.469 116.198 117.608 116.162 117.754H165.85C165.821 117.637 165.799 117.535 165.77 117.418L165.748 117.432ZM164.595 112.799H117.65C117.595 112.943 117.549 113.089 117.512 113.238H164.734L164.595 112.799ZM163.508 108.642C163.471 108.525 163.449 108.415 163.42 108.29H119.168C119.117 108.437 119.059 108.583 119.008 108.715H163.522C163.521 108.69 163.524 108.666 163.53 108.642H163.508ZM162.216 103.994L162.15 103.782H120.854C120.796 103.921 120.744 104.06 120.686 104.192H162.282C162.264 104.127 162.249 104.061 162.238 103.994H162.216ZM160.8 99.273H122.737C122.671 99.4194 122.605 99.5584 122.547 99.7121H160.946C160.946 99.5584 160.866 99.4267 160.822 99.273H160.8ZM159.341 94.7716H124.846C124.78 94.896 124.714 95.035 124.656 95.1668H159.538C159.474 95.0385 159.418 94.9065 159.37 94.7716H159.341ZM157.83 90.4751C157.83 90.4019 157.779 90.3287 157.75 90.2482H127.232L127.093 90.5043C127.055 90.5654 127.021 90.6289 126.991 90.6947H157.94C157.921 90.6189 157.894 90.5453 157.86 90.4751H157.83ZM155.984 85.7614H129.939C129.852 85.9078 129.757 86.0541 129.677 86.2005H156.181C156.13 86.0468 156.064 85.9004 156.013 85.7614H155.984ZM153.919 81.2453H133.106L133.012 81.3624C132.93 81.463 132.855 81.5681 132.785 81.6772H154.152C154.079 81.5308 154.014 81.3844 153.948 81.2453H153.919ZM151.467 76.9415L151.321 76.7292H137.149C137.12 76.7419 137.093 76.7592 137.069 76.7805C136.923 76.8756 136.799 76.9708 136.668 77.0733L136.558 77.1611H151.635C151.583 77.0918 151.536 77.0183 151.496 76.9415H151.467Z" fill="black"/>
<path d="M150.372 88.2793C146.928 88.9014 141.367 83.3753 139.28 79.0276C139.141 78.7348 139.747 75.7045 140.302 71.9863C140.637 69.7319 140.951 67.2067 141.075 64.8865L155.4 69.1976C154.418 72.0545 153.788 75.0215 153.525 78.0321C153.516 78.3526 153.533 78.6733 153.576 78.991C153.58 79.0421 153.58 79.0935 153.576 79.1447C153.787 80.9745 153.7 87.6718 150.372 88.2793Z" fill="#AD6359"/>
<path d="M153.598 79.1447C153.598 79.2471 153.598 79.3569 153.598 79.4813C144.892 77.6369 142.206 73.216 140.667 69.1464C140.842 67.7191 140.988 66.2698 141.053 64.8865L155.378 69.1903C154.396 72.0495 153.769 75.0191 153.51 78.0321C153.494 78.3526 153.511 78.674 153.561 78.991C153.567 79.0435 153.579 79.0952 153.598 79.1447Z" fill="#263238"/>
<path d="M137.791 48.2641C136.193 53.4243 138.849 68.3705 142.505 71.6862C147.796 76.5317 156.495 77.0294 160.611 70.6468C164.602 64.4546 160.793 45.029 156.714 41.9987C150.73 37.5412 140.148 40.6373 137.791 48.2641Z" fill="#AD6359"/>
<path d="M150 57.7061C150 57.7061 149.927 57.7719 149.934 57.8085C150.139 58.8113 150.212 60.0043 149.358 60.4874C149.358 60.4874 149.358 60.5533 149.358 60.5387C150.489 60.158 150.379 58.5844 150 57.7061Z" fill="#263238"/>
<path d="M148.949 56.7766C147.307 56.9303 147.745 60.2021 149.263 60.0557C150.781 59.9093 150.321 56.6448 148.949 56.7766Z" fill="#263238"/>
<path d="M156.276 56.7399C156.276 56.696 156.364 56.7399 156.371 56.8131C156.473 57.8305 156.758 59.0089 157.721 59.1993C157.721 59.1993 157.721 59.2578 157.721 59.2505C156.568 59.2432 156.21 57.7061 156.276 56.7399Z" fill="#263238"/>
<path d="M157.042 55.5614C158.648 55.2174 159.231 58.4892 157.721 58.782C156.21 59.0747 155.692 55.8469 157.042 55.5614Z" fill="#263238"/>
<path d="M147.461 55.4517C147.873 55.2688 148.275 55.0636 148.665 54.8369C149.119 54.6789 149.509 54.3754 149.774 53.9732C149.827 53.8307 149.834 53.6751 149.795 53.5282C149.756 53.3813 149.672 53.2503 149.555 53.1534C149.285 53.0032 148.98 52.9287 148.672 52.9377C148.364 52.9468 148.064 53.039 147.804 53.2046C147.228 53.4564 146.765 53.9126 146.505 54.4855C146.446 54.62 146.429 54.769 146.456 54.9133C146.483 55.0575 146.552 55.1903 146.655 55.2945C146.758 55.3987 146.89 55.4693 147.034 55.4974C147.177 55.5254 147.326 55.5095 147.461 55.4517Z" fill="#263238"/>
<path d="M158.086 53.739C157.635 53.7115 157.187 53.6578 156.743 53.578C156.262 53.5912 155.791 53.4388 155.408 53.1462C155.309 53.03 155.248 52.8857 155.235 52.7334C155.222 52.5811 155.257 52.4286 155.335 52.2971C155.536 52.0653 155.797 51.8921 156.088 51.7956C156.379 51.699 156.691 51.6826 156.991 51.7482C157.617 51.778 158.209 52.0387 158.655 52.4801C158.765 52.5849 158.839 52.7213 158.868 52.8704C158.897 53.0196 158.879 53.174 158.816 53.3124C158.754 53.4507 158.65 53.5662 158.519 53.6426C158.388 53.7191 158.237 53.7528 158.086 53.739Z" fill="#263238"/>
<path d="M151.722 63.7666C152.031 64.1329 152.413 64.4312 152.842 64.6428C153.272 64.8544 153.74 64.9747 154.218 64.9962C154.637 65.0219 155.058 64.9849 155.466 64.8864C155.546 64.8747 155.624 64.8551 155.699 64.8279L155.911 64.762C155.963 64.7448 156.008 64.7113 156.04 64.6665C156.071 64.6217 156.087 64.568 156.086 64.5132C156.091 64.4792 156.091 64.4447 156.086 64.4107V64.3228C155.999 63.5397 155.765 62.3686 155.765 62.3686C156.072 62.471 157.604 62.9322 157.531 62.5296C156.882 59.1773 156.159 55.4591 154.809 52.2824C154.801 52.2594 154.785 52.2402 154.764 52.2289C154.742 52.2175 154.717 52.2149 154.694 52.2214C154.67 52.228 154.65 52.2433 154.638 52.2642C154.625 52.285 154.621 52.3099 154.627 52.3337C155.123 55.5762 156.188 58.7089 156.736 61.9587C156.19 61.7872 155.622 61.6936 155.05 61.6805C154.941 61.7245 155.539 63.9496 155.546 64.3009C155.551 64.3127 155.551 64.3257 155.546 64.3375C154.262 64.6815 153.226 64.418 151.839 63.708C151.715 63.6129 151.649 63.6934 151.722 63.7666Z" fill="#263238"/>
<path d="M154.853 64.5936C154.522 65.1573 154.052 65.6261 153.488 65.955C153.175 66.1223 152.818 66.1863 152.467 66.138C151.693 66.0355 151.591 65.3548 151.657 64.7473C151.699 64.4278 151.774 64.1138 151.883 63.8104C152.763 64.3851 153.805 64.6598 154.853 64.5936Z" fill="#263238"/>
<path d="M153.488 65.9551C153.175 66.1223 152.818 66.1863 152.467 66.138C151.693 66.0356 151.591 65.3549 151.657 64.7473C152.053 64.7136 152.449 64.8143 152.781 65.0333C153.113 65.2524 153.362 65.577 153.488 65.9551Z" fill="#FF9CBD"/>
<path opacity="0.2" d="M137.82 58.5112C138.755 57.9549 140.338 54.6173 141.039 53.2486C141.739 51.8798 141.192 45.5193 140.973 43.6382C139.487 44.8614 138.382 46.4875 137.791 48.3226C137.105 50.4672 137.2 54.4709 137.82 58.5112Z" fill="#263238"/>
<path d="M153.7 47.3564C153.243 48.0608 152.615 48.6363 151.874 49.0283C151.133 49.4203 150.305 49.6158 149.467 49.5961C148.615 49.5764 147.781 49.3388 147.046 48.9059C146.31 48.473 145.697 47.8591 145.264 47.1222C145.264 47.0783 145.169 47.1222 145.191 47.1222C145.578 47.9378 146.179 48.6323 146.93 49.1313C147.681 49.6303 148.553 49.915 149.453 49.9548C150.343 49.9513 151.218 49.7118 151.986 49.2607C152.755 48.8096 153.392 48.1627 153.831 47.3857C153.839 47.3564 153.744 47.2905 153.7 47.3564Z" fill="#263238"/>
<path d="M147.081 35.9675C144.264 36.3993 141.878 38.3024 141.097 40.3591C140.661 41.536 140.638 42.827 141.031 44.0188C141.031 44.0701 141.148 44.0188 141.134 44.0188C140.936 42.9504 141.029 41.8483 141.403 40.8283C141.776 39.8083 142.417 38.908 143.257 38.2219C144.169 37.4266 145.253 36.8551 146.424 36.5528C147.594 36.2504 148.818 36.2254 150 36.4799C151.151 36.7051 152.186 37.3328 152.919 38.2511C152.985 38.3463 153.189 38.2511 153.131 38.156C152.124 36.4799 149.642 35.5796 147.081 35.9675Z" fill="#263238"/>
<path d="M164.274 39.9639C163.629 38.6286 162.536 37.5636 161.187 36.9556C159.319 36.1066 157.385 36.5238 155.466 36.9556C155.458 36.959 155.451 36.9646 155.447 36.9718C155.442 36.9789 155.439 36.9873 155.439 36.9959C155.439 37.0044 155.442 37.0128 155.447 37.0199C155.451 37.0271 155.458 37.0327 155.466 37.0361C157.093 36.6628 158.772 36.3701 160.392 36.9556C161.733 37.428 162.87 38.3512 163.61 39.5686C164.329 40.8258 164.572 42.3008 164.295 43.7232C164.017 45.1456 163.238 46.42 162.099 47.3125C161.432 47.8104 160.67 48.1659 159.86 48.3572C159.051 48.5485 158.211 48.5716 157.392 48.4251C157.327 48.4251 157.297 48.5056 157.392 48.5202C158.87 48.8292 160.409 48.587 161.722 47.8392C163.034 47.0914 164.03 45.8893 164.522 44.458C164.994 42.9804 164.905 41.3802 164.274 39.9639Z" fill="#263238"/>
<path d="M137.302 51.287C137.302 51.287 133.989 46.5586 135.843 43.3454C136.908 41.5302 141.148 41.2155 141.148 41.2155C142.061 39.3954 143.657 38.0132 145.585 37.3728C149.015 36.1212 153.459 37.6583 153.459 37.6583C153.459 37.6583 156.568 35.3161 159.925 36.7214C164.61 38.6757 164.902 45.4241 160.771 48.125C157.852 50.0207 153.328 47.8103 153.328 47.8103C152.934 47.9127 149.11 50.9283 145.527 47.6273C145.527 47.6273 143.272 50.211 140.791 48.9082C140.519 49.6133 140.04 50.2187 139.417 50.6437C138.794 51.0687 138.056 51.2931 137.302 51.287Z" fill="#263238"/>
<path d="M140.922 60.4435C140.922 60.4435 137.478 55.6713 135.31 56.9082C133.143 58.1452 135.792 65.106 138.368 66.0209C138.691 66.1619 139.039 66.2357 139.391 66.238C139.743 66.2402 140.092 66.1708 140.417 66.034C140.741 65.8972 141.035 65.6957 141.28 65.4419C141.525 65.188 141.716 64.887 141.841 64.557L140.922 60.4435Z" fill="#AD6359"/>
<path d="M136.135 58.8845C136.125 58.8845 136.116 58.8884 136.109 58.8952C136.102 58.9021 136.098 58.9114 136.098 58.9211C136.098 58.9308 136.102 58.9401 136.109 58.947C136.116 58.9539 136.125 58.9577 136.135 58.9577C137.945 59.6897 138.922 61.3146 139.608 63.0346C139.499 62.8539 139.352 62.6991 139.177 62.5808C139.002 62.4626 138.804 62.3837 138.596 62.3496C138.388 62.3155 138.175 62.3271 137.972 62.3834C137.769 62.4397 137.58 62.5395 137.419 62.676C137.412 62.6849 137.407 62.6959 137.406 62.7074C137.405 62.7189 137.408 62.7304 137.413 62.7406C137.419 62.7508 137.427 62.7591 137.437 62.7645C137.447 62.77 137.459 62.7723 137.47 62.7711C137.785 62.6645 138.124 62.6587 138.442 62.7545C138.76 62.8502 139.04 63.0428 139.243 63.3054C139.581 63.7474 139.872 64.2232 140.112 64.7254C140.199 64.8864 140.484 64.7913 140.426 64.6083C140.423 64.5938 140.423 64.5788 140.426 64.5644C140.418 62.2661 138.587 59.0748 136.135 58.8845Z" fill="#263238"/>
<path d="M129.903 80.7329C114.308 95.2766 94.145 126.413 97.3705 133.045C100.961 140.43 122.678 120.031 122.649 118.786C122.649 117.842 130.786 100.671 136.938 86.7934C143.089 72.9158 133.756 77.1391 129.903 80.7329Z" fill="#AD6359"/>
<path d="M97.3705 133.045C100.523 138.015 109.638 139.332 132.274 144.8C135.405 145.532 146.687 124.825 143.381 123.844C139.222 122.607 122.802 118.721 121.569 118.582C111.141 117.462 95.225 129.67 97.3705 133.045Z" fill="#AD6359"/>
<path d="M135.865 123.024C135.865 123.024 145.052 122.915 149.898 124.364C156.385 126.296 161.194 130.644 163.099 132.583C167.076 136.646 173.899 149.213 170.63 151.812C167.711 154.168 161.355 140.964 161.355 140.964C161.355 140.964 170.01 153.363 165.93 155.537C161.851 157.711 155.378 141.974 155.378 141.974C155.378 141.974 163.997 154.908 159.436 156.489C155.984 157.682 149.321 143.753 149.321 143.753C149.321 143.753 156.655 154.922 153.16 156.298C149.299 157.828 142.345 145.356 142.345 145.356C132.858 147.369 127.553 144.441 124.006 141.908C123.152 141.294 135.865 123.024 135.865 123.024Z" fill="#AD6359"/>
<path d="M158.633 136.492C159.698 137.905 160.822 139.339 161.734 140.884C162.647 142.428 163.559 143.936 164.361 145.524C165.437 147.585 166.279 149.76 166.872 152.009C165.536 148.093 162.252 142.64 161.311 141.125C160.37 139.61 159.509 138.066 158.575 136.558C158.545 136.485 158.604 136.455 158.633 136.492Z" fill="#263238"/>
<path d="M153.131 139.793C154.422 141.667 155.772 143.453 156.976 145.407C158.181 147.361 159.166 149.25 160.209 151.263C160.297 151.416 160.209 151.409 160.093 151.263C158.954 149.308 157.743 147.603 156.575 145.649C155.408 143.694 154.32 141.725 153.087 139.837C153.065 139.793 153.116 139.771 153.131 139.793Z" fill="#263238"/>
<path d="M147.906 141.784C149.951 144.607 151.702 147.634 153.131 150.816C153.204 150.97 153.065 150.948 152.977 150.816C151.299 147.735 150 145.363 147.811 141.879C147.811 141.806 147.862 141.726 147.906 141.784Z" fill="#263238"/>
<path d="M108.696 121.729C112.788 119.039 117.722 117.95 122.561 118.669C122.62 118.669 122.62 118.779 122.561 118.772C117.548 118.413 110.667 120.755 108.696 121.817C108.682 121.846 108.645 121.766 108.696 121.729Z" fill="#263238"/>
<path d="M107.521 101.161L126.904 112.272C126.904 112.272 134.931 96.8649 138.018 86.8153C141.104 76.7658 138.361 72.1765 126.787 82.2993C119.989 88.1888 113.556 94.4878 107.521 101.161Z" fill="#455A64"/>
<path d="M127.932 108.144C125.344 106.358 122.712 104.65 120.037 103.02C118.716 102.208 117.402 101.374 116.067 100.583C114.731 99.7926 113.257 99.046 111.878 98.2335C111.783 98.175 111.681 98.3141 111.776 98.3799C113.075 99.2144 114.323 100.144 115.622 100.986C116.92 101.827 118.329 102.676 119.686 103.518C122.372 105.182 125.094 106.775 127.852 108.298C127.932 108.305 128.013 108.21 127.932 108.144Z" fill="#263238"/>
<path d="M126.086 111.804C126.378 111.936 126.663 112.06 126.947 112.199L126.823 112.236C127.371 110.816 127.991 109.44 128.589 108.049C129.188 106.658 129.859 105.311 130.53 103.957C131.202 102.603 131.88 101.257 132.617 99.9317C133.354 98.6069 134.077 97.2821 134.887 95.9939C134.369 97.4212 133.778 98.8119 133.165 100.195C132.552 101.579 131.917 102.947 131.26 104.316C130.603 105.685 129.917 107.017 129.209 108.356C128.502 109.696 127.75 111.021 127.02 112.316L126.969 112.397L126.896 112.353C126.597 112.177 126.342 111.987 126.086 111.804Z" fill="#263238"/>
<path d="M135.266 98.6947C134.453 100.016 133.334 101.12 132.004 101.915C132.408 101.25 132.899 100.642 133.464 100.107C134.002 99.5606 134.607 99.0857 135.266 98.6947Z" fill="#263238"/>
<path d="M246.721 129.546C245.699 137.919 238.803 145.107 238.803 145.107C238.803 145.107 228.937 143.833 222.916 137.949C217.896 133.037 217.502 125.959 221.639 122.915C227.572 118.523 233.315 129.553 233.315 129.553C233.315 129.553 231.002 117.359 238.336 116.993C243.459 116.796 247.575 122.563 246.721 129.546Z" fill="#EAFFD0"/>
<path d="M251.494 95.1741C247.772 100.137 240.744 102.179 240.744 102.179C240.744 102.179 234.906 97.7286 233.235 91.756C231.834 86.7788 234.177 82.1163 237.927 81.6991C243.306 81.1136 242.963 90.2482 242.963 90.2482C242.963 90.2482 245.918 81.5966 250.735 84.0999C254.084 85.8419 254.595 91.0313 251.494 95.1741Z" fill="#EAFFD0"/>
<path d="M65.2543 88.4475C61.6493 93.4906 54.6656 95.6937 54.6656 95.6937C54.6656 95.6937 48.74 91.3826 46.923 85.4465C45.4051 80.4986 47.6527 75.7849 51.389 75.2872C56.7527 74.5553 56.614 83.7192 56.614 83.7192C56.614 83.7192 59.3725 75.0018 64.2399 77.3879C67.6333 79.0787 68.2681 84.2608 65.2543 88.4475Z" fill="#EAFFD0"/>
</svg>
