<svg width="320" height="300" viewBox="0 0 320 300" fill="none" xmlns="http://www.w3.org/2000/svg">
<path d="M75.2392 65.9501H104.36V63.7914C95.0554 64.6346 85.935 64.4828 74.9996 65.3345C75.1134 65.5273 75.1942 65.7349 75.2392 65.9501Z" fill="#F9B572"/>
<path d="M317.457 120.415C312.998 97.4957 300.727 79.4841 284.955 62.8385C283.149 60.9328 281.365 59.1226 279.602 57.4081H232.701C232.548 57.781 232.288 58.1097 231.95 58.3601C231.611 58.6104 231.205 58.7733 230.775 58.8319C230.344 58.8904 229.904 58.8425 229.5 58.6931C229.097 58.5437 228.744 58.2982 228.479 57.9821C228.214 57.6659 228.046 57.2907 227.993 56.8952C227.94 56.4997 228.003 56.0984 228.176 55.7328C228.349 55.3672 228.626 55.0506 228.978 54.8158C229.329 54.5811 229.743 54.4367 230.177 54.3977V44.5233H202.981V57.4249H170.884V80.7827H169.963V56.5817H202.06V43.6801H252.867C252.982 43.1318 253.316 42.6424 253.804 42.3074C254.292 41.9724 254.898 41.816 255.506 41.8687C256.113 41.9214 256.677 42.1794 257.087 42.5924C257.497 43.0053 257.725 43.5435 257.725 44.1017C257.725 44.6599 257.497 45.1981 257.087 45.611C256.677 46.024 256.113 46.282 255.506 46.3347C254.898 46.3874 254.292 46.231 253.804 45.896C253.316 45.5611 252.982 45.0716 252.867 44.5233H231.116V54.4651C231.614 54.5987 232.052 54.873 232.368 55.2488C232.684 55.6245 232.862 56.0823 232.876 56.5564H278.69C244.023 23.2315 215.897 23.5098 193.741 28.5777C172.1 33.5359 161.847 44.7763 138.29 54.9289V59.1451H158.217V59.9884H137.369V55.3421C135.665 56.0589 133.905 56.7672 132.063 57.4755C123.529 60.7735 114.5 62.8715 105.282 63.6986V66.7849H75.2393C75.122 67.3307 74.7873 67.8172 74.3002 68.1499C73.8131 68.4826 73.2083 68.6377 72.6033 68.5852C71.9982 68.5326 71.4361 68.2762 71.026 67.8656C70.616 67.455 70.3872 66.9196 70.3842 66.3633C70.3858 66.1451 70.4263 65.9286 70.504 65.7224C64.835 66.3033 59.2019 67.1476 53.6265 68.2521C19.4386 74.9981 0 117.278 0 141.454C0 165.63 2.05441 200.573 31.5071 218.686C60.9597 236.799 130.727 202.538 158.208 203.896C185.689 205.253 217.169 233.409 256.783 233.409C312.169 233.409 326.596 167.544 317.457 120.415ZM280.864 146.682H295.605V124.218C295.006 124.113 294.471 123.807 294.105 123.361C293.739 122.914 293.568 122.359 293.626 121.803C293.683 121.247 293.965 120.731 294.416 120.356C294.867 119.98 295.455 119.772 296.065 119.772C296.675 119.772 297.263 119.98 297.714 120.356C298.165 120.731 298.447 121.247 298.505 121.803C298.562 122.359 298.391 122.914 298.025 123.361C297.66 123.807 297.125 124.113 296.526 124.218V147.542H281.786V162.577H280.864V146.682ZM227.662 99.9495H258.496C258.611 99.4013 258.945 98.9118 259.433 98.5769C259.92 98.2419 260.527 98.0855 261.134 98.1382C261.742 98.1909 262.305 98.4489 262.716 98.8618C263.126 99.2748 263.354 99.8129 263.354 100.371C263.354 100.929 263.126 101.468 262.716 101.88C262.305 102.293 261.742 102.551 261.134 102.604C260.527 102.657 259.92 102.5 259.433 102.165C258.945 101.831 258.611 101.341 258.496 100.793H227.634L227.662 99.9495ZM62.618 98.1282C63.2271 98.1325 63.8124 98.3452 64.2589 98.7243C64.7055 99.1034 64.9812 99.6216 65.0317 100.177H110.606V101.02H64.9304C64.8084 101.424 64.5656 101.787 64.2296 102.071C63.8935 102.355 63.4775 102.546 63.0286 102.625C62.5797 102.703 62.1157 102.665 61.6891 102.515C61.2626 102.365 60.8904 102.109 60.6146 101.775C60.3388 101.442 60.1704 101.044 60.1285 100.627C60.0866 100.211 60.1728 99.7919 60.3773 99.4178C60.5819 99.0437 60.8967 98.7294 61.2861 98.5105C61.6755 98.2915 62.1241 98.1766 62.5812 98.1787L62.618 98.1282ZM108.838 193.709H93.2775V199.612C93.7152 199.688 94.1219 199.872 94.454 200.144C94.786 200.416 95.0307 200.766 95.1618 201.155C95.293 201.545 95.3055 201.96 95.1982 202.356C95.0909 202.752 94.8677 203.113 94.5526 203.402C94.2376 203.69 93.8426 203.894 93.4102 203.993C92.9778 204.091 92.5243 204.079 92.0985 203.959C91.6727 203.839 91.2908 203.615 90.9937 203.311C90.6966 203.008 90.4956 202.635 90.4124 202.235H60.711V188.093H48.0437C47.9216 188.485 47.6857 188.838 47.3611 189.116C47.0366 189.393 46.6356 189.585 46.2012 189.67V211.266H31.461C31.2462 211.788 30.8268 212.218 30.2844 212.472C29.742 212.726 29.1157 212.786 28.5276 212.64C27.9394 212.495 27.4317 212.154 27.1034 211.684C26.7751 211.214 26.6497 210.649 26.7519 210.099C26.854 209.549 27.1762 209.054 27.6557 208.71C28.1351 208.366 28.7375 208.198 29.3452 208.238C29.9529 208.278 30.5223 208.524 30.9425 208.928C31.3626 209.332 31.6033 209.865 31.6176 210.422H45.2615V189.67C44.827 189.585 44.4261 189.393 44.1015 189.116C43.777 188.838 43.541 188.485 43.419 188.093H24.4042C24.2356 188.632 23.8537 189.094 23.3331 189.389C22.8124 189.683 22.1904 189.79 21.5886 189.687C20.9868 189.584 20.4485 189.28 20.0788 188.833C19.7092 188.387 19.5347 187.83 19.5896 187.272C19.6445 186.714 19.9247 186.194 20.3755 185.815C20.8264 185.436 21.4155 185.225 22.0276 185.222C22.6398 185.22 23.231 185.426 23.6858 185.801C24.1406 186.176 24.4263 186.693 24.4871 187.25H43.2716C43.3356 186.702 43.6189 186.194 44.0671 185.826C44.5152 185.457 45.0965 185.253 45.6991 185.253C46.3016 185.253 46.8829 185.457 47.3311 185.826C47.7792 186.194 48.0626 186.702 48.1266 187.25H61.6323V201.408H90.4124C90.5049 200.968 90.7396 200.563 91.0861 200.246C91.4326 199.928 91.875 199.714 92.3563 199.629V192.883H108.801L108.838 193.709ZM49.8217 163.614C49.7121 164.124 49.4124 164.584 48.9739 164.914C48.5353 165.244 47.9851 165.424 47.4172 165.424C46.8494 165.424 46.2991 165.244 45.8606 164.914C45.422 164.584 45.1223 164.124 45.0127 163.614H36.8872C36.7726 164.162 36.4387 164.652 35.9508 164.987C35.463 165.322 34.8562 165.478 34.249 165.426C33.6419 165.373 33.078 165.115 32.6676 164.702C32.2572 164.289 32.0298 163.751 32.0298 163.193C32.0298 162.634 32.2572 162.096 32.6676 161.683C33.078 161.27 33.6419 161.012 34.249 160.96C34.8562 160.907 35.463 161.063 35.9508 161.398C36.4387 161.733 36.7726 162.223 36.8872 162.771H45.0127C45.1189 162.263 45.4134 161.804 45.8465 161.473C46.2797 161.141 46.8248 160.956 47.3896 160.95V154.6H26.2006C26.1635 155.159 25.9 155.685 25.4616 156.076C25.0232 156.467 24.4413 156.694 23.8297 156.714C23.2181 156.733 22.6206 156.543 22.154 156.18C21.6873 155.818 21.385 155.309 21.3062 154.754C21.2273 154.198 21.3774 153.636 21.7273 153.176C22.0772 152.717 22.6017 152.393 23.1984 152.268C23.795 152.144 24.421 152.227 24.954 152.502C25.487 152.778 25.8888 153.225 26.0809 153.757H48.3201V161.11C48.706 161.253 49.0465 161.482 49.3105 161.777C49.5744 162.071 49.7534 162.422 49.8309 162.796H299.28C299.395 162.248 299.729 161.759 300.217 161.424C300.705 161.089 301.311 160.932 301.919 160.985C302.526 161.038 303.09 161.296 303.5 161.709C303.91 162.122 304.138 162.66 304.138 163.218C304.138 163.776 303.91 164.314 303.5 164.727C303.09 165.14 302.526 165.398 301.919 165.451C301.311 165.504 300.705 165.347 300.217 165.012C299.729 164.677 299.395 164.188 299.28 163.64L49.8217 163.614ZM299.953 203.339C300.038 202.789 300.344 202.287 300.811 201.932C301.278 201.577 301.874 201.394 302.48 201.419C303.087 201.444 303.662 201.675 304.092 202.067C304.523 202.46 304.778 202.984 304.809 203.54C304.839 204.095 304.642 204.641 304.256 205.07C303.871 205.5 303.324 205.782 302.723 205.862C302.122 205.943 301.51 205.815 301.006 205.505C300.502 205.194 300.143 204.723 299.999 204.183H264.65V195.615C264.21 195.508 263.812 195.288 263.502 194.982C263.192 194.676 262.984 194.297 262.9 193.887H223.627V193.043H262.9C263.009 192.533 263.309 192.074 263.748 191.744C264.186 191.414 264.736 191.233 265.304 191.233C265.872 191.233 266.422 191.414 266.861 191.744C267.3 192.074 267.599 192.533 267.709 193.043H299.953C300.068 192.495 300.401 192.006 300.889 191.671C301.377 191.336 301.984 191.179 302.591 191.232C303.198 191.285 303.762 191.543 304.172 191.956C304.583 192.369 304.81 192.907 304.81 193.465C304.81 194.023 304.583 194.561 304.172 194.974C303.762 195.387 303.198 195.645 302.591 195.698C301.984 195.751 301.377 195.594 300.889 195.259C300.401 194.924 300.068 194.435 299.953 193.887H267.709C267.608 194.355 267.346 194.782 266.962 195.105C266.577 195.428 266.09 195.631 265.571 195.683V203.339H299.953Z" fill="#F9B572"/>
<g opacity="0.7">
<path d="M75.2392 65.9501H104.36V63.7914C95.0554 64.6346 85.935 64.4828 74.9996 65.3345C75.1134 65.5273 75.1942 65.7349 75.2392 65.9501Z" fill="white"/>
<path d="M317.457 120.415C312.998 97.4957 300.727 79.4841 284.955 62.8385C283.149 60.9328 281.365 59.1226 279.602 57.4081H232.701C232.548 57.781 232.288 58.1097 231.95 58.3601C231.611 58.6104 231.205 58.7733 230.775 58.8319C230.344 58.8904 229.904 58.8425 229.5 58.6931C229.097 58.5437 228.744 58.2982 228.479 57.9821C228.214 57.6659 228.046 57.2907 227.993 56.8952C227.94 56.4997 228.003 56.0984 228.176 55.7328C228.349 55.3672 228.626 55.0506 228.978 54.8158C229.329 54.5811 229.743 54.4367 230.177 54.3977V44.5233H202.981V57.4249H170.884V80.7827H169.963V56.5817H202.06V43.6801H252.867C252.982 43.1318 253.316 42.6424 253.804 42.3074C254.292 41.9724 254.898 41.816 255.506 41.8687C256.113 41.9214 256.677 42.1794 257.087 42.5924C257.497 43.0053 257.725 43.5435 257.725 44.1017C257.725 44.6599 257.497 45.1981 257.087 45.611C256.677 46.024 256.113 46.282 255.506 46.3347C254.898 46.3874 254.292 46.231 253.804 45.896C253.316 45.5611 252.982 45.0716 252.867 44.5233H231.116V54.4651C231.614 54.5987 232.052 54.873 232.368 55.2488C232.684 55.6245 232.862 56.0823 232.876 56.5564H278.69C244.023 23.2315 215.897 23.5098 193.741 28.5777C172.1 33.5359 161.847 44.7763 138.29 54.9289V59.1451H158.217V59.9884H137.369V55.3421C135.665 56.0589 133.905 56.7672 132.063 57.4755C123.529 60.7735 114.5 62.8715 105.282 63.6986V66.7849H75.2393C75.122 67.3307 74.7873 67.8172 74.3002 68.1499C73.8131 68.4826 73.2083 68.6377 72.6033 68.5852C71.9982 68.5326 71.4361 68.2762 71.026 67.8656C70.616 67.455 70.3872 66.9196 70.3842 66.3633C70.3858 66.1451 70.4263 65.9286 70.504 65.7224C64.835 66.3033 59.2019 67.1476 53.6265 68.2521C19.4386 74.9981 0 117.278 0 141.454C0 165.63 2.05441 200.573 31.5071 218.686C60.9597 236.799 130.727 202.538 158.208 203.896C185.689 205.253 217.169 233.409 256.783 233.409C312.169 233.409 326.596 167.544 317.457 120.415ZM280.864 146.682H295.605V124.218C295.006 124.113 294.471 123.807 294.105 123.361C293.739 122.914 293.568 122.359 293.626 121.803C293.683 121.247 293.965 120.731 294.416 120.356C294.867 119.98 295.455 119.772 296.065 119.772C296.675 119.772 297.263 119.98 297.714 120.356C298.165 120.731 298.447 121.247 298.505 121.803C298.562 122.359 298.391 122.914 298.025 123.361C297.66 123.807 297.125 124.113 296.526 124.218V147.542H281.786V162.577H280.864V146.682ZM227.662 99.9495H258.496C258.611 99.4013 258.945 98.9118 259.433 98.5769C259.92 98.2419 260.527 98.0855 261.134 98.1382C261.742 98.1909 262.305 98.4489 262.716 98.8618C263.126 99.2748 263.354 99.8129 263.354 100.371C263.354 100.929 263.126 101.468 262.716 101.88C262.305 102.293 261.742 102.551 261.134 102.604C260.527 102.657 259.92 102.5 259.433 102.165C258.945 101.831 258.611 101.341 258.496 100.793H227.634L227.662 99.9495ZM62.618 98.1282C63.2271 98.1325 63.8124 98.3452 64.2589 98.7243C64.7055 99.1034 64.9812 99.6216 65.0317 100.177H110.606V101.02H64.9304C64.8084 101.424 64.5656 101.787 64.2296 102.071C63.8935 102.355 63.4775 102.546 63.0286 102.625C62.5797 102.703 62.1157 102.665 61.6891 102.515C61.2626 102.365 60.8904 102.109 60.6146 101.775C60.3388 101.442 60.1704 101.044 60.1285 100.627C60.0866 100.211 60.1728 99.7919 60.3773 99.4178C60.5819 99.0437 60.8967 98.7294 61.2861 98.5105C61.6755 98.2915 62.1241 98.1766 62.5812 98.1787L62.618 98.1282ZM108.838 193.709H93.2775V199.612C93.7152 199.688 94.1219 199.872 94.454 200.144C94.786 200.416 95.0307 200.766 95.1618 201.155C95.293 201.545 95.3055 201.96 95.1982 202.356C95.0909 202.752 94.8677 203.113 94.5526 203.402C94.2376 203.69 93.8426 203.894 93.4102 203.993C92.9778 204.091 92.5243 204.079 92.0985 203.959C91.6727 203.839 91.2908 203.615 90.9937 203.311C90.6966 203.008 90.4956 202.635 90.4124 202.235H60.711V188.093H48.0437C47.9216 188.485 47.6857 188.838 47.3611 189.116C47.0366 189.393 46.6356 189.585 46.2012 189.67V211.266H31.461C31.2462 211.788 30.8268 212.218 30.2844 212.472C29.742 212.726 29.1157 212.786 28.5276 212.64C27.9394 212.495 27.4317 212.154 27.1034 211.684C26.7751 211.214 26.6497 210.649 26.7519 210.099C26.854 209.549 27.1762 209.054 27.6557 208.71C28.1351 208.366 28.7375 208.198 29.3452 208.238C29.9529 208.278 30.5223 208.524 30.9425 208.928C31.3626 209.332 31.6033 209.865 31.6176 210.422H45.2615V189.67C44.827 189.585 44.4261 189.393 44.1015 189.116C43.777 188.838 43.541 188.485 43.419 188.093H24.4042C24.2356 188.632 23.8537 189.094 23.3331 189.389C22.8124 189.683 22.1904 189.79 21.5886 189.687C20.9868 189.584 20.4485 189.28 20.0788 188.833C19.7092 188.387 19.5347 187.83 19.5896 187.272C19.6445 186.714 19.9247 186.194 20.3755 185.815C20.8264 185.436 21.4155 185.225 22.0276 185.222C22.6398 185.22 23.231 185.426 23.6858 185.801C24.1406 186.176 24.4263 186.693 24.4871 187.25H43.2716C43.3356 186.702 43.6189 186.194 44.0671 185.826C44.5152 185.457 45.0965 185.253 45.6991 185.253C46.3016 185.253 46.8829 185.457 47.3311 185.826C47.7792 186.194 48.0626 186.702 48.1266 187.25H61.6323V201.408H90.4124C90.5049 200.968 90.7396 200.563 91.0861 200.246C91.4326 199.928 91.875 199.714 92.3563 199.629V192.883H108.801L108.838 193.709ZM49.8217 163.614C49.7121 164.124 49.4124 164.584 48.9739 164.914C48.5353 165.244 47.9851 165.424 47.4172 165.424C46.8494 165.424 46.2991 165.244 45.8606 164.914C45.422 164.584 45.1223 164.124 45.0127 163.614H36.8872C36.7726 164.162 36.4387 164.652 35.9508 164.987C35.463 165.322 34.8562 165.478 34.249 165.426C33.6419 165.373 33.078 165.115 32.6676 164.702C32.2572 164.289 32.0298 163.751 32.0298 163.193C32.0298 162.634 32.2572 162.096 32.6676 161.683C33.078 161.27 33.6419 161.012 34.249 160.96C34.8562 160.907 35.463 161.063 35.9508 161.398C36.4387 161.733 36.7726 162.223 36.8872 162.771H45.0127C45.1189 162.263 45.4134 161.804 45.8465 161.473C46.2797 161.141 46.8248 160.956 47.3896 160.95V154.6H26.2006C26.1635 155.159 25.9 155.685 25.4616 156.076C25.0232 156.467 24.4413 156.694 23.8297 156.714C23.2181 156.733 22.6206 156.543 22.154 156.18C21.6873 155.818 21.385 155.309 21.3062 154.754C21.2273 154.198 21.3774 153.636 21.7273 153.176C22.0772 152.717 22.6017 152.393 23.1984 152.268C23.795 152.144 24.421 152.227 24.954 152.502C25.487 152.778 25.8888 153.225 26.0809 153.757H48.3201V161.11C48.706 161.253 49.0465 161.482 49.3105 161.777C49.5744 162.071 49.7534 162.422 49.8309 162.796H299.28C299.395 162.248 299.729 161.759 300.217 161.424C300.705 161.089 301.311 160.932 301.919 160.985C302.526 161.038 303.09 161.296 303.5 161.709C303.91 162.122 304.138 162.66 304.138 163.218C304.138 163.776 303.91 164.314 303.5 164.727C303.09 165.14 302.526 165.398 301.919 165.451C301.311 165.504 300.705 165.347 300.217 165.012C299.729 164.677 299.395 164.188 299.28 163.64L49.8217 163.614ZM299.953 203.339C300.038 202.789 300.344 202.287 300.811 201.932C301.278 201.577 301.874 201.394 302.48 201.419C303.087 201.444 303.662 201.675 304.092 202.067C304.523 202.46 304.778 202.984 304.809 203.54C304.839 204.095 304.642 204.641 304.256 205.07C303.871 205.5 303.324 205.782 302.723 205.862C302.122 205.943 301.51 205.815 301.006 205.505C300.502 205.194 300.143 204.723 299.999 204.183H264.65V195.615C264.21 195.508 263.812 195.288 263.502 194.982C263.192 194.676 262.984 194.297 262.9 193.887H223.627V193.043H262.9C263.009 192.533 263.309 192.074 263.748 191.744C264.186 191.414 264.736 191.233 265.304 191.233C265.872 191.233 266.422 191.414 266.861 191.744C267.3 192.074 267.599 192.533 267.709 193.043H299.953C300.068 192.495 300.401 192.006 300.889 191.671C301.377 191.336 301.984 191.179 302.591 191.232C303.198 191.285 303.762 191.543 304.172 191.956C304.583 192.369 304.81 192.907 304.81 193.465C304.81 194.023 304.583 194.561 304.172 194.974C303.762 195.387 303.198 195.645 302.591 195.698C301.984 195.751 301.377 195.594 300.889 195.259C300.401 194.924 300.068 194.435 299.953 193.887H267.709C267.608 194.355 267.346 194.782 266.962 195.105C266.577 195.428 266.09 195.631 265.571 195.683V203.339H299.953Z" fill="white"/>
</g>
<path d="M180.908 44.3294H157.554C157.04 44.3294 156.547 44.1431 156.183 43.8113C155.818 43.4794 155.612 43.029 155.61 42.5586V32.4903C155.61 29.1849 157.045 26.0149 159.598 23.6776C162.152 21.3403 165.615 20.0272 169.226 20.0272C172.837 20.0272 176.301 21.3403 178.854 23.6776C181.408 26.0149 182.842 29.1849 182.842 32.4903V42.5586C182.842 43.0283 182.639 43.4787 182.276 43.8108C181.913 44.1429 181.421 44.3294 180.908 44.3294ZM159.498 40.7794H178.964V32.4903C179.004 31.2973 178.782 30.1091 178.311 28.9962C177.84 27.8832 177.129 26.8682 176.221 26.0114C175.314 25.1545 174.227 24.4733 173.026 24.0081C171.825 23.5429 170.535 23.3031 169.231 23.3031C167.927 23.3031 166.636 23.5429 165.435 24.0081C164.234 24.4733 163.148 25.1545 162.24 26.0114C161.332 26.8682 160.622 27.8832 160.151 28.9962C159.68 30.1091 159.458 31.2973 159.498 32.4903V40.7794Z" fill="#F9B572" stroke="#263238" stroke-linecap="round" stroke-linejoin="round"/>
<path d="M183.902 39.4808H154.173V62.4759H183.902V39.4808Z" fill="#263238" stroke="#263238" stroke-linecap="round" stroke-linejoin="round"/>
<path d="M172.128 49.0263C172.13 48.5006 171.98 47.9839 171.693 47.5289C171.405 47.0738 170.991 46.6968 170.492 46.4363C169.994 46.1759 169.428 46.0413 168.854 46.0464C168.28 46.0515 167.717 46.1961 167.224 46.4654C166.731 46.7346 166.325 47.1189 166.047 47.579C165.769 48.0391 165.63 48.5584 165.643 49.0839C165.657 49.6093 165.823 50.1221 166.123 50.5698C166.424 51.0175 166.85 51.384 167.356 51.6319L166.813 56.86H170.977L170.433 51.6319C170.947 51.3786 171.376 51.0025 171.674 50.5436C171.973 50.0847 172.13 49.5603 172.128 49.0263Z" fill="#F9B572" stroke="#263238" stroke-miterlimit="10"/>
<path d="M289.607 157.838H266.253C265.999 157.838 265.746 157.792 265.511 157.702C265.276 157.613 265.062 157.482 264.882 157.316C264.702 157.151 264.56 156.955 264.463 156.739C264.367 156.523 264.317 156.292 264.319 156.059V145.999C264.271 144.336 264.589 142.68 265.251 141.131C265.914 139.581 266.909 138.169 268.178 136.977C269.446 135.786 270.963 134.838 272.638 134.192C274.313 133.545 276.112 133.212 277.93 133.212C279.748 133.212 281.548 133.545 283.223 134.192C284.898 134.838 286.414 135.786 287.683 136.977C288.951 138.169 289.946 139.581 290.609 141.131C291.272 142.68 291.589 144.336 291.542 145.999V156.059C291.543 156.292 291.494 156.523 291.397 156.739C291.301 156.955 291.158 157.151 290.979 157.316C290.799 157.482 290.585 157.613 290.35 157.702C290.114 157.792 289.862 157.838 289.607 157.838ZM268.197 154.288H287.663V145.999C287.704 144.806 287.481 143.618 287.01 142.505C286.539 141.392 285.829 140.377 284.921 139.52C284.013 138.663 282.927 137.982 281.726 137.517C280.525 137.051 279.234 136.812 277.93 136.812C276.626 136.812 275.336 137.051 274.135 137.517C272.934 137.982 271.847 138.663 270.94 139.52C270.032 140.377 269.321 141.392 268.85 142.505C268.379 143.618 268.157 144.806 268.197 145.999V154.288Z" fill="#F9B572" stroke="#263238" stroke-linecap="round" stroke-linejoin="round"/>
<path d="M292.601 152.989H262.872V175.985H292.601V152.989Z" fill="#263238" stroke="#263238" stroke-linecap="round" stroke-linejoin="round"/>
<path d="M280.828 162.577C280.83 162.051 280.68 161.535 280.392 161.08C280.105 160.625 279.691 160.248 279.192 159.987C278.693 159.727 278.128 159.592 277.553 159.597C276.979 159.602 276.417 159.747 275.924 160.016C275.43 160.285 275.024 160.67 274.746 161.13C274.469 161.59 274.33 162.109 274.343 162.635C274.356 163.16 274.522 163.673 274.823 164.121C275.124 164.568 275.549 164.935 276.056 165.183L275.512 170.402H279.685L279.133 165.107C279.633 164.859 280.054 164.495 280.352 164.05C280.649 163.606 280.813 163.098 280.828 162.577Z" fill="#F9B572" stroke="#263238" stroke-miterlimit="10"/>
<path d="M70.9002 157.838H47.5279C47.2723 157.839 47.0189 157.794 46.7825 157.705C46.5461 157.616 46.3314 157.485 46.1506 157.319C45.9699 157.154 45.8267 156.957 45.7295 156.741C45.6322 156.525 45.5828 156.293 45.584 156.059V145.999C45.584 142.694 47.0186 139.524 49.5721 137.186C52.1256 134.849 55.589 133.536 59.2002 133.536C62.8115 133.536 66.2748 134.849 68.8283 137.186C71.3819 139.524 72.8164 142.694 72.8164 145.999V156.059C72.8189 156.527 72.6187 156.977 72.2596 157.311C71.9005 157.644 71.4117 157.834 70.9002 157.838ZM49.4902 154.288H68.9656V145.999C68.9656 143.635 67.9396 141.368 66.1135 139.697C64.2873 138.025 61.8105 137.086 59.2279 137.086C56.6453 137.086 54.1684 138.025 52.3423 139.697C50.5161 141.368 49.4902 143.635 49.4902 145.999V154.288Z" fill="#F9B572" stroke="#263238" stroke-linecap="round" stroke-linejoin="round"/>
<path d="M73.9035 152.989H44.1744V175.985H73.9035V152.989Z" fill="#263238" stroke="#263238" stroke-linecap="round" stroke-linejoin="round"/>
<path d="M62.1298 162.577C62.1312 162.052 61.9805 161.536 61.6929 161.082C61.4054 160.628 60.9913 160.251 60.493 159.991C59.9947 159.731 59.4299 159.597 58.8564 159.602C58.2828 159.607 57.7209 159.751 57.2281 160.019C56.7352 160.288 56.329 160.671 56.0509 161.131C55.7728 161.59 55.6327 162.108 55.6449 162.633C55.6571 163.158 55.8213 163.671 56.1206 164.119C56.4198 164.566 56.8436 164.934 57.3485 165.183L56.805 170.402H60.969L60.4255 165.107C60.9287 164.861 61.3515 164.497 61.6509 164.053C61.9504 163.608 62.1156 163.099 62.1298 162.577Z" fill="#F9B572" stroke="#263238" stroke-miterlimit="10"/>
<path d="M307.563 141.496C303.878 145.021 301.685 150.418 301.722 155.907C301.759 161.396 304.071 166.869 307.894 170.36C308.186 170.627 308.582 170.778 308.995 170.778C309.408 170.778 309.804 170.627 310.096 170.36C310.242 170.228 310.357 170.07 310.435 169.896C310.513 169.723 310.551 169.536 310.548 169.348C310.545 168.973 310.383 168.613 310.096 168.345C306.835 165.385 304.873 160.756 304.836 155.899C304.799 151.042 306.678 146.48 309.811 143.478C309.952 143.343 310.063 143.183 310.137 143.009C310.212 142.834 310.248 142.648 310.244 142.461C310.239 142.274 310.195 142.09 310.113 141.918C310.03 141.747 309.912 141.592 309.764 141.462C309.617 141.333 309.443 141.231 309.252 141.163C309.062 141.095 308.858 141.062 308.654 141.066C308.45 141.07 308.248 141.111 308.061 141.186C307.873 141.261 307.704 141.369 307.563 141.504V141.496Z" fill="#F9B572"/>
<path d="M312.105 145.333C309.514 148.336 308.122 152.06 308.161 155.886C308.199 159.713 309.666 163.412 312.316 166.372C312.587 166.658 312.971 166.835 313.383 166.863C313.796 166.892 314.204 166.769 314.518 166.523C314.69 166.388 314.826 166.219 314.919 166.03C315.011 165.84 315.057 165.635 315.053 165.427C315.054 165.093 314.923 164.769 314.684 164.516C312.509 162.067 311.308 159.015 311.276 155.859C311.244 152.703 312.384 149.631 314.509 147.146C314.772 146.854 314.897 146.478 314.857 146.102C314.817 145.726 314.616 145.379 314.297 145.139C313.978 144.898 313.568 144.784 313.157 144.82C312.746 144.857 312.367 145.041 312.105 145.333Z" fill="#F9B572"/>
<path d="M316.591 149.22C314.916 151.12 314.026 153.501 314.078 155.942C314.13 158.383 315.121 160.73 316.876 162.569C317.081 162.799 317.359 162.964 317.671 163.043C317.984 163.121 318.315 163.109 318.62 163.007C318.924 162.904 319.186 162.718 319.369 162.473C319.552 162.229 319.646 161.938 319.64 161.641C319.641 161.309 319.51 160.989 319.272 160.739C317.986 159.394 317.26 157.678 317.222 155.892C317.183 154.106 317.834 152.364 319.06 150.974C319.293 150.675 319.39 150.306 319.333 149.942C319.275 149.579 319.067 149.25 318.751 149.024C318.435 148.798 318.036 148.692 317.637 148.729C317.238 148.765 316.87 148.941 316.609 149.22H316.591Z" fill="#F9B572"/>
<path d="M30.6597 141.496C34.3447 145.021 36.5465 150.418 36.5005 155.907C36.4544 161.396 34.1513 166.869 30.328 170.36C30.1829 170.492 30.0107 170.596 29.8215 170.667C29.6323 170.738 29.4297 170.774 29.2252 170.773C29.0208 170.773 28.8185 170.735 28.6299 170.663C28.4413 170.59 28.2702 170.485 28.1262 170.352C27.9823 170.219 27.8683 170.061 27.7908 169.888C27.7134 169.715 27.674 169.529 27.6748 169.342C27.6757 169.155 27.7168 168.97 27.7958 168.797C27.8749 168.625 27.9903 168.468 28.1354 168.336C31.3875 165.377 33.3498 160.747 33.3866 155.89C33.4235 151.033 31.5441 146.471 28.4118 143.469C28.1221 143.201 27.9596 142.839 27.9596 142.462C27.9596 142.084 28.1221 141.722 28.4118 141.454C28.5596 141.317 28.7363 141.209 28.9313 141.136C29.1262 141.064 29.3353 141.028 29.5457 141.032C29.7561 141.036 29.9634 141.079 30.1549 141.159C30.3465 141.239 30.5182 141.353 30.6597 141.496Z" fill="#F9B572"/>
<path d="M26.1269 145.333C28.7181 148.336 30.109 152.061 30.0688 155.888C30.0286 159.715 28.5596 163.414 25.9058 166.372C25.6367 166.657 25.2548 166.834 24.8438 166.862C24.4328 166.891 24.0262 166.769 23.7132 166.523C23.5422 166.387 23.4051 166.218 23.3113 166.029C23.2176 165.84 23.1692 165.635 23.1697 165.427C23.1724 165.092 23.3064 164.769 23.5474 164.516C25.722 162.067 26.9236 159.015 26.9554 155.859C26.9872 152.703 25.8473 149.631 23.7224 147.146C23.4598 146.854 23.3345 146.478 23.3743 146.102C23.414 145.726 23.6155 145.379 23.9343 145.139C24.2532 144.898 24.6633 144.784 25.0745 144.82C25.4857 144.857 25.8643 145.041 26.1269 145.333Z" fill="#F9B572"/>
<path d="M21.6404 149.22C23.3135 151.123 24.2009 153.505 24.147 155.948C24.0931 158.39 23.1013 160.737 21.3456 162.577C21.215 162.721 21.0545 162.841 20.8732 162.928C20.692 163.015 20.4936 163.068 20.2897 163.085C20.0858 163.101 19.8803 163.08 19.6852 163.024C19.4901 162.967 19.3092 162.875 19.153 162.754C18.9781 162.618 18.838 162.449 18.7425 162.258C18.647 162.067 18.5984 161.859 18.6003 161.649C18.6034 161.318 18.7339 160.999 18.9688 160.747C20.2657 159.408 21.0001 157.691 21.0406 155.902C21.0811 154.113 20.4251 152.369 19.1899 150.983C19.0631 150.836 18.9694 150.667 18.9141 150.487C18.8589 150.307 18.8432 150.118 18.8681 149.932C18.8929 149.746 18.9578 149.567 19.0589 149.404C19.1599 149.241 19.2953 149.099 19.457 148.984C19.7819 148.753 20.1931 148.648 20.6016 148.692C21.0102 148.737 21.3833 148.926 21.6404 149.22Z" fill="#F9B572"/>
<path d="M184.869 11.0551C181.009 14.4281 175.122 16.435 169.116 16.4013C163.109 16.3675 157.158 14.251 153.335 10.7937C153.043 10.5265 152.879 10.164 152.879 9.78605C152.879 9.4081 153.043 9.04563 153.335 8.77837C153.632 8.51191 154.033 8.36348 154.449 8.36519C154.652 8.36507 154.853 8.40234 155.04 8.47478C155.226 8.54722 155.395 8.65334 155.536 8.78681C158.77 11.7634 163.828 13.5595 169.134 13.5933C174.127 13.703 178.98 12.0758 182.713 9.03978C183.012 8.77812 183.411 8.63556 183.824 8.64347C184.237 8.65137 184.629 8.8091 184.915 9.08194C185.201 9.35478 185.357 9.72039 185.348 10.0983C185.34 10.4763 185.167 10.8356 184.869 11.0973V11.0551Z" fill="#F9B572"/>
<path d="M180.65 6.89796C177.371 9.2738 173.302 10.5503 169.12 10.515C164.938 10.4797 160.895 9.13479 157.664 6.70402C157.497 6.58577 157.358 6.43762 157.256 6.26858C157.153 6.09955 157.089 5.91316 157.068 5.72078C157.046 5.5284 157.068 5.33405 157.131 5.14955C157.194 4.96506 157.298 4.79428 157.436 4.64762C157.573 4.50097 157.742 4.38149 157.932 4.29648C158.122 4.21146 158.328 4.16268 158.539 4.15311C158.75 4.14354 158.961 4.17338 159.159 4.24081C159.357 4.30824 159.538 4.41184 159.691 4.54532C162.367 6.53577 165.702 7.63562 169.15 7.66472C172.597 7.69383 175.954 6.65048 178.669 4.70554C178.99 4.49157 179.387 4.39758 179.781 4.44275C180.174 4.48792 180.534 4.66884 180.787 4.9486C181.039 5.22835 181.166 5.58585 181.141 5.94811C181.115 6.31038 180.94 6.65011 180.65 6.89796Z" fill="#F9B572"/>
<path d="M176.394 2.79983C174.315 4.32896 171.715 5.13989 169.048 5.09056C166.382 5.04122 163.82 4.13477 161.81 2.52999C161.559 2.34268 161.378 2.0883 161.292 1.8023C161.206 1.51631 161.22 1.21294 161.332 0.934489C161.443 0.656038 161.647 0.416381 161.914 0.248918C162.182 0.0814556 162.5 -0.00546844 162.824 0.000266582C163.189 -0.00109364 163.542 0.118734 163.819 0.337564C165.282 1.52124 167.157 2.19055 169.109 2.22607C171.062 2.2616 172.964 1.66102 174.478 0.531512C174.804 0.298925 175.217 0.194464 175.628 0.241114C176.038 0.287765 176.411 0.481706 176.666 0.780267C176.92 1.07883 177.034 1.45756 176.983 1.83313C176.932 2.20871 176.72 2.55038 176.394 2.78296V2.79983Z" fill="#F9B572"/>
<path d="M166.72 300C248.744 300 315.237 280.972 315.237 257.501C315.237 234.029 248.744 215.001 166.72 215.001C84.6971 215.001 18.2041 234.029 18.2041 257.501C18.2041 280.972 84.6971 300 166.72 300Z" fill="#F9B572"/>
<path opacity="0.5" d="M166.72 300C248.744 300 315.237 280.972 315.237 257.501C315.237 234.029 248.744 215.001 166.72 215.001C84.6971 215.001 18.2041 234.029 18.2041 257.501C18.2041 280.972 84.6971 300 166.72 300Z" fill="white"/>
<path d="M168.213 290.606C242.945 290.606 303.527 273.765 303.527 252.989C303.527 232.214 242.945 215.372 168.213 215.372C93.4806 215.372 32.8982 232.214 32.8982 252.989C32.8982 273.765 93.4806 290.606 168.213 290.606Z" fill="#263238" stroke="#263238" stroke-miterlimit="10"/>
<path d="M168.213 275.698C234.845 275.698 288.861 261.416 288.861 243.798C288.861 226.18 234.845 211.898 168.213 211.898C101.581 211.898 47.5646 226.18 47.5646 243.798C47.5646 261.416 101.581 275.698 168.213 275.698Z" fill="white" stroke="#263238" stroke-miterlimit="10"/>
<path d="M168.213 270.79C228.984 270.79 278.248 258.233 278.248 242.744C278.248 227.254 228.984 214.698 168.213 214.698C107.442 214.698 58.1775 227.254 58.1775 242.744C58.1775 258.233 107.442 270.79 168.213 270.79Z" fill="white" stroke="#263238" stroke-miterlimit="10"/>
<path d="M168.213 270.782C228.18 270.782 276.792 260.267 276.792 247.297C276.792 234.327 228.18 223.813 168.213 223.813C108.246 223.813 59.6331 234.327 59.6331 247.297C59.6331 260.267 108.246 270.782 168.213 270.782Z" fill="white" stroke="#263238" stroke-miterlimit="10"/>
<path d="M64.608 266.692C64.7094 267.387 64.5761 268.094 64.2261 268.718C63.8761 269.342 63.326 269.854 62.6496 270.184C61.9732 270.513 61.2028 270.646 60.4417 270.564C59.6806 270.482 58.9651 270.188 58.3912 269.724C57.8173 269.259 57.4124 268.644 57.2307 267.963C57.049 267.281 57.0992 266.565 57.3747 265.911C57.6502 265.256 58.1377 264.694 58.7718 264.3C59.406 263.906 60.1566 263.699 60.9229 263.707C61.8421 263.663 62.7434 263.951 63.4327 264.509C64.1219 265.068 64.544 265.852 64.608 266.692Z" fill="white" stroke="#263238" stroke-miterlimit="10"/>
<path d="M114.494 282.705C116.55 282.705 118.216 281.369 118.216 279.72C118.216 278.071 116.55 276.735 114.494 276.735C112.439 276.735 110.772 278.071 110.772 279.72C110.772 281.369 112.439 282.705 114.494 282.705Z" fill="white" stroke="#263238" stroke-miterlimit="10"/>
<path d="M182.032 281.853C182.133 282.549 182 283.256 181.65 283.88C181.3 284.504 180.75 285.015 180.073 285.345C179.397 285.675 178.626 285.808 177.865 285.725C177.104 285.643 176.389 285.35 175.815 284.885C175.241 284.42 174.836 283.806 174.654 283.124C174.473 282.443 174.523 281.727 174.798 281.072C175.074 280.417 175.561 279.856 176.195 279.462C176.83 279.068 177.58 278.861 178.347 278.868C179.266 278.824 180.167 279.113 180.856 279.671C181.546 280.229 181.968 281.013 182.032 281.853Z" fill="white" stroke="#263238" stroke-miterlimit="10"/>
<path d="M241.591 279.72C243.647 279.72 245.313 278.384 245.313 276.735C245.313 275.086 243.647 273.75 241.591 273.75C239.535 273.75 237.869 275.086 237.869 276.735C237.869 278.384 239.535 279.72 241.591 279.72Z" fill="white" stroke="#263238" stroke-miterlimit="10"/>
<path d="M282.559 266.085C284.615 266.085 286.281 264.748 286.281 263.1C286.281 261.451 284.615 260.115 282.559 260.115C280.504 260.115 278.838 261.451 278.838 263.1C278.838 264.748 280.504 266.085 282.559 266.085Z" fill="white" stroke="#263238" stroke-miterlimit="10"/>
<path d="M299.234 246.673C298.617 247.753 296.471 247.837 294.425 246.867C292.38 245.898 291.229 244.228 291.846 243.149C292.463 242.069 294.61 241.985 296.655 242.955C298.7 243.924 299.852 245.594 299.234 246.673Z" fill="white" stroke="#263238" stroke-miterlimit="10"/>
<path d="M37.1912 246.673C37.8084 247.753 39.955 247.837 42.0002 246.867C44.0454 245.898 45.1969 244.228 44.5797 243.149C43.9624 242.069 41.8159 241.985 39.7707 242.955C37.7255 243.924 36.5739 245.594 37.1912 246.673Z" fill="white" stroke="#263238" stroke-miterlimit="10"/>
<path d="M58.0024 236.63V207.859" stroke="#263238" stroke-miterlimit="10"/>
<path d="M78.307 257.61V243.225" stroke="#263238" stroke-miterlimit="10"/>
<path d="M78.307 239.624V210.853" stroke="#263238" stroke-miterlimit="10"/>
<path d="M259.712 258.808V230.036" stroke="#263238" stroke-miterlimit="10"/>
<path d="M240.624 263.8V200.531" stroke="#263238" stroke-miterlimit="10"/>
<path d="M161.478 270.2V257.012" stroke="#263238" stroke-miterlimit="10"/>
<path d="M101.053 265.419V233.165" stroke="#263238" stroke-miterlimit="10"/>
<path d="M208.463 269.348V262.83" stroke="#263238" stroke-miterlimit="10"/>
<path d="M208.463 260.798V247.491" stroke="#263238" stroke-miterlimit="10"/>
<path d="M161.478 251.016V243.823" stroke="#263238" stroke-miterlimit="10"/>
<path d="M259.712 223.442V210.254" stroke="#263238" stroke-miterlimit="10"/>
<path d="M278.055 246.218V182.081" stroke="#263238" stroke-miterlimit="10"/>
<path d="M58.0024 203.66V188.094" stroke="#263238" stroke-miterlimit="10"/>
<path d="M228.693 156.371H224.318V166.962H228.693V156.371Z" fill="#263238" stroke="#263238" stroke-miterlimit="10"/>
<path d="M225.764 77.7302H110.579V100.565H225.764V77.7302Z" fill="#263238" stroke="#263238" stroke-miterlimit="10"/>
<path d="M228.693 218.855H224.318V229.446H228.693V218.855Z" fill="#263238" stroke="#263238" stroke-miterlimit="10"/>
<path d="M111.629 218.855H107.253V229.446H111.629V218.855Z" fill="#263238" stroke="#263238" stroke-miterlimit="10"/>
<path d="M110.993 95.0925H106.617V105.684H110.993V95.0925Z" fill="#263238" stroke="#263238" stroke-miterlimit="10"/>
<path d="M110.993 188.009H106.617V198.6H110.993V188.009Z" fill="#263238" stroke="#263238" stroke-miterlimit="10"/>
<path d="M110.993 156.303H106.617V166.894H110.993V156.303Z" fill="#263238" stroke="#263238" stroke-miterlimit="10"/>
<path d="M229.817 95.0925H225.441V105.684H229.817V95.0925Z" fill="#263238" stroke="#263238" stroke-miterlimit="10"/>
<path d="M229.817 188.009H225.441V198.6H229.817V188.009Z" fill="#263238" stroke="#263238" stroke-miterlimit="10"/>
<path d="M110.993 125.643H106.617V136.234H110.993V125.643Z" fill="#263238" stroke="#263238" stroke-miterlimit="10"/>
<path d="M229.817 125.643H225.441V136.234H229.817V125.643Z" fill="#263238" stroke="#263238" stroke-miterlimit="10"/>
<path d="M225.764 89.232H110.579V112.067H225.764V89.232Z" fill="white" stroke="#263238" stroke-miterlimit="10"/>
<path d="M141.524 95.0588H134.946V106.24H141.524V95.0588Z" fill="#F9B572" stroke="#263238" stroke-miterlimit="10"/>
<path d="M131.436 95.0588H124.858V106.24H131.436V95.0588Z" fill="#F9B572" stroke="#263238" stroke-miterlimit="10"/>
<path d="M121.358 95.0588H116.116V106.24H121.358V95.0588Z" fill="#F9B572" stroke="#263238" stroke-miterlimit="10"/>
<path d="M151.612 95.0588H145.034V106.24H151.612V95.0588Z" fill="#F9B572" stroke="#263238" stroke-miterlimit="10"/>
<path d="M195.491 95.0588H155.113V106.24H195.491V95.0588Z" fill="#F9B572" stroke="#263238" stroke-miterlimit="10"/>
<path d="M206.252 102.977C207.951 102.977 209.329 101.716 209.329 100.16C209.329 98.6049 207.951 97.3439 206.252 97.3439C204.552 97.3439 203.175 98.6049 203.175 100.16C203.175 101.716 204.552 102.977 206.252 102.977Z" fill="white" stroke="#263238" stroke-miterlimit="10"/>
<path d="M221.388 100.177C221.388 99.6182 221.207 99.0717 220.867 98.607C220.528 98.1423 220.045 97.7802 219.481 97.5666C218.916 97.3531 218.295 97.2976 217.696 97.4073C217.097 97.517 216.547 97.7869 216.116 98.1828C215.685 98.5787 215.392 99.0828 215.274 99.6314C215.156 100.18 215.218 100.748 215.453 101.264C215.688 101.78 216.085 102.221 216.594 102.53C217.103 102.84 217.7 103.004 218.311 103.002C219.128 103 219.911 102.701 220.487 102.172C221.064 101.642 221.388 100.925 221.388 100.177Z" fill="#F9B572" stroke="#263238" stroke-miterlimit="10"/>
<path d="M188.287 102.977C189.986 102.977 191.364 101.716 191.364 100.16C191.364 98.6049 189.986 97.3439 188.287 97.3439C186.588 97.3439 185.21 98.6049 185.21 100.16C185.21 101.716 186.588 102.977 188.287 102.977Z" fill="white" stroke="#263238" stroke-miterlimit="10"/>
<path d="M221.388 112.067H114.946V119.884H221.388V112.067Z" fill="#263238" stroke="#263238" stroke-miterlimit="10"/>
<path d="M225.764 119.892H110.579V142.727H225.764V119.892Z" fill="white" stroke="#263238" stroke-miterlimit="10"/>
<path d="M131.436 125.719H124.858V136.9H131.436V125.719Z" fill="#F9B572" stroke="#263238" stroke-miterlimit="10"/>
<path d="M151.612 125.719H145.034V136.9H151.612V125.719Z" fill="#F9B572" stroke="#263238" stroke-miterlimit="10"/>
<path d="M141.524 125.719H134.946V136.9H141.524V125.719Z" fill="#F9B572" stroke="#263238" stroke-miterlimit="10"/>
<path d="M121.358 125.719H116.116V136.9H121.358V125.719Z" fill="#F9B572" stroke="#263238" stroke-miterlimit="10"/>
<path d="M195.491 125.719H155.113V136.9H195.491V125.719Z" fill="#F9B572" stroke="#263238" stroke-miterlimit="10"/>
<path d="M206.252 133.637C207.951 133.637 209.329 132.376 209.329 130.821C209.329 129.265 207.951 128.004 206.252 128.004C204.552 128.004 203.175 129.265 203.175 130.821C203.175 132.376 204.552 133.637 206.252 133.637Z" fill="#F9B572" stroke="#263238" stroke-miterlimit="10"/>
<path d="M221.388 130.821C221.39 130.261 221.21 129.714 220.872 129.248C220.533 128.782 220.051 128.419 219.487 128.204C218.923 127.989 218.301 127.932 217.702 128.041C217.102 128.15 216.552 128.419 216.12 128.815C215.687 129.21 215.393 129.714 215.274 130.263C215.156 130.812 215.218 131.381 215.452 131.897C215.687 132.414 216.084 132.855 216.593 133.164C217.102 133.474 217.7 133.639 218.311 133.637C219.127 133.637 219.91 133.34 220.487 132.812C221.064 132.284 221.388 131.568 221.388 130.821Z" fill="white" stroke="#263238" stroke-miterlimit="10"/>
<path d="M188.287 133.637C189.986 133.637 191.364 132.376 191.364 130.821C191.364 129.265 189.986 128.004 188.287 128.004C186.588 128.004 185.21 129.265 185.21 130.821C185.21 132.376 186.588 133.637 188.287 133.637Z" fill="white" stroke="#263238" stroke-miterlimit="10"/>
<path d="M221.388 142.727H114.946V150.544H221.388V142.727Z" fill="#263238" stroke="#263238" stroke-miterlimit="10"/>
<path d="M225.764 150.544H110.579V173.379H225.764V150.544Z" fill="white" stroke="#263238" stroke-miterlimit="10"/>
<path d="M141.524 156.371H134.946V167.552H141.524V156.371Z" fill="#F9B572" stroke="#263238" stroke-miterlimit="10"/>
<path d="M151.612 156.371H145.034V167.552H151.612V156.371Z" fill="#F9B572" stroke="#263238" stroke-miterlimit="10"/>
<path d="M131.436 156.371H124.858V167.552H131.436V156.371Z" fill="#F9B572" stroke="#263238" stroke-miterlimit="10"/>
<path d="M195.491 156.371H155.113V167.552H195.491V156.371Z" fill="#F9B572" stroke="#263238" stroke-miterlimit="10"/>
<path d="M121.358 156.371H116.116V167.552H121.358V156.371Z" fill="#F9B572" stroke="#263238" stroke-miterlimit="10"/>
<path d="M206.252 164.289C207.951 164.289 209.329 163.028 209.329 161.472C209.329 159.917 207.951 158.656 206.252 158.656C204.552 158.656 203.175 159.917 203.175 161.472C203.175 163.028 204.552 164.289 206.252 164.289Z" fill="white" stroke="#263238" stroke-miterlimit="10"/>
<path d="M221.388 161.472C221.388 160.913 221.207 160.367 220.867 159.902C220.528 159.437 220.045 159.075 219.481 158.862C218.916 158.648 218.295 158.593 217.696 158.702C217.097 158.812 216.547 159.082 216.116 159.478C215.685 159.874 215.392 160.378 215.274 160.927C215.156 161.475 215.218 162.043 215.453 162.559C215.688 163.075 216.085 163.516 216.594 163.825C217.103 164.135 217.7 164.299 218.311 164.297C219.128 164.295 219.911 163.996 220.487 163.467C221.064 162.937 221.388 162.22 221.388 161.472Z" fill="#F9B572" stroke="#263238" stroke-miterlimit="10"/>
<path d="M188.287 164.289C189.986 164.289 191.364 163.028 191.364 161.472C191.364 159.917 189.986 158.656 188.287 158.656C186.588 158.656 185.21 159.917 185.21 161.472C185.21 163.028 186.588 164.289 188.287 164.289Z" fill="white" stroke="#263238" stroke-miterlimit="10"/>
<path d="M221.388 173.379H114.946V181.196H221.388V173.379Z" fill="#263238" stroke="#263238" stroke-miterlimit="10"/>
<path d="M225.764 181.204H110.579V204.039H225.764V181.204Z" fill="white" stroke="#263238" stroke-miterlimit="10"/>
<path d="M151.612 187.031H145.034V198.212H151.612V187.031Z" fill="#F9B572" stroke="#263238" stroke-miterlimit="10"/>
<path d="M131.436 187.031H124.858V198.212H131.436V187.031Z" fill="#F9B572" stroke="#263238" stroke-miterlimit="10"/>
<path d="M141.524 187.031H134.946V198.212H141.524V187.031Z" fill="#F9B572" stroke="#263238" stroke-miterlimit="10"/>
<path d="M121.358 187.031H116.116V198.212H121.358V187.031Z" fill="#F9B572" stroke="#263238" stroke-miterlimit="10"/>
<path d="M195.491 187.031H155.113V198.212H195.491V187.031Z" fill="#F9B572" stroke="#263238" stroke-miterlimit="10"/>
<path d="M206.252 194.949C207.951 194.949 209.329 193.688 209.329 192.133C209.329 190.577 207.951 189.316 206.252 189.316C204.552 189.316 203.175 190.577 203.175 192.133C203.175 193.688 204.552 194.949 206.252 194.949Z" fill="#F9B572" stroke="#263238" stroke-miterlimit="10"/>
<path d="M221.388 192.133C221.39 191.573 221.21 191.026 220.872 190.56C220.533 190.094 220.051 189.731 219.487 189.516C218.923 189.301 218.301 189.245 217.702 189.353C217.102 189.462 216.552 189.731 216.12 190.127C215.687 190.522 215.393 191.026 215.274 191.575C215.156 192.124 215.218 192.693 215.452 193.209C215.687 193.726 216.084 194.167 216.593 194.477C217.102 194.786 217.7 194.951 218.311 194.949C219.127 194.949 219.91 194.652 220.487 194.124C221.064 193.596 221.388 192.88 221.388 192.133Z" fill="white" stroke="#263238" stroke-miterlimit="10"/>
<path d="M188.287 194.949C189.986 194.949 191.364 193.688 191.364 192.133C191.364 190.577 189.986 189.316 188.287 189.316C186.588 189.316 185.21 190.577 185.21 192.133C185.21 193.688 186.588 194.949 188.287 194.949Z" fill="white" stroke="#263238" stroke-miterlimit="10"/>
<path d="M221.388 204.039H114.946V211.856H221.388V204.039Z" fill="#263238" stroke="#263238" stroke-miterlimit="10"/>
<path d="M225.764 211.856H110.579V234.691H225.764V211.856Z" fill="white" stroke="#263238" stroke-miterlimit="10"/>
<path d="M131.436 217.683H124.858V228.864H131.436V217.683Z" fill="#F9B572" stroke="#263238" stroke-miterlimit="10"/>
<path d="M141.524 217.683H134.946V228.864H141.524V217.683Z" fill="#F9B572" stroke="#263238" stroke-miterlimit="10"/>
<path d="M151.612 217.683H145.034V228.864H151.612V217.683Z" fill="#F9B572" stroke="#263238" stroke-miterlimit="10"/>
<path d="M121.358 217.683H116.116V228.864H121.358V217.683Z" fill="#F9B572" stroke="#263238" stroke-miterlimit="10"/>
<path d="M195.491 217.683H155.113V228.864H195.491V217.683Z" fill="#F9B572" stroke="#263238" stroke-miterlimit="10"/>
<path d="M206.252 225.601C207.951 225.601 209.329 224.34 209.329 222.784C209.329 221.229 207.951 219.968 206.252 219.968C204.552 219.968 203.175 221.229 203.175 222.784C203.175 224.34 204.552 225.601 206.252 225.601Z" fill="white" stroke="#263238" stroke-miterlimit="10"/>
<path d="M221.388 222.784C221.388 222.225 221.207 221.679 220.867 221.214C220.528 220.749 220.045 220.387 219.481 220.174C218.916 219.96 218.295 219.905 217.696 220.014C217.097 220.124 216.547 220.394 216.116 220.79C215.685 221.186 215.392 221.69 215.274 222.239C215.156 222.787 215.218 223.355 215.453 223.871C215.688 224.387 216.085 224.828 216.594 225.137C217.103 225.447 217.7 225.611 218.311 225.609C219.128 225.607 219.911 225.308 220.487 224.779C221.064 224.249 221.388 223.532 221.388 222.784Z" fill="#F9B572" stroke="#263238" stroke-miterlimit="10"/>
<path d="M188.287 225.601C189.986 225.601 191.364 224.34 191.364 222.784C191.364 221.229 189.986 219.968 188.287 219.968C186.588 219.968 185.21 221.229 185.21 222.784C185.21 224.34 186.588 225.601 188.287 225.601Z" fill="white" stroke="#263238" stroke-miterlimit="10"/>
</svg>
