<svg width="300" height="301" viewBox="0 0 300 301" fill="none" xmlns="http://www.w3.org/2000/svg">
<path d="M202.421 5.8567C202.421 5.8567 152.955 -13.0379 104.404 17.0479C55.8521 47.1337 31.3366 106.845 10.2979 154.679C-10.7409 202.513 1.35063 251.178 38.4177 273.361C75.4848 295.544 100.684 262.842 152.68 261.25C204.676 259.657 218.679 267.642 261.856 236.087C305.032 204.531 312.797 130.004 278.766 74.8645C244.735 19.7256 202.421 5.8567 202.421 5.8567Z" fill="#92E3A9"/>
<path opacity="0.7" d="M202.421 5.8567C202.421 5.8567 152.955 -13.0379 104.404 17.0479C55.8521 47.1337 31.3366 106.845 10.2979 154.679C-10.7409 202.513 1.35063 251.178 38.4177 273.361C75.4848 295.544 100.684 262.842 152.68 261.25C204.676 259.657 218.679 267.642 261.856 236.087C305.032 204.531 312.797 130.004 278.766 74.8645C244.735 19.7256 202.421 5.8567 202.421 5.8567Z" fill="white"/>
<path d="M14.5288 139.114C17.0851 138.915 22.1147 135.915 22.1147 135.908C22.1147 135.901 19.2708 132.956 19.0663 132.791C16.7208 130.917 11.1672 128.774 8.50216 130.814C8.06662 131.165 7.70504 131.612 7.44105 132.124C7.17706 132.636 7.0166 133.202 6.97015 133.785C6.92371 134.368 6.99232 134.955 7.17152 135.508C7.35071 136.061 7.63645 136.567 8.01006 136.993C9.53749 138.853 12.3559 139.286 14.5288 139.114Z" fill="#92E3A9"/>
<path d="M24.0446 153.945C26.3645 153.059 30.2118 149.077 30.5122 148.761C32.6284 151.126 34.8871 153.34 37.2737 155.386C38.6605 156.581 40.0921 157.748 41.5364 158.888C40.8079 158.476 40.1432 158.105 40.0474 158.064C37.3249 156.924 31.4389 156.43 29.3682 159.156C29.0363 159.618 28.7987 160.151 28.6711 160.719C28.5435 161.287 28.5286 161.877 28.6275 162.452C28.7264 163.026 28.9368 163.572 29.245 164.053C29.5532 164.535 29.9523 164.941 30.4163 165.246C32.3336 166.619 35.1711 166.234 37.229 165.452C39.2869 164.669 42.6548 161.332 43.5304 160.44L45.2048 161.744C47.8954 163.804 50.5923 165.864 53.1742 167.958C54.0881 168.699 54.9637 169.461 55.8392 170.223C55.2001 169.853 54.6314 169.537 54.5611 169.537C51.8385 168.39 45.9525 167.903 43.8819 170.628C43.5509 171.092 43.3142 171.624 43.1872 172.192C43.0601 172.76 43.0455 173.35 43.1443 173.924C43.2431 174.498 43.4532 175.044 43.7608 175.525C44.0684 176.006 44.4667 176.413 44.93 176.718C46.8473 178.092 49.6848 177.707 51.7427 176.924C53.8005 176.142 56.8554 173.128 57.8907 172.07C58.7599 172.88 59.6418 173.691 60.4471 174.514C60.9903 175.091 61.5527 175.606 62.064 176.217L63.6169 177.982C64.5692 179.149 65.5342 180.337 66.4545 181.497C67.0936 182.293 67.6688 183.069 68.2631 183.852C67.3684 183.104 65.5789 181.682 65.4128 181.579C62.8884 180.007 57.1366 178.565 54.7081 180.893C54.3161 181.296 54.0073 181.783 53.8017 182.322C53.5961 182.861 53.4982 183.441 53.5145 184.024C53.5308 184.606 53.6608 185.179 53.8961 185.704C54.1315 186.229 54.4669 186.695 54.8806 187.072C56.5934 188.733 59.4373 188.816 61.5846 188.376C63.9493 187.896 68.1481 184.738 68.6721 184.339C69.6499 185.63 70.5894 186.9 71.4649 188.109C73.804 191.363 75.7532 194.288 77.2679 196.588L79.1851 195.496C77.5874 193.141 75.504 190.168 72.9732 186.818C71.989 185.5 70.9089 184.113 69.7777 182.698C70.8465 181.348 71.8409 179.931 72.7559 178.455C75.0886 179.341 79.8753 179.211 80.4953 179.19C80.6422 180.845 80.7765 182.458 80.8787 183.996C81.1599 187.978 81.2941 191.466 81.3644 194.26L83.4606 193.079C83.3264 190.457 83.1283 187.333 82.8215 183.818C82.6745 182.129 82.4828 180.337 82.2719 178.49C82.8791 178.304 87.8128 176.753 89.6406 175.057C91.3022 173.533 93.0214 171.095 92.8872 168.617C92.8732 168.032 92.7448 167.458 92.5104 166.93C92.2759 166.403 91.9407 165.935 91.5264 165.556C91.1122 165.177 90.6283 164.896 90.1063 164.731C89.5843 164.567 89.0358 164.522 88.4966 164.6C85.3012 165.163 82.7448 170.882 82.2783 173.986C82.2783 174.171 82.1761 176.19 82.1505 177.467C82.061 176.712 81.9779 175.984 81.8821 175.208C81.6903 173.677 81.4539 172.153 81.243 170.519C81.1024 169.729 80.9554 168.933 80.8084 168.136C80.6614 167.34 80.4441 166.509 80.2652 165.685C79.8114 163.79 79.2682 161.895 78.6802 159.993C79.9584 159.815 84.349 159.094 86.2151 157.851C88.0812 156.609 90.1135 154.487 90.3308 152.015C90.399 151.436 90.353 150.847 90.1957 150.288C90.0384 149.728 89.7734 149.211 89.4178 148.768C89.0622 148.326 88.6241 147.969 88.1318 147.721C87.6395 147.472 87.104 147.338 86.5602 147.326C83.2881 147.326 79.9584 152.599 79.0893 155.565C79.0317 155.75 78.6355 157.975 78.4502 159.204C78.0859 158.064 77.728 156.924 77.3318 155.771C76.175 152.482 74.9096 149.193 73.657 145.905C73.2736 144.902 72.9093 143.893 72.5322 142.884C72.9732 142.822 78.2521 142.094 80.3355 140.701C82.1952 139.465 84.2403 137.336 84.4512 134.865C84.5195 134.285 84.4734 133.697 84.3161 133.138C84.1588 132.579 83.8936 132.062 83.538 131.62C83.1823 131.178 82.744 130.822 82.2517 130.574C81.7594 130.327 81.2241 130.193 80.6806 130.182C77.4085 130.182 74.0852 135.448 73.2097 138.421C73.1457 138.648 72.5706 141.854 72.4619 142.671C71.6375 140.453 70.8386 138.236 70.1292 136.011C69.1487 133.06 68.344 130.044 67.7199 126.983C67.9244 126.983 73.4333 126.214 75.5743 124.793C77.4276 123.557 79.4727 121.428 79.6836 118.957C79.7528 118.377 79.7077 117.789 79.5512 117.229C79.3946 116.67 79.1302 116.152 78.7751 115.71C78.4201 115.268 77.9823 114.911 77.4902 114.662C76.9982 114.413 76.463 114.279 75.9194 114.267C72.6409 114.267 69.3176 119.54 68.4421 122.506C68.3781 122.747 67.7646 126.193 67.6943 126.825C67.656 126.646 67.6048 126.461 67.5729 126.282C67.0499 123.151 66.789 119.975 66.7932 116.794C66.7932 115.036 66.8443 113.361 66.9466 111.72C67.9883 111.72 72.6984 111.528 74.7882 110.477C76.878 109.427 79.0126 107.594 79.4727 105.156C79.6001 104.589 79.6149 103.999 79.516 103.424C79.4171 102.85 79.2068 102.305 78.8988 101.823C78.5907 101.342 78.1919 100.936 77.7281 100.631C77.2643 100.327 76.746 100.13 76.207 100.055C72.9476 99.6982 69.1067 104.518 67.9372 107.395C67.8733 107.546 67.3876 109.214 67.0488 110.436C67.1064 109.702 67.1511 108.939 67.2214 108.232C67.4706 105.589 67.8605 103.179 68.2056 101.051C68.4165 99.8424 68.6338 98.7576 68.8447 97.7414C69.8544 97.1441 73.8871 94.693 75.2356 92.7775C76.584 90.8619 77.7472 88.1293 77.1145 85.7401C76.9846 85.1697 76.7439 84.6353 76.4081 84.1721C76.0723 83.7088 75.649 83.3271 75.1661 83.0522C74.6832 82.7772 74.1516 82.6152 73.6062 82.5767C73.0608 82.5382 72.514 82.6242 72.0018 82.829C68.9533 84.1197 67.6112 90.2989 67.803 93.4297C67.803 93.7044 68.5315 97.9062 68.589 97.8787L68.6466 97.8376C68.4293 98.8125 68.2056 99.8973 68.0075 101.01C67.6112 103.131 67.1767 105.534 66.8699 108.184C66.5055 111.037 66.2921 113.909 66.2308 116.787C66.1657 120.004 66.3668 123.221 66.8316 126.399V126.509C66.4034 125.589 65.1124 123.076 64.9974 122.877C63.3102 120.309 58.6512 116.409 55.5261 117.46C55.0122 117.65 54.5411 117.953 54.1435 118.351C53.7458 118.749 53.4304 119.233 53.2177 119.77C53.005 120.307 52.8998 120.886 52.9088 121.47C52.9178 122.054 53.0409 122.629 53.2701 123.159C54.1776 125.445 56.734 126.797 58.8493 127.367C61.2395 128.006 66.5184 126.962 66.9082 126.88C67.4555 130.106 68.2028 133.29 69.1451 136.409C69.6883 138.236 70.2826 140.048 70.9025 141.861C70.5063 141.078 70.142 140.385 70.0845 140.289C68.3973 137.721 63.7448 133.828 60.6196 134.872C60.1051 135.06 59.6334 135.364 59.2351 135.761C58.8369 136.159 58.5211 136.643 58.3083 137.18C58.0955 137.718 57.9905 138.297 58 138.881C58.0095 139.466 58.1334 140.041 58.3636 140.57C59.2647 142.856 61.8211 144.209 63.9365 144.779C66.0519 145.349 70.583 144.559 71.7653 144.333C72.0082 145.019 72.251 145.706 72.4939 146.392C73.6762 149.715 74.8713 153.018 75.9513 156.306C76.3348 157.46 76.6671 158.613 77.0058 159.739C76.6543 159.053 76.3667 158.462 76.2964 158.366C74.6156 155.798 69.9567 151.899 66.8316 152.949C66.3164 153.137 65.844 153.44 65.4452 153.837C65.0464 154.235 64.7303 154.719 64.5173 155.256C64.3044 155.794 64.1995 156.374 64.2096 156.959C64.2196 157.543 64.3443 158.119 64.5756 158.648C65.4831 160.927 68.033 162.287 70.1484 162.85C72.2638 163.412 76.354 162.712 77.7663 162.451C78.0795 163.639 78.4054 164.834 78.6547 166.008C78.8081 166.811 79.0126 167.573 79.1276 168.39C79.2426 169.207 79.3896 169.99 79.5174 170.779C79.7156 172.311 79.9201 173.89 80.0798 175.386C80.1949 176.43 80.2843 177.446 80.3802 178.428C80.0159 177.274 79.249 174.995 79.1659 174.844C77.9368 172.417 76.1476 170.369 73.9702 168.898C73.848 168.62 73.7003 168.355 73.5292 168.109C73.217 167.626 72.8133 167.219 72.3446 166.916C71.8759 166.613 71.3527 166.42 70.8095 166.349C70.2663 166.278 69.7153 166.332 69.1927 166.506C68.6702 166.68 68.1878 166.972 67.7774 167.36C65.3744 169.743 66.1861 176.025 67.4131 178.874C67.4834 179.046 68.4612 180.776 69.0939 181.854C68.6274 181.277 68.1864 180.714 67.7071 180.131C66.7613 178.97 65.7898 177.837 64.7417 176.615L63.1504 174.885C62.6327 174.295 62.0128 173.745 61.444 173.162C60.0956 171.851 58.664 170.594 57.2005 169.358C58.1463 168.466 61.4632 165.239 62.3835 163.104C63.3038 160.968 63.9109 157.989 62.8181 155.798C62.5772 155.274 62.2364 154.811 61.8178 154.437C61.3993 154.064 60.9124 153.79 60.3886 153.632C59.8649 153.474 59.3161 153.436 58.7779 153.52C58.2396 153.605 57.724 153.81 57.2644 154.123C54.5547 156.087 54.4716 162.431 55.2832 165.445C55.328 165.637 56.1396 167.731 56.6061 168.878C55.7178 168.143 54.8359 167.408 53.922 166.694C51.2698 164.635 48.5217 162.644 45.7928 160.646L43.3003 158.792C43.639 158.476 47.6653 154.741 48.6942 152.345C49.6017 150.216 50.2153 147.23 49.1224 145.04C48.8733 144.535 48.53 144.09 48.1139 143.734C47.6978 143.377 47.2179 143.117 46.704 142.969C46.1901 142.821 45.6533 142.788 45.127 142.873C44.6008 142.957 44.0965 143.157 43.6454 143.461C40.9293 145.424 40.8462 151.768 41.6579 154.782C41.7218 155.009 42.8849 158.023 43.2172 158.771C41.3958 157.398 39.5872 156.025 37.8553 154.604C35.506 152.681 33.2771 150.594 31.1832 148.356C31.3366 148.212 35.5546 144.333 36.6091 141.881C37.523 139.746 38.1301 136.76 37.0437 134.569C36.8028 134.045 36.462 133.582 36.0434 133.208C35.6249 132.835 35.1379 132.561 34.6142 132.403C34.0905 132.245 33.5417 132.207 33.0034 132.291C32.4652 132.376 31.9496 132.581 31.49 132.894C28.7739 134.865 28.6908 141.202 29.5024 144.223C29.5663 144.456 30.8253 147.697 31.0937 148.267C30.9723 148.136 30.8317 148.019 30.7167 147.882C28.671 145.581 26.8209 143.088 25.1886 140.433C24.2683 138.977 23.4694 137.535 22.7153 136.107C23.5717 135.476 27.4446 132.523 28.6141 130.422C29.7836 128.322 30.6528 125.52 29.7964 123.213C29.6105 122.664 29.3192 122.163 28.9414 121.742C28.5635 121.322 28.1075 120.992 27.6031 120.773C27.0986 120.554 26.557 120.452 26.0133 120.472C25.4696 120.493 24.936 120.636 24.4472 120.893C21.5522 122.527 20.8172 128.823 21.3157 131.878C21.3157 132.05 21.795 133.725 22.1401 134.947C21.8078 134.295 21.4563 133.636 21.1559 133.004C20.0056 130.649 19.0853 128.418 18.2864 126.433C17.8455 125.301 17.462 124.264 17.1169 123.296C17.6473 122.197 19.7563 117.762 19.8969 115.366C20.0375 112.97 19.5966 110.004 17.8455 108.383C17.4451 107.985 16.971 107.683 16.4542 107.495C15.9374 107.308 15.3895 107.239 14.8465 107.295C14.3035 107.351 13.7776 107.529 13.3032 107.819C12.8288 108.108 12.4166 108.502 12.0937 108.974C10.2211 111.857 12.2726 117.803 14.0109 120.302C14.1643 120.522 16.9188 123.605 16.9443 123.543V123.481C17.2639 124.422 17.6154 125.424 18.018 126.516C18.7721 128.528 19.6477 130.786 20.7533 133.176C21.9495 135.77 23.2853 138.287 24.754 140.714C26.3552 143.44 28.1773 146.009 30.199 148.39L30.2757 148.466C29.4449 147.958 27.0803 146.612 26.8758 146.53C24.1532 145.39 18.2673 144.896 16.1966 147.621C15.8564 148.084 15.6117 148.62 15.4788 149.192C15.3458 149.764 15.3277 150.361 15.4256 150.941C15.5235 151.522 15.7352 152.073 16.0466 152.559C16.3581 153.045 16.7621 153.454 17.2319 153.759C19.162 155.132 21.9867 154.727 24.0446 153.945Z" fill="#92E3A9"/>
<path d="M66.5442 111.191C66.6081 111.191 65.6942 107.072 65.6047 106.784C64.6142 103.831 61.08 98.7506 57.8079 98.8673C57.2649 98.9042 56.7352 99.0634 56.2533 99.3346C55.7713 99.6057 55.3478 99.9827 55.0103 100.441C54.6728 100.9 54.4288 101.429 54.2942 101.995C54.1596 102.562 54.1374 103.152 54.229 103.728C54.5421 106.186 56.6703 108.219 58.5748 109.365C60.8116 110.745 66.5442 111.191 66.5442 111.191Z" fill="#92E3A9"/>
<path d="M262.929 244.03C261.012 243.879 257.293 241.655 257.293 241.648C257.293 241.641 259.408 239.451 259.561 239.327C261.3 237.954 265.435 236.341 267.416 237.858C267.738 238.12 268.005 238.452 268.201 238.832C268.396 239.212 268.514 239.632 268.549 240.064C268.583 240.497 268.532 240.932 268.4 241.342C268.268 241.752 268.056 242.128 267.78 242.444C266.643 243.838 264.553 244.154 262.929 244.03Z" fill="#92E3A9"/>
<path d="M255.861 255.057C254.136 254.37 251.279 251.438 251.049 251.205C249.477 252.963 247.799 254.607 246.026 256.128C244.997 257.02 243.929 257.879 242.83 258.73C243.373 258.421 243.866 258.146 243.936 258.119C245.962 257.267 250.327 256.904 251.873 258.929C252.121 259.273 252.298 259.669 252.393 260.091C252.488 260.513 252.5 260.953 252.427 261.38C252.354 261.807 252.198 262.213 251.97 262.572C251.741 262.93 251.445 263.233 251.1 263.46C249.662 264.477 247.566 264.188 246.032 263.611C244.498 263.035 241.999 260.549 241.348 259.883L240.127 260.865C238.127 262.403 236.126 263.927 234.203 265.486C233.525 266.035 232.873 266.605 232.228 267.168C232.707 266.893 233.122 266.667 233.186 266.639C235.212 265.788 239.577 265.424 241.124 267.449C241.371 267.794 241.547 268.19 241.642 268.613C241.737 269.035 241.748 269.474 241.675 269.902C241.601 270.329 241.445 270.735 241.215 271.094C240.986 271.452 240.689 271.754 240.344 271.981C238.913 272.997 236.81 272.709 235.283 272.132C233.755 271.555 231.486 269.31 230.713 268.527C230.074 269.125 229.435 269.729 228.796 270.34C228.393 270.766 227.971 271.15 227.588 271.603L226.438 272.921C225.728 273.78 225 274.672 224.329 275.53C223.862 276.128 223.421 276.704 222.98 277.281C223.651 276.725 224.98 275.668 225.102 275.592C226.981 274.425 231.256 273.347 233.065 275.105C233.357 275.405 233.588 275.767 233.741 276.169C233.894 276.571 233.967 277.003 233.954 277.437C233.942 277.871 233.844 278.297 233.668 278.688C233.491 279.079 233.24 279.425 232.931 279.705C231.653 280.941 229.544 281.002 227.946 280.68C226.195 280.316 223.07 277.975 222.68 277.673C221.951 278.634 221.255 279.581 220.609 280.481C218.864 282.897 217.414 285.046 216.289 286.783L214.857 285.973C216.052 284.216 217.599 282.005 219.478 279.519C220.213 278.538 221.012 277.508 221.849 276.457C221.067 275.449 220.342 274.392 219.676 273.292C217.944 273.979 214.384 273.855 213.924 273.835C213.809 275.07 213.707 276.272 213.63 277.405C213.426 280.364 213.324 282.959 213.272 285.04L211.713 284.161C211.815 282.204 211.962 279.883 212.199 277.295C212.307 276.038 212.448 274.707 212.601 273.333C212.154 273.196 208.486 272.043 207.124 270.793C205.891 269.66 204.613 267.854 204.715 265.987C204.725 265.553 204.82 265.126 204.994 264.734C205.167 264.342 205.416 263.993 205.724 263.712C206.031 263.43 206.391 263.221 206.778 263.098C207.166 262.976 207.574 262.942 207.974 263C210.377 263.419 212.269 267.669 212.601 269.983C212.601 270.113 212.672 271.617 212.691 272.564C212.761 272.008 212.819 271.466 212.895 270.889C213.036 269.749 213.208 268.617 213.394 267.401C213.496 266.818 213.605 266.227 213.713 265.63C213.822 265.033 213.982 264.422 214.116 263.811C214.455 262.403 214.857 260.989 215.298 259.581C214.365 259.444 211.08 258.895 209.693 257.988C208.307 257.082 206.798 255.482 206.639 253.649C206.587 253.218 206.621 252.781 206.738 252.365C206.854 251.949 207.051 251.564 207.315 251.235C207.579 250.906 207.904 250.641 208.27 250.456C208.636 250.271 209.034 250.17 209.438 250.161C211.873 250.161 214.346 254.082 214.992 256.306C215.036 256.45 215.33 258.105 215.477 259.018C215.746 258.167 216.014 257.322 216.308 256.478C217.171 254.034 218.11 251.589 219.037 249.145C219.325 248.397 219.599 247.649 219.881 246.9C219.548 246.852 215.624 246.31 214.078 245.28C212.697 244.36 211.176 242.774 211.016 240.941C210.966 240.509 211.001 240.072 211.118 239.656C211.235 239.24 211.433 238.855 211.697 238.526C211.962 238.198 212.287 237.932 212.653 237.747C213.019 237.562 213.418 237.462 213.822 237.453C216.251 237.453 218.724 241.373 219.376 243.632C219.42 243.797 219.849 246.179 219.932 246.79C220.539 245.143 221.14 243.488 221.664 241.84C222.386 239.614 222.971 237.338 223.415 235.029C223.261 235.029 219.171 234.459 217.58 233.402C216.199 232.482 214.678 230.903 214.519 229.063C214.468 228.632 214.503 228.194 214.62 227.778C214.738 227.362 214.935 226.977 215.199 226.649C215.464 226.32 215.79 226.054 216.156 225.869C216.522 225.685 216.92 225.584 217.324 225.575C219.759 225.575 222.232 229.495 222.878 231.754C222.929 231.926 223.383 234.501 223.44 234.961C223.44 234.83 223.504 234.693 223.523 234.556C223.913 232.229 224.108 229.869 224.105 227.504C224.105 226.193 224.067 224.943 223.99 223.728C223.217 223.728 219.689 223.591 218.161 222.808C216.634 222.025 215.023 220.659 214.678 218.854C214.583 218.431 214.572 217.992 214.646 217.565C214.719 217.137 214.876 216.732 215.105 216.373C215.334 216.015 215.63 215.713 215.975 215.486C216.32 215.259 216.706 215.113 217.107 215.057C219.529 214.796 222.386 218.373 223.255 220.515C223.306 220.632 223.664 221.888 223.894 222.774C223.856 222.231 223.817 221.662 223.766 221.14C223.581 219.169 223.3 217.384 223.038 215.798C222.878 214.906 222.718 214.096 222.565 213.34C221.817 212.894 218.82 211.075 217.816 209.647C216.813 208.218 215.95 206.214 216.417 204.415C216.514 203.993 216.693 203.599 216.942 203.257C217.19 202.914 217.503 202.632 217.86 202.428C218.217 202.224 218.609 202.103 219.013 202.073C219.416 202.042 219.82 202.104 220.2 202.252C222.462 203.213 223.466 207.806 223.319 210.134C223.319 210.34 222.776 213.464 222.737 213.443H222.693C222.859 214.164 223.025 214.94 223.191 215.798C223.485 217.377 223.83 219.162 224.035 221.133C224.299 223.252 224.449 225.387 224.482 227.525C224.533 229.921 224.386 232.318 224.041 234.686V234.768C224.361 234.082 225.319 232.207 225.409 232.07C226.687 230.161 230.125 227.264 232.439 228.04C232.821 228.18 233.172 228.406 233.468 228.701C233.764 228.997 233.999 229.356 234.158 229.756C234.316 230.155 234.395 230.586 234.388 231.02C234.381 231.454 234.29 231.882 234.119 232.276C233.442 233.972 231.563 234.981 229.972 235.407C228.195 235.881 224.29 235.105 223.983 235.043C223.573 237.442 223.016 239.809 222.315 242.128C221.913 243.502 221.472 244.834 221.037 246.179C221.331 245.603 221.6 245.081 221.644 245.012C222.923 243.103 226.361 240.206 228.674 240.982C229.057 241.123 229.408 241.349 229.704 241.645C230 241.942 230.235 242.302 230.394 242.702C230.552 243.102 230.631 243.533 230.624 243.968C230.617 244.402 230.526 244.831 230.355 245.225C229.678 246.921 227.799 247.93 226.208 248.349C224.616 248.768 221.267 248.191 220.385 248.019L219.849 249.564C218.967 252.036 218.078 254.494 217.292 256.931C217.005 257.789 216.755 258.647 216.506 259.506C216.768 258.991 216.992 258.558 217.037 258.496C218.283 256.588 221.747 253.69 224.067 254.466C224.449 254.607 224.799 254.833 225.094 255.129C225.389 255.425 225.624 255.784 225.782 256.184C225.939 256.583 226.017 257.014 226.01 257.448C226.003 257.882 225.912 258.309 225.741 258.702C225.07 260.405 223.185 261.408 221.593 261.833C220.002 262.259 216.985 261.723 215.931 261.531C215.701 262.417 215.464 263.302 215.292 264.174C215.177 264.772 215.023 265.342 214.94 265.946C214.857 266.55 214.749 267.14 214.653 267.724C214.506 268.864 214.352 270.038 214.237 271.157C214.148 271.933 214.084 272.674 214.014 273.416C214.282 272.558 214.851 270.889 214.908 270.752C215.825 268.948 217.156 267.426 218.775 266.33C218.841 266.101 218.928 265.88 219.037 265.671C219.268 265.316 219.567 265.016 219.913 264.793C220.259 264.569 220.645 264.427 221.046 264.374C221.447 264.322 221.854 264.361 222.24 264.488C222.626 264.616 222.983 264.829 223.287 265.115C225.076 266.886 224.476 271.555 223.562 273.677C223.511 273.8 222.782 275.084 222.315 275.887C222.654 275.462 222.987 275.043 223.344 274.61C224.047 273.745 224.77 272.901 225.549 271.995L226.732 270.711C227.115 270.271 227.575 269.859 228.01 269.427C229.013 268.452 230.074 267.518 231.167 266.598C230.464 265.911 227.971 263.543 227.332 261.95C226.693 260.357 226.195 258.146 227.006 256.519C227.185 256.129 227.438 255.783 227.749 255.505C228.06 255.227 228.422 255.023 228.812 254.906C229.202 254.789 229.61 254.761 230.01 254.825C230.411 254.889 230.794 255.043 231.135 255.276C233.154 256.732 233.212 261.456 232.611 263.694C232.573 263.831 231.972 265.39 231.627 266.234C232.266 265.692 232.944 265.143 233.621 264.614C235.596 263.083 237.634 261.6 239.667 260.117L241.52 258.744C241.264 258.51 238.274 255.736 237.513 253.938C236.829 252.358 236.375 250.134 237.187 248.507C237.365 248.117 237.618 247.771 237.93 247.493C238.241 247.215 238.603 247.011 238.993 246.894C239.382 246.776 239.791 246.749 240.191 246.812C240.591 246.876 240.974 247.03 241.316 247.264C243.335 248.726 243.393 253.443 242.792 255.681C242.747 255.853 241.878 258.091 241.629 258.647C242.99 257.631 244.332 256.588 245.617 255.544C247.364 254.115 249.023 252.565 250.582 250.903C250.461 250.793 247.329 247.909 246.543 246.097C245.866 244.511 245.412 242.286 246.224 240.666C246.402 240.276 246.655 239.931 246.966 239.653C247.277 239.375 247.639 239.17 248.029 239.052C248.418 238.934 248.826 238.906 249.227 238.969C249.627 239.031 250.01 239.184 250.352 239.416C252.365 240.879 252.429 245.596 251.829 247.834C251.777 248.012 250.844 250.422 250.646 250.841L250.927 250.56C252.445 248.845 253.82 246.991 255.037 245.019C255.714 243.941 256.315 242.863 256.871 241.806C256.232 241.332 253.362 239.135 252.487 237.576C251.611 236.018 250.972 233.931 251.611 232.221C251.749 231.812 251.965 231.439 252.245 231.126C252.526 230.813 252.865 230.567 253.24 230.404C253.615 230.24 254.017 230.164 254.422 230.179C254.826 230.194 255.223 230.3 255.586 230.491C257.74 231.706 258.283 236.389 257.913 238.689C257.913 238.812 257.555 240.062 257.274 240.968C257.523 240.481 257.778 239.993 258.009 239.519C258.865 237.769 259.542 236.087 260.137 234.638C260.469 233.793 260.776 233.024 261.012 232.304C260.616 231.493 259.05 228.184 258.942 226.413C258.833 224.641 259.165 222.424 260.469 221.222C260.766 220.928 261.117 220.704 261.5 220.565C261.882 220.426 262.288 220.376 262.69 220.416C263.092 220.457 263.482 220.589 263.834 220.802C264.186 221.015 264.491 221.306 264.732 221.655C266.125 223.804 264.598 228.225 263.287 230.079C263.172 230.244 261.127 232.537 261.102 232.489V232.441C260.865 233.127 260.603 233.89 260.303 234.7C259.74 236.19 259.089 237.872 258.264 239.65C257.398 241.576 256.429 243.446 255.363 245.252C254.174 247.281 252.818 249.19 251.311 250.958L251.253 251.02C251.892 250.642 253.637 249.646 253.81 249.578C255.829 248.726 260.201 248.363 261.747 250.388C261.994 250.732 262.171 251.129 262.266 251.551C262.361 251.974 262.372 252.413 262.298 252.84C262.225 253.268 262.068 253.674 261.839 254.032C261.61 254.39 261.313 254.693 260.968 254.919C259.491 255.922 257.382 255.633 255.861 255.057Z" fill="#92E3A9"/>
<path d="M224.265 223.296C224.22 223.296 224.904 220.206 224.961 220.014C225.703 217.824 228.329 214.041 230.758 214.137C231.162 214.163 231.556 214.281 231.914 214.482C232.273 214.683 232.588 214.963 232.838 215.304C233.089 215.645 233.271 216.039 233.37 216.46C233.47 216.881 233.485 217.32 233.416 217.748C233.186 219.574 231.601 221.085 230.189 221.936C228.527 222.939 224.265 223.296 224.265 223.296Z" fill="#92E3A9"/>
<path d="M261.345 128.295C273.963 127.211 283.374 115.342 282.364 101.786C281.355 88.2305 270.307 78.1204 257.689 79.2048C245.071 80.2893 235.66 92.1577 236.669 105.714C237.679 119.269 248.726 129.38 261.345 128.295Z" stroke="#263238" stroke-width="0.72648" stroke-linecap="round" stroke-linejoin="round"/>
<path d="M258.29 110.505C257.068 110.505 255.895 109.983 255.031 109.055C254.167 108.127 253.682 106.867 253.682 105.555V89.832C253.681 89.1813 253.799 88.5369 254.031 87.9355C254.262 87.3341 254.601 86.7876 255.029 86.3272C255.457 85.8668 255.965 85.5016 256.525 85.2524C257.084 85.0031 257.684 84.8749 258.29 84.8749C258.896 84.8749 259.496 85.0031 260.055 85.2522C260.615 85.5013 261.124 85.8665 261.552 86.3268C261.981 86.7871 262.321 87.3336 262.553 87.935C262.784 88.5364 262.904 89.181 262.904 89.832V105.534C262.906 106.186 262.789 106.833 262.558 107.436C262.327 108.04 261.988 108.588 261.559 109.05C261.13 109.512 260.62 109.878 260.059 110.128C259.498 110.378 258.897 110.506 258.29 110.505Z" stroke="#263238" stroke-miterlimit="10"/>
<path d="M258.328 114.048C256.167 114.046 254.096 113.123 252.568 111.482C251.04 109.84 250.181 107.615 250.18 105.294V97.9198C250.18 97.6795 250.268 97.4489 250.427 97.279C250.585 97.109 250.799 97.0135 251.023 97.0135C251.247 97.0135 251.461 97.109 251.62 97.279C251.778 97.4489 251.867 97.6795 251.867 97.9198V105.294C251.92 107.098 252.624 108.809 253.83 110.065C255.037 111.321 256.651 112.023 258.331 112.023C260.011 112.023 261.625 111.321 262.832 110.065C264.038 108.809 264.743 107.098 264.796 105.294V97.9198C264.796 97.6795 264.884 97.4489 265.043 97.279C265.201 97.109 265.415 97.0135 265.639 97.0135C265.863 97.0135 266.077 97.109 266.236 97.279C266.394 97.4489 266.483 97.6795 266.483 97.9198V105.294C266.479 107.615 265.619 109.841 264.09 111.482C262.561 113.123 260.489 114.046 258.328 114.048Z" stroke="#263238" stroke-miterlimit="10"/>
<path d="M258.328 123.474C258.104 123.474 257.89 123.379 257.731 123.209C257.573 123.039 257.484 122.808 257.484 122.568V113.141C257.484 112.901 257.573 112.67 257.731 112.5C257.89 112.33 258.104 112.235 258.328 112.235C258.552 112.235 258.766 112.33 258.924 112.5C259.083 112.67 259.171 112.901 259.171 113.141V122.568C259.171 122.808 259.083 123.039 258.924 123.209C258.766 123.379 258.552 123.474 258.328 123.474Z" stroke="#263238" stroke-miterlimit="10"/>
<path d="M263.952 123.955H252.704C252.48 123.955 252.266 123.859 252.107 123.689C251.949 123.519 251.86 123.289 251.86 123.048C251.86 122.808 251.949 122.578 252.107 122.408C252.266 122.238 252.48 122.142 252.704 122.142H263.952C264.063 122.142 264.172 122.166 264.275 122.211C264.377 122.257 264.47 122.324 264.548 122.408C264.627 122.492 264.689 122.592 264.731 122.702C264.774 122.812 264.796 122.929 264.796 123.048C264.796 123.168 264.774 123.285 264.731 123.395C264.689 123.505 264.627 123.605 264.548 123.689C264.47 123.773 264.377 123.84 264.275 123.886C264.172 123.931 264.063 123.955 263.952 123.955Z" stroke="#263238" stroke-miterlimit="10"/>
<path d="M52.9926 59.3086C63.807 54.4605 68.9156 41.1122 64.4029 29.4941C59.8902 17.8761 47.4651 12.3879 36.6506 17.2359C25.8362 22.0839 20.7276 35.4323 25.2403 47.0504C29.753 58.6684 42.1781 64.1566 52.9926 59.3086Z" stroke="#263238" stroke-width="0.724166" stroke-linecap="round" stroke-linejoin="round"/>
<path d="M57.91 31.5965L51.7109 35.4413V32.2899C51.7109 31.5616 51.4415 30.863 50.9621 30.348C50.4827 29.833 49.8325 29.5436 49.1545 29.5436H35.184C34.5061 29.5436 33.8558 29.833 33.3764 30.348C32.897 30.863 32.6277 31.5616 32.6277 32.2899V44.4012C32.6277 45.1295 32.897 45.8281 33.3764 46.3431C33.8558 46.8581 34.5061 47.1475 35.184 47.1475H49.1801C49.8581 47.1475 50.5083 46.8581 50.9877 46.3431C51.4671 45.8281 51.7364 45.1295 51.7364 44.4012V41.2498L57.9356 45.0946L57.91 31.5965Z" stroke="#263238" stroke-miterlimit="10"/>
<path d="M260.526 185.541C267.137 185.541 272.496 179.783 272.496 172.681C272.496 165.579 267.137 159.822 260.526 159.822C253.915 159.822 248.556 165.579 248.556 172.681C248.556 179.783 253.915 185.541 260.526 185.541Z" stroke="#263238" stroke-width="0.724166" stroke-linecap="round" stroke-linejoin="round"/>
<path d="M267.908 168.912L264.412 171.082V169.303C264.412 169.102 264.375 168.903 264.304 168.717C264.232 168.532 264.127 168.363 263.995 168.221C263.862 168.078 263.705 167.966 263.532 167.889C263.359 167.812 263.174 167.772 262.987 167.772H255.088C254.901 167.772 254.715 167.812 254.542 167.889C254.369 167.966 254.212 168.078 254.08 168.221C253.948 168.363 253.843 168.532 253.771 168.717C253.699 168.903 253.663 169.102 253.663 169.303V176.135C253.663 176.336 253.699 176.535 253.771 176.721C253.843 176.906 253.948 177.075 254.08 177.217C254.212 177.36 254.369 177.472 254.542 177.549C254.715 177.626 254.901 177.666 255.088 177.666H262.987C263.174 177.666 263.359 177.626 263.532 177.549C263.705 177.472 263.862 177.36 263.995 177.217C264.127 177.075 264.232 176.906 264.304 176.721C264.375 176.535 264.412 176.336 264.412 176.135V174.356L267.908 176.526V168.912Z" stroke="#263238" stroke-miterlimit="10"/>
<path d="M42.3762 266.863C49.6932 265.008 54.2248 257.132 52.4978 249.271C50.7709 241.41 43.4393 236.542 36.1223 238.397C28.8054 240.253 24.2738 248.129 26.0007 255.99C27.7277 263.85 35.0592 268.719 42.3762 266.863Z" stroke="#263238" stroke-width="0.724166" stroke-linecap="round" stroke-linejoin="round"/>
<path d="M46.1507 249.537H32.372C31.9901 249.536 31.6127 249.625 31.2668 249.799C30.9208 249.973 30.6149 250.226 30.3707 250.542C30.1265 250.857 29.9502 251.227 29.8542 251.624C29.7583 252.021 29.7451 252.436 29.8157 252.839L30.2119 255.153C30.2391 255.313 30.3183 255.457 30.4353 255.56C30.5524 255.663 30.6996 255.718 30.851 255.716H34.9795C35.149 255.716 35.3115 255.643 35.4314 255.515C35.5512 255.386 35.6186 255.211 35.6186 255.029V252.509H42.885V255.029C42.885 255.211 42.9523 255.386 43.0722 255.515C43.192 255.643 43.3546 255.716 43.5241 255.716H47.6782C47.8295 255.718 47.9768 255.663 48.0938 255.56C48.2109 255.457 48.29 255.313 48.3173 255.153L48.7135 252.839C48.7841 252.435 48.7708 252.02 48.6745 251.622C48.5782 251.224 48.4013 250.855 48.1564 250.539C47.9115 250.223 47.6047 249.97 47.258 249.797C46.9113 249.623 46.5332 249.535 46.1507 249.537Z" stroke="#263238" stroke-miterlimit="10"/>
<path d="M206.172 14.432H160.394L158.477 18.2219C157.449 20.2133 155.944 21.8729 154.118 23.0284C152.292 24.184 150.211 24.7934 148.092 24.7934C145.972 24.7934 143.892 24.184 142.065 23.0284C140.239 21.8729 138.734 20.2133 137.707 18.2219L135.789 14.432H90.0435C88.897 14.4156 87.7588 14.6421 86.6938 15.0984C85.6288 15.5547 84.6579 16.2319 83.8365 17.0913C83.0152 17.9507 82.3595 18.9756 81.9068 20.1073C81.4542 21.239 81.2135 22.4554 81.1985 23.687V276.938C81.2135 278.169 81.4542 279.385 81.9069 280.517C82.3597 281.648 83.0155 282.672 83.8369 283.531C84.6584 284.39 85.6293 285.067 86.6943 285.522C87.7592 285.978 88.8973 286.203 90.0435 286.186H206.172C207.318 286.202 208.455 285.976 209.519 285.52C210.584 285.064 211.554 284.387 212.375 283.529C213.195 282.67 213.851 281.646 214.303 280.515C214.755 279.384 214.996 278.169 215.011 276.938V23.687C214.997 22.4557 214.757 21.2394 214.305 20.1078C213.853 18.9761 213.198 17.9512 212.377 17.0917C211.556 16.2322 210.585 15.5549 209.521 15.0985C208.456 14.6421 207.318 14.4156 206.172 14.432Z" fill="#D6D6D6"/>
<path d="M205.808 18.0709H196.579V23.5086H205.808V18.0709Z" stroke="#263238" stroke-width="0.821067" stroke-linecap="round" stroke-linejoin="round"/>
<path d="M203.776 18.0709H196.579V23.5086H203.776V18.0709Z" fill="#263238" stroke="#263238" stroke-width="0.725073" stroke-linecap="round" stroke-linejoin="round"/>
<path d="M207.086 19.595H205.789V21.9912H207.086V19.595Z" fill="#263238" stroke="#263238" stroke-width="0.725073" stroke-linecap="round" stroke-linejoin="round"/>
<path d="M90.5099 19.7598H88.8163V22.8769H90.5099V19.7598Z" fill="#263238" stroke="#263238" stroke-width="0.883086" stroke-linecap="round" stroke-linejoin="round"/>
<path d="M93.1683 18.6614H91.4747V22.8701H93.1683V18.6614Z" fill="#263238" stroke="#263238" stroke-width="0.883086" stroke-linecap="round" stroke-linejoin="round"/>
<path d="M95.827 17.3707H94.1334V22.877H95.827V17.3707Z" fill="#263238" stroke="#263238" stroke-width="0.883086" stroke-linecap="round" stroke-linejoin="round"/>
<path d="M85.2887 25.3692H210.895" stroke="#263238" stroke-linecap="round" stroke-linejoin="round"/>
<path opacity="0.2" d="M172.019 186.255C171.636 183.158 171.156 179.719 170.779 177.11C174.011 172.511 176.116 167.114 176.902 161.414C177.285 158.249 177.215 152.654 176.94 146.461C177.869 145.694 178.582 144.665 178.998 143.488C180.321 140.055 184.788 129.386 179.637 126.2C178.758 125.562 177.688 125.303 176.64 125.472C176.974 123.143 177.575 120.867 178.429 118.696C181.139 112.221 186.264 106.076 184.181 97.0136C182.097 87.9508 173.022 83.0967 170.274 86.9827C167.526 90.8687 167.565 94.1025 162.445 89.8938C157.326 85.685 150.098 79.8629 138.953 83.0967C127.807 86.3304 126.599 89.2759 132.025 95.3933C132.025 95.3933 114.252 94.4252 109.733 105.101C106.538 112.599 111.842 115.949 115.172 117.837C114.748 118.047 114.402 118.402 114.188 118.847L105.241 137.48L107.484 112.558C107.543 111.835 107.344 111.115 106.928 110.544C106.512 109.972 105.909 109.592 105.242 109.479C104.575 109.367 103.893 109.531 103.334 109.938C102.775 110.345 102.38 110.965 102.231 111.672L96.875 136.924L95.0792 136.677L96.204 111.384C96.2394 110.668 96.0185 109.966 95.5866 109.42C95.1547 108.874 94.5446 108.527 93.8818 108.45C93.219 108.372 92.5537 108.571 92.0228 109.004C91.4919 109.437 91.1357 110.073 91.0273 110.779L87.4101 136.183L84.1508 135.984V115.798C84.1492 115.399 84.0678 115.005 83.9121 114.642C83.7564 114.28 83.53 113.957 83.2482 113.697C82.9664 113.436 82.6358 113.244 82.2788 113.133C81.9218 113.022 81.5467 112.994 81.179 113.052V200.158L81.62 199.279L83.3136 200.687L92.1969 187.566L88.7394 185.664C91.8582 180.055 96.3318 171.644 96.3318 171.644C96.3318 171.644 105.017 169.976 107.516 165.204C110.015 160.433 111.67 154.446 114.699 150.004C117.728 145.561 120.528 143.742 121.633 140.165C121.636 140.131 121.636 140.096 121.633 140.062C123.046 143.653 125.704 147.168 126.874 148.788C128.484 151.013 130.612 151.912 131.539 150.779C131.622 151.466 131.705 152.187 131.795 152.901C132.849 158.551 134.057 163.79 135.31 166.591C136.475 169.009 137.985 171.216 139.783 173.134C139.247 172.791 138.607 172.688 138.001 172.847C137.395 173.006 136.871 173.415 136.543 173.986C135.916 174.792 135.418 175.704 135.067 176.684C132.728 182.65 127.481 189.729 127.916 193.951C127.916 194.075 127.916 194.26 127.954 194.48C121.895 195.043 106.423 196.65 104.078 198.661C102.397 200.11 90.7653 212.07 81.1726 222.005V271.267L101.534 257.975L105.017 286.207H196.534V189.949C186.309 187.964 172.773 186.104 172.773 186.104L172.019 186.255ZM122.081 132.29C120.802 133.663 120.56 135.421 120.873 137.316C119.818 137.014 118.035 137.659 116.086 139.266C112.475 142.252 108.871 145.527 108.871 145.527L115.588 127.285L115.754 127.436C118.387 129.496 121.576 130.519 122.937 131.507C122.631 131.741 122.345 132.003 122.081 132.29Z" fill="black"/>
<path d="M119.723 288.596H216.577V186.502C205.77 184.401 191.422 182.431 191.422 182.431L146.552 191.075C146.552 191.075 121.793 193.066 118.7 195.73C115.607 198.393 80.585 234.775 80.585 234.775V281.613L116.01 258.49L119.723 288.596Z" fill="white"/>
<path d="M181.26 279.787C181.194 279.859 181.156 279.957 181.156 280.058C181.156 280.16 181.194 280.258 181.26 280.33L186.667 285.822C186.733 285.888 186.82 285.924 186.91 285.925C187.008 285.925 187.102 285.883 187.172 285.808C187.239 285.736 187.276 285.639 187.276 285.537C187.276 285.436 187.239 285.338 187.172 285.266L181.765 279.773C181.732 279.738 181.692 279.71 181.648 279.692C181.604 279.673 181.557 279.664 181.51 279.665C181.463 279.667 181.417 279.678 181.374 279.699C181.331 279.72 181.292 279.75 181.26 279.787Z" fill="#B2B2B2"/>
<path d="M188.124 238.091C188.057 238.02 187.966 237.979 187.872 237.979C187.777 237.979 187.686 238.02 187.619 238.091L184.092 242.149C184.098 242.096 184.094 242.043 184.08 241.992C184.066 241.941 184.041 241.894 184.008 241.854C183.941 241.782 183.851 241.742 183.756 241.742C183.661 241.742 183.571 241.782 183.504 241.854L180.008 245.287C179.943 245.36 179.906 245.457 179.906 245.558C179.906 245.659 179.943 245.756 180.008 245.829C180.075 245.901 180.166 245.941 180.26 245.941C180.355 245.941 180.446 245.901 180.513 245.829L183.35 243.083L183.19 243.268C183.145 243.323 183.116 243.391 183.105 243.463C183.095 243.536 183.104 243.61 183.132 243.677C183.159 243.744 183.204 243.802 183.261 243.842C183.318 243.883 183.384 243.905 183.452 243.907C183.5 243.907 183.548 243.897 183.592 243.877C183.636 243.857 183.675 243.827 183.708 243.79L188.182 238.661C188.216 238.621 188.243 238.574 188.259 238.523C188.275 238.471 188.28 238.416 188.275 238.362C188.269 238.308 188.253 238.256 188.227 238.209C188.201 238.162 188.166 238.122 188.124 238.091Z" fill="#B2B2B2"/>
<path d="M184.341 211.823C184.282 211.744 184.197 211.694 184.103 211.682C184.01 211.671 183.916 211.699 183.842 211.761L179.068 215.881C178.996 215.945 178.951 216.037 178.941 216.137C178.932 216.237 178.959 216.337 179.017 216.416C179.05 216.461 179.091 216.498 179.139 216.523C179.187 216.548 179.239 216.561 179.292 216.56C179.373 216.559 179.451 216.53 179.516 216.478L184.283 212.358C184.356 212.295 184.403 212.204 184.414 212.103C184.425 212.003 184.399 211.902 184.341 211.823Z" fill="#B2B2B2"/>
<path d="M120.08 206.852L124.554 201.73C124.619 201.657 124.656 201.56 124.656 201.459C124.656 201.358 124.619 201.261 124.554 201.188C124.486 201.118 124.396 201.079 124.302 201.079C124.207 201.079 124.117 201.118 124.049 201.188L119.576 206.317C119.542 206.351 119.515 206.393 119.497 206.439C119.479 206.485 119.469 206.534 119.469 206.584C119.469 206.634 119.479 206.684 119.497 206.73C119.515 206.776 119.542 206.817 119.576 206.852C119.639 206.918 119.724 206.955 119.812 206.955C119.861 206.959 119.91 206.952 119.956 206.934C120.003 206.916 120.045 206.888 120.08 206.852Z" fill="#B2B2B2"/>
<path d="M177.381 230.553C177.43 230.553 177.479 230.542 177.524 230.521C177.569 230.5 177.61 230.468 177.643 230.429C177.677 230.395 177.704 230.353 177.722 230.307C177.74 230.261 177.75 230.211 177.75 230.161C177.75 230.111 177.74 230.062 177.722 230.016C177.704 229.97 177.677 229.928 177.643 229.894L172.243 224.401C172.173 224.339 172.084 224.307 171.993 224.313C171.902 224.318 171.817 224.361 171.754 224.432C171.692 224.502 171.657 224.596 171.656 224.694C171.655 224.791 171.689 224.885 171.751 224.957L177.157 230.45C177.219 230.511 177.298 230.547 177.381 230.553Z" fill="#B2B2B2"/>
<path d="M166.887 244.216H166.932C166.978 244.209 167.023 244.192 167.064 244.167C167.105 244.142 167.14 244.108 167.169 244.068C167.197 244.027 167.218 243.982 167.23 243.933C167.242 243.884 167.245 243.833 167.239 243.783L166.286 235.929C166.281 235.879 166.266 235.831 166.243 235.788C166.219 235.744 166.189 235.706 166.152 235.676C166.115 235.645 166.073 235.623 166.028 235.609C165.983 235.596 165.936 235.593 165.89 235.599C165.844 235.605 165.799 235.621 165.759 235.646C165.719 235.671 165.683 235.704 165.655 235.744C165.626 235.783 165.605 235.828 165.593 235.877C165.581 235.925 165.578 235.975 165.583 236.025L166.536 243.886C166.548 243.977 166.59 244.06 166.655 244.121C166.719 244.181 166.802 244.215 166.887 244.216Z" fill="#B2B2B2"/>
<path d="M174.582 270.91L170.108 276.032C170.075 276.066 170.048 276.108 170.03 276.154C170.011 276.2 170.002 276.249 170.002 276.299C170.002 276.349 170.011 276.399 170.03 276.445C170.048 276.491 170.075 276.533 170.108 276.567C170.174 276.634 170.261 276.671 170.351 276.67C170.399 276.67 170.446 276.66 170.49 276.64C170.534 276.62 170.574 276.59 170.607 276.553L175.08 271.425C175.144 271.351 175.178 271.253 175.174 271.153C175.17 271.052 175.13 270.958 175.061 270.889C174.993 270.821 174.901 270.785 174.808 270.789C174.714 270.792 174.626 270.836 174.563 270.91H174.582Z" fill="#B2B2B2"/>
<path d="M119.186 245.582C119.23 245.592 119.276 245.592 119.32 245.582C119.364 245.563 119.403 245.535 119.437 245.5C119.47 245.464 119.497 245.422 119.514 245.375C119.532 245.328 119.541 245.278 119.541 245.227C119.54 245.177 119.53 245.127 119.512 245.081L116.316 236.883C116.278 236.791 116.208 236.718 116.121 236.679C116.034 236.641 115.937 236.64 115.85 236.677C115.763 236.716 115.694 236.791 115.658 236.885C115.622 236.979 115.622 237.084 115.658 237.178L118.853 245.376C118.884 245.441 118.932 245.495 118.991 245.532C119.05 245.568 119.118 245.586 119.186 245.582Z" fill="#B2B2B2"/>
<path d="M188.834 271.892C188.914 271.891 188.993 271.862 189.057 271.809L193.825 267.69C193.869 267.662 193.906 267.624 193.935 267.579C193.964 267.534 193.984 267.483 193.993 267.429C194.002 267.375 194 267.32 193.988 267.267C193.976 267.213 193.953 267.164 193.921 267.121C193.89 267.078 193.85 267.043 193.805 267.018C193.759 266.993 193.709 266.979 193.659 266.976C193.608 266.973 193.557 266.982 193.51 267.002C193.462 267.022 193.419 267.053 193.384 267.092L188.61 271.212C188.573 271.243 188.543 271.282 188.521 271.326C188.499 271.37 188.485 271.418 188.48 271.468C188.475 271.518 188.48 271.568 188.493 271.616C188.507 271.664 188.529 271.709 188.559 271.747C188.591 271.793 188.632 271.83 188.68 271.855C188.728 271.88 188.78 271.892 188.834 271.892Z" fill="#B2B2B2"/>
<path d="M187.888 222.506C187.851 222.412 187.781 222.338 187.694 222.3C187.607 222.261 187.508 222.261 187.421 222.3C187.378 222.319 187.339 222.348 187.306 222.384C187.274 222.42 187.248 222.462 187.231 222.509C187.213 222.556 187.205 222.605 187.206 222.656C187.207 222.706 187.217 222.755 187.236 222.801L190.431 230.999C190.459 231.068 190.504 231.126 190.562 231.168C190.62 231.209 190.688 231.232 190.757 231.232C190.804 231.243 190.851 231.243 190.898 231.232C190.984 231.192 191.052 231.117 191.087 231.023C191.123 230.93 191.124 230.825 191.09 230.731L187.888 222.506Z" fill="#B2B2B2"/>
<path d="M189.466 266.763H189.517C189.563 266.756 189.607 266.74 189.647 266.715C189.687 266.689 189.722 266.656 189.75 266.617C189.777 266.577 189.798 266.532 189.809 266.484C189.821 266.436 189.824 266.386 189.818 266.337L188.865 258.476C188.853 258.376 188.804 258.286 188.73 258.224C188.656 258.162 188.562 258.134 188.469 258.146C188.423 258.153 188.378 258.169 188.337 258.195C188.296 258.22 188.261 258.254 188.232 258.294C188.204 258.334 188.183 258.38 188.171 258.429C188.159 258.478 188.156 258.529 188.162 258.579L189.115 266.433C189.127 266.524 189.169 266.607 189.234 266.668C189.298 266.728 189.381 266.762 189.466 266.763Z" fill="#B2B2B2"/>
<path d="M81.895 278.963C81.9287 278.929 81.9554 278.887 81.9737 278.841C81.992 278.795 82.0014 278.746 82.0014 278.696C82.0014 278.645 81.992 278.596 81.9737 278.55C81.9554 278.504 81.9287 278.462 81.895 278.428C81.8624 278.392 81.8235 278.364 81.7807 278.345C81.738 278.326 81.6921 278.316 81.6458 278.316C81.5994 278.316 81.5536 278.326 81.5108 278.345C81.468 278.364 81.4292 278.392 81.3965 278.428L80.5593 279.245V280.275L81.895 278.963Z" fill="#B2B2B2"/>
<path d="M100.166 238.792C100.134 238.827 100.107 238.868 100.09 238.914C100.072 238.96 100.063 239.01 100.063 239.059C100.063 239.109 100.072 239.159 100.09 239.204C100.107 239.25 100.134 239.292 100.166 239.327L105.573 244.82C105.639 244.886 105.726 244.923 105.816 244.923C105.864 244.923 105.912 244.912 105.956 244.891C106 244.869 106.04 244.838 106.072 244.799C106.104 244.764 106.13 244.722 106.148 244.676C106.166 244.631 106.175 244.581 106.175 244.531C106.175 244.482 106.166 244.432 106.148 244.386C106.13 244.341 106.104 244.299 106.072 244.264L100.665 238.771C100.595 238.706 100.504 238.672 100.412 238.675C100.319 238.679 100.231 238.721 100.166 238.792Z" fill="#B2B2B2"/>
<path d="M107.043 221.73C107.011 221.694 106.972 221.665 106.93 221.646C106.887 221.626 106.841 221.616 106.794 221.616C106.747 221.616 106.701 221.626 106.658 221.646C106.616 221.665 106.577 221.694 106.545 221.73L103.043 225.163C102.976 225.235 102.938 225.333 102.938 225.434C102.938 225.536 102.976 225.633 103.043 225.705C103.076 225.745 103.116 225.776 103.161 225.797C103.206 225.818 103.255 225.829 103.305 225.829C103.393 225.829 103.478 225.792 103.541 225.726L107.043 222.293C107.079 222.257 107.108 222.214 107.128 222.165C107.147 222.117 107.157 222.064 107.157 222.012C107.157 221.959 107.147 221.907 107.128 221.858C107.108 221.81 107.079 221.766 107.043 221.73Z" fill="#B2B2B2"/>
<path d="M113.453 210.841C113.48 210.91 113.525 210.97 113.583 211.011C113.641 211.053 113.709 211.075 113.779 211.075C113.823 211.084 113.869 211.084 113.913 211.075C113.957 211.056 113.997 211.028 114.03 210.992C114.063 210.957 114.09 210.914 114.108 210.867C114.126 210.821 114.135 210.771 114.134 210.72C114.134 210.67 114.124 210.62 114.105 210.573L111.242 203.193L110.686 203.749L113.453 210.841Z" fill="#B2B2B2"/>
<path d="M112.782 226.172C112.723 226.094 112.638 226.044 112.545 226.032C112.451 226.02 112.358 226.049 112.284 226.111L107.516 230.23C107.443 230.293 107.396 230.385 107.385 230.485C107.375 230.585 107.401 230.686 107.459 230.766C107.492 230.811 107.535 230.848 107.583 230.873C107.632 230.898 107.686 230.911 107.74 230.91C107.819 230.91 107.896 230.881 107.957 230.827L112.731 226.708C112.767 226.677 112.798 226.638 112.82 226.594C112.842 226.55 112.856 226.502 112.861 226.452C112.866 226.402 112.861 226.351 112.848 226.304C112.834 226.256 112.812 226.211 112.782 226.172Z" fill="#B2B2B2"/>
<path d="M111.951 256.196L108.449 259.629C108.383 259.701 108.345 259.799 108.345 259.9C108.345 260.002 108.383 260.1 108.449 260.172C108.482 260.211 108.523 260.242 108.568 260.263C108.613 260.285 108.662 260.295 108.711 260.295C108.799 260.294 108.884 260.257 108.948 260.192L112.45 256.759C112.517 256.687 112.554 256.59 112.554 256.488C112.554 256.386 112.517 256.289 112.45 256.217C112.419 256.18 112.381 256.151 112.339 256.13C112.297 256.109 112.251 256.097 112.205 256.095C112.158 256.093 112.112 256.101 112.069 256.119C112.025 256.136 111.985 256.162 111.951 256.196Z" fill="#B2B2B2"/>
<path d="M95.335 258.565H95.3797C95.4281 258.559 95.4749 258.543 95.5172 258.517C95.5596 258.491 95.5965 258.456 95.6258 258.414C95.6551 258.373 95.6762 258.325 95.6877 258.274C95.6993 258.223 95.701 258.17 95.6929 258.119L94.7407 250.264C94.7249 250.167 94.6748 250.08 94.6008 250.021C94.5268 249.962 94.4346 249.936 94.3433 249.949C94.2519 249.961 94.1686 250.011 94.1105 250.087C94.0524 250.164 94.024 250.262 94.0313 250.361L94.9899 258.222C94.9964 258.315 95.0356 258.403 95.0996 258.466C95.1636 258.53 95.2477 258.565 95.335 258.565Z" fill="#B2B2B2"/>
<path d="M89.3018 235.675C89.3511 235.675 89.3999 235.664 89.4451 235.643C89.4902 235.621 89.5307 235.59 89.5639 235.551L94.0375 230.429C94.0954 230.353 94.1243 230.257 94.1181 230.159C94.112 230.061 94.0712 229.97 94.0043 229.903C93.9374 229.836 93.8493 229.8 93.7581 229.8C93.6668 229.801 93.5793 229.839 93.5134 229.907L89.0398 235.036C89.007 235.071 88.9809 235.113 88.9631 235.159C88.9453 235.205 88.9362 235.254 88.9362 235.304C88.9362 235.354 88.9453 235.403 88.9631 235.449C88.9809 235.495 89.007 235.536 89.0398 235.572C89.075 235.606 89.1163 235.633 89.1613 235.651C89.2062 235.669 89.254 235.677 89.3018 235.675Z" fill="#B2B2B2"/>
<path d="M80.585 250.299L82.1955 248.925C82.2559 248.858 82.2915 248.77 82.2958 248.677C82.3001 248.584 82.2727 248.492 82.2188 248.419C82.1648 248.346 82.088 248.297 82.0026 248.28C81.9171 248.263 81.829 248.28 81.7545 248.328L80.585 249.331V250.299Z" fill="#B2B2B2"/>
<path d="M85.3395 258.86C85.2961 258.878 85.2565 258.906 85.2231 258.941C85.1898 258.975 85.1634 259.017 85.1454 259.063C85.1275 259.11 85.1185 259.159 85.1189 259.209C85.1193 259.259 85.1291 259.309 85.1478 259.355L88.3432 267.559C88.3717 267.628 88.4182 267.687 88.4772 267.729C88.5362 267.77 88.6051 267.792 88.6756 267.793C88.7199 267.802 88.7655 267.802 88.8098 267.793C88.8527 267.774 88.8917 267.746 88.9245 267.711C88.9574 267.676 88.9835 267.634 89.0013 267.588C89.0191 267.542 89.0283 267.493 89.0284 267.443C89.0284 267.394 89.0193 267.344 89.0015 267.298L85.8061 259.094C85.792 259.044 85.7683 258.998 85.7365 258.958C85.7047 258.919 85.6655 258.887 85.6214 258.865C85.5774 258.843 85.5295 258.831 85.4809 258.83C85.4323 258.829 85.3842 258.84 85.3395 258.86Z" fill="#B2B2B2"/>
<path d="M124.349 281.009C124.415 281.076 124.502 281.113 124.592 281.112C124.64 281.113 124.688 281.103 124.732 281.083C124.776 281.063 124.815 281.033 124.848 280.996L129.322 275.867C129.385 275.793 129.419 275.695 129.415 275.595C129.412 275.494 129.371 275.4 129.302 275.331C129.234 275.263 129.143 275.227 129.049 275.231C128.956 275.234 128.867 275.278 128.804 275.352L124.33 280.474C124.299 280.51 124.274 280.553 124.258 280.6C124.242 280.646 124.234 280.696 124.236 280.746C124.238 280.796 124.249 280.844 124.268 280.89C124.288 280.935 124.315 280.976 124.349 281.009Z" fill="#B2B2B2"/>
<path d="M151.632 282.293C151.595 282.201 151.527 282.129 151.441 282.09C151.355 282.052 151.259 282.051 151.172 282.087C151.128 282.106 151.089 282.134 151.055 282.17C151.022 282.205 150.995 282.248 150.978 282.294C150.96 282.341 150.951 282.391 150.951 282.442C150.952 282.492 150.962 282.542 150.98 282.589L153.307 288.596H154.08L151.632 282.293Z" fill="#B2B2B2"/>
<path d="M135.955 284.209C135.888 284.137 135.798 284.097 135.703 284.097C135.608 284.097 135.518 284.137 135.451 284.209C135.384 284.281 135.346 284.378 135.346 284.48C135.346 284.582 135.384 284.679 135.451 284.751L139.228 288.575H140.263L135.955 284.209Z" fill="#B2B2B2"/>
<path d="M194.803 246.976C194.735 246.904 194.645 246.864 194.55 246.864C194.456 246.864 194.365 246.904 194.298 246.976C194.231 247.048 194.193 247.145 194.193 247.247C194.193 247.348 194.231 247.446 194.298 247.518L199.698 253.011C199.766 253.077 199.855 253.114 199.947 253.114C200.023 253.119 200.099 253.097 200.163 253.053C200.228 253.009 200.277 252.943 200.304 252.866C200.331 252.79 200.335 252.706 200.314 252.627C200.294 252.548 200.25 252.478 200.19 252.427L194.803 246.976Z" fill="#B2B2B2"/>
<path d="M165.539 215.551C165.472 215.481 165.383 215.443 165.29 215.443C165.197 215.443 165.107 215.481 165.04 215.551L160.567 220.68C160.533 220.714 160.506 220.756 160.488 220.802C160.47 220.848 160.46 220.898 160.46 220.948C160.46 220.998 160.47 221.047 160.488 221.093C160.506 221.139 160.533 221.181 160.567 221.215C160.632 221.282 160.719 221.319 160.81 221.318C160.858 221.319 160.906 221.308 160.95 221.286C160.994 221.265 161.033 221.234 161.065 221.195L165.539 216.073C165.6 216.002 165.634 215.909 165.634 215.812C165.634 215.715 165.6 215.622 165.539 215.551Z" fill="#B2B2B2"/>
<path d="M136.358 216.238C136.407 216.238 136.456 216.227 136.501 216.206C136.546 216.184 136.587 216.153 136.62 216.114C136.654 216.079 136.68 216.038 136.699 215.992C136.717 215.946 136.726 215.896 136.726 215.846C136.726 215.796 136.717 215.747 136.699 215.701C136.68 215.655 136.654 215.613 136.62 215.578L131.213 210.086C131.181 210.05 131.142 210.021 131.1 210.001C131.057 209.982 131.011 209.972 130.964 209.972C130.918 209.972 130.871 209.982 130.829 210.001C130.786 210.021 130.747 210.05 130.715 210.086C130.682 210.121 130.656 210.163 130.638 210.209C130.62 210.255 130.611 210.304 130.611 210.354C130.611 210.403 130.62 210.453 130.638 210.499C130.656 210.545 130.682 210.586 130.715 210.621L136.122 216.114C136.183 216.187 136.267 216.231 136.358 216.238Z" fill="#B2B2B2"/>
<path d="M135.406 268.472H135.45C135.497 268.466 135.542 268.449 135.583 268.424C135.623 268.398 135.659 268.364 135.687 268.324C135.716 268.284 135.737 268.238 135.749 268.19C135.761 268.141 135.764 268.09 135.757 268.04L134.805 260.178C134.789 260.081 134.739 259.994 134.665 259.935C134.591 259.876 134.499 259.85 134.408 259.863C134.316 259.875 134.233 259.925 134.175 260.002C134.117 260.078 134.088 260.176 134.096 260.275L135.054 268.136C135.062 268.229 135.103 268.316 135.168 268.378C135.234 268.441 135.318 268.474 135.406 268.472Z" fill="#B2B2B2"/>
<path d="M206.089 264.394L202.587 267.827C202.522 267.875 202.475 267.944 202.451 268.024C202.427 268.104 202.429 268.19 202.456 268.269C202.484 268.348 202.534 268.415 202.601 268.459C202.667 268.503 202.746 268.522 202.823 268.514C202.912 268.513 202.998 268.479 203.066 268.417L206.562 264.985C206.631 264.917 206.673 264.823 206.678 264.722C206.683 264.622 206.65 264.524 206.587 264.449C206.556 264.412 206.519 264.382 206.477 264.361C206.435 264.339 206.39 264.327 206.344 264.324C206.25 264.319 206.158 264.354 206.089 264.422V264.394Z" fill="#B2B2B2"/>
<path d="M210.467 245.074C210.43 244.982 210.361 244.909 210.275 244.871C210.189 244.832 210.093 244.831 210.006 244.868C209.963 244.887 209.923 244.915 209.89 244.95C209.856 244.986 209.83 245.028 209.812 245.075C209.794 245.122 209.785 245.172 209.786 245.222C209.786 245.273 209.796 245.323 209.815 245.369L213.01 253.567C213.037 253.637 213.083 253.697 213.143 253.739C213.202 253.78 213.272 253.802 213.342 253.8C213.387 253.81 213.432 253.81 213.477 253.8C213.564 253.761 213.633 253.686 213.669 253.592C213.705 253.498 213.705 253.393 213.668 253.299L210.467 245.074Z" fill="#B2B2B2"/>
<path d="M206.894 234.37C206.865 234.331 206.829 234.299 206.788 234.275C206.747 234.251 206.702 234.236 206.656 234.23C206.609 234.225 206.562 234.23 206.518 234.245C206.473 234.259 206.432 234.283 206.396 234.315L201.622 238.435C201.585 238.466 201.555 238.505 201.533 238.549C201.511 238.593 201.497 238.641 201.492 238.691C201.487 238.741 201.492 238.791 201.505 238.839C201.519 238.887 201.541 238.932 201.571 238.97C201.603 239.015 201.645 239.052 201.692 239.077C201.74 239.102 201.792 239.115 201.845 239.114C201.927 239.114 202.005 239.085 202.069 239.032L206.837 234.913C206.874 234.881 206.905 234.842 206.928 234.798C206.951 234.753 206.965 234.705 206.971 234.654C206.976 234.604 206.972 234.553 206.959 234.504C206.946 234.455 206.924 234.41 206.894 234.37Z" fill="#B2B2B2"/>
<path d="M196.963 277.645C196.877 277.686 196.809 277.761 196.773 277.854C196.737 277.948 196.737 278.052 196.771 278.146L199.966 286.344C199.993 286.414 200.038 286.474 200.096 286.517C200.154 286.56 200.222 286.583 200.292 286.584C200.339 286.594 200.387 286.594 200.433 286.584C200.519 286.545 200.586 286.471 200.622 286.379C200.658 286.287 200.659 286.183 200.625 286.09L197.429 277.885C197.414 277.837 197.389 277.792 197.357 277.753C197.325 277.714 197.286 277.683 197.243 277.661C197.199 277.638 197.152 277.626 197.104 277.623C197.056 277.62 197.008 277.628 196.963 277.645Z" fill="#B2B2B2"/>
<path d="M134.077 240.336C134.134 240.261 134.163 240.164 134.157 240.066C134.151 239.968 134.11 239.877 134.043 239.81C133.976 239.744 133.888 239.707 133.797 239.708C133.706 239.709 133.618 239.747 133.552 239.815L129.079 244.943C129.046 244.978 129.02 245.02 129.002 245.066C128.984 245.112 128.975 245.161 128.975 245.211C128.975 245.261 128.984 245.31 129.002 245.356C129.02 245.402 129.046 245.444 129.079 245.479C129.145 245.544 129.232 245.581 129.322 245.582C129.371 245.582 129.42 245.571 129.465 245.55C129.51 245.529 129.551 245.497 129.584 245.458L134.077 240.336Z" fill="#B2B2B2"/>
<path d="M152.853 236.08C152.794 236.001 152.709 235.951 152.615 235.939C152.522 235.928 152.428 235.956 152.354 236.018L147.587 240.137C147.524 240.184 147.477 240.252 147.453 240.331C147.43 240.409 147.431 240.494 147.456 240.572C147.481 240.65 147.53 240.716 147.594 240.762C147.658 240.807 147.734 240.829 147.811 240.824C147.89 240.824 147.966 240.795 148.028 240.742L152.802 236.622C152.839 236.591 152.87 236.552 152.893 236.507C152.916 236.462 152.93 236.413 152.935 236.363C152.94 236.312 152.935 236.261 152.921 236.212C152.907 236.163 152.884 236.118 152.853 236.08Z" fill="#B2B2B2"/>
<path d="M152.022 266.104L148.526 269.537C148.467 269.587 148.423 269.656 148.403 269.734C148.382 269.813 148.385 269.896 148.412 269.972C148.438 270.049 148.486 270.114 148.549 270.159C148.612 270.204 148.687 270.227 148.763 270.223C148.85 270.222 148.934 270.188 148.999 270.127L152.495 266.694C152.529 266.661 152.557 266.62 152.577 266.575C152.597 266.531 152.609 266.482 152.611 266.432C152.613 266.382 152.607 266.333 152.591 266.286C152.576 266.239 152.552 266.196 152.521 266.159C152.489 266.122 152.452 266.092 152.41 266.07C152.368 266.049 152.323 266.036 152.277 266.034C152.23 266.031 152.184 266.039 152.14 266.055C152.097 266.072 152.056 266.098 152.022 266.131V266.104Z" fill="#B2B2B2"/>
<path d="M139.221 231.576C139.31 231.576 139.394 231.539 139.458 231.473L142.96 228.04C143.027 227.968 143.064 227.87 143.064 227.769C143.064 227.667 143.027 227.57 142.96 227.497C142.927 227.462 142.888 227.434 142.846 227.415C142.803 227.396 142.757 227.386 142.711 227.386C142.664 227.386 142.619 227.396 142.576 227.415C142.533 227.434 142.494 227.462 142.461 227.497L138.966 230.93C138.906 230.981 138.863 231.05 138.842 231.128C138.822 231.207 138.825 231.29 138.851 231.366C138.877 231.443 138.925 231.508 138.989 231.553C139.052 231.598 139.126 231.62 139.202 231.617L139.221 231.576Z" fill="#B2B2B2"/>
<path d="M155.94 246.557C155.853 246.596 155.784 246.671 155.748 246.765C155.712 246.859 155.712 246.964 155.748 247.058L158.943 255.256C158.97 255.325 159.015 255.384 159.073 255.426C159.131 255.467 159.2 255.49 159.269 255.489C159.314 255.499 159.359 255.499 159.404 255.489C159.447 255.47 159.487 255.442 159.52 255.407C159.554 255.371 159.58 255.329 159.598 255.282C159.616 255.235 159.625 255.185 159.624 255.135C159.624 255.084 159.614 255.034 159.595 254.988L156.4 246.79C156.367 246.695 156.3 246.617 156.214 246.573C156.128 246.529 156.03 246.524 155.94 246.557Z" fill="#B2B2B2"/>
<path d="M143.311 197.473C143.283 197.434 143.247 197.401 143.206 197.376C143.165 197.352 143.121 197.336 143.074 197.33C143.028 197.324 142.981 197.329 142.936 197.343C142.891 197.357 142.849 197.38 142.813 197.412L138.045 201.531C137.972 201.594 137.925 201.686 137.914 201.786C137.904 201.886 137.93 201.987 137.988 202.067C138.021 202.112 138.064 202.149 138.113 202.174C138.161 202.199 138.215 202.212 138.269 202.211C138.348 202.211 138.425 202.182 138.486 202.128L143.26 198.009C143.297 197.978 143.327 197.939 143.349 197.895C143.371 197.851 143.385 197.803 143.39 197.753C143.395 197.703 143.39 197.652 143.377 197.605C143.363 197.557 143.341 197.512 143.311 197.473Z" fill="#B2B2B2"/>
<path d="M146.398 207.951C146.312 207.991 146.244 208.066 146.208 208.16C146.173 208.253 146.172 208.358 146.206 208.452L149.402 216.65C149.428 216.719 149.474 216.778 149.532 216.82C149.59 216.861 149.658 216.883 149.728 216.883C149.772 216.893 149.818 216.893 149.862 216.883C149.906 216.864 149.945 216.836 149.979 216.801C150.012 216.765 150.039 216.723 150.056 216.676C150.074 216.629 150.083 216.579 150.083 216.529C150.082 216.478 150.072 216.428 150.054 216.382L146.858 208.184C146.825 208.088 146.758 208.01 146.672 207.967C146.586 207.923 146.488 207.917 146.398 207.951Z" fill="#B2B2B2"/>
<path d="M143.037 276.334C143.117 276.333 143.196 276.304 143.26 276.251L148.028 272.132C148.101 272.069 148.147 271.978 148.158 271.878C148.168 271.778 148.141 271.678 148.082 271.6C148.024 271.521 147.939 271.471 147.846 271.46C147.753 271.449 147.66 271.478 147.587 271.541L142.813 275.661C142.776 275.692 142.746 275.731 142.724 275.775C142.702 275.819 142.688 275.867 142.683 275.917C142.678 275.967 142.683 276.017 142.696 276.065C142.71 276.113 142.732 276.158 142.762 276.196C142.795 276.24 142.837 276.275 142.884 276.299C142.932 276.323 142.984 276.335 143.037 276.334Z" fill="#B2B2B2"/>
<path d="M125.864 229.866H125.909C125.956 229.859 126 229.843 126.041 229.817C126.082 229.792 126.117 229.758 126.146 229.718C126.174 229.678 126.195 229.632 126.207 229.583C126.219 229.535 126.222 229.484 126.216 229.434L125.263 221.579C125.258 221.53 125.243 221.482 125.22 221.438C125.196 221.395 125.166 221.357 125.129 221.326C125.092 221.296 125.05 221.273 125.005 221.26C124.96 221.247 124.913 221.243 124.867 221.25C124.821 221.256 124.777 221.272 124.736 221.297C124.696 221.322 124.66 221.355 124.632 221.394C124.603 221.434 124.582 221.479 124.57 221.527C124.558 221.575 124.555 221.626 124.56 221.675L125.513 229.537C125.522 229.629 125.564 229.714 125.629 229.775C125.694 229.836 125.778 229.868 125.864 229.866Z" fill="#B2B2B2"/>
<path d="M145.657 254.686C145.722 254.752 145.809 254.789 145.9 254.789C145.948 254.789 145.996 254.778 146.04 254.757C146.084 254.736 146.123 254.704 146.155 254.665C146.188 254.63 146.214 254.588 146.232 254.543C146.25 254.497 146.259 254.447 146.259 254.398C146.259 254.348 146.25 254.298 146.232 254.253C146.214 254.207 146.188 254.165 146.155 254.13L140.749 248.637C140.682 248.568 140.592 248.529 140.499 248.529C140.406 248.529 140.317 248.568 140.25 248.637C140.216 248.672 140.19 248.713 140.171 248.759C140.153 248.805 140.144 248.855 140.144 248.905C140.144 248.955 140.153 249.004 140.171 249.05C140.19 249.096 140.216 249.138 140.25 249.173L145.657 254.686Z" fill="#B2B2B2"/>
<path d="M119.723 288.596H216.577V186.502C205.77 184.401 191.422 182.431 191.422 182.431L146.552 191.075C146.552 191.075 121.793 193.066 118.7 195.73C115.607 198.393 80.585 234.775 80.585 234.775V281.613L116.01 258.49L119.723 288.596Z" stroke="#263238" stroke-linecap="round" stroke-linejoin="round"/>
<path d="M182.449 217.666C182.449 217.666 175.643 231.301 172.224 243.268C168.805 255.235 163.276 289.145 163.276 289.145H193.314C193.314 289.145 196.407 246.577 201.667 231.96C206.926 217.343 207.546 214.679 207.546 214.679L182.449 217.666Z" fill="#92E3A9" stroke="#263238" stroke-linecap="round" stroke-linejoin="round"/>
<path d="M152.29 209.866C152.29 209.866 166.989 224.387 183.606 230.244C200.222 236.1 211.489 223.131 212.486 218.668C213.483 214.205 184.315 219.039 171.514 214.452C158.713 209.866 150.865 204.772 152.29 209.866Z" fill="#263238" stroke="#263238" stroke-linecap="round" stroke-linejoin="round"/>
<path d="M156.764 169.132C156.764 169.132 153.978 166.138 151.504 172.455C149.248 178.215 144.583 192.434 144.385 191.741C145.625 196.059 143.746 202.376 154.61 211.349C165.475 220.323 182.647 226.976 192.361 226.976C202.887 226.976 210 223.653 212.48 218.668C214.959 213.684 215.26 207.683 215.26 203.708C215.26 199.732 214.333 196.059 212.48 190.409C210.626 184.758 201.34 179.108 197.007 173.787C192.674 168.466 196.669 169.798 187.721 166.118C178.774 162.437 167.271 164.126 163.896 164.786C160.522 165.445 156.764 169.132 156.764 169.132Z" fill="#263238" stroke="#263238" stroke-linecap="round" stroke-linejoin="round"/>
<path d="M156.144 163.481C156.144 163.481 157.384 182.76 158.323 188.088C159.263 193.416 177.822 204.71 184.315 204.044C190.808 203.378 191.741 193.409 191.128 187.092C190.514 180.776 188.648 168.472 188.648 168.472C188.648 168.472 171.322 174.459 165.13 169.159C158.937 163.859 156.144 163.481 156.144 163.481Z" fill="white" stroke="#263238" stroke-linecap="round" stroke-linejoin="round"/>
<path d="M158.477 184.037C166.661 182.812 174.695 180.627 182.436 177.522L189.166 172.029C188.853 169.894 188.635 168.459 188.635 168.459C188.635 168.459 171.31 174.446 165.117 169.145C158.924 163.845 156.17 163.495 156.17 163.495C156.17 163.495 157.007 176.54 157.819 184.092C158.023 184.078 158.247 184.071 158.477 184.037Z" fill="#263238" stroke="#263238" stroke-linecap="round" stroke-linejoin="round"/>
<path d="M210.575 187.051C210.876 189.798 210.659 195.256 204.728 196.725C196.682 198.716 178.116 196.725 165.43 190.072C154.489 184.36 153.211 172.743 153.07 169.605C152.407 170.456 151.878 171.419 151.505 172.455C149.025 178.771 143.478 186.248 143.938 190.738C144.11 192.386 143.765 202.376 154.598 211.335C165.43 220.295 182.635 226.962 192.349 226.962C202.874 226.962 209.987 223.639 212.467 218.654C214.947 213.67 215.247 207.669 215.247 203.694C215.247 199.719 214.321 196.045 212.467 190.395C212.018 189.173 211.378 188.042 210.575 187.051Z" fill="#92E3A9" stroke="#263238" stroke-linecap="round" stroke-linejoin="round"/>
<path d="M211.457 203.193C212.316 202.242 213.118 201.236 213.86 200.179" stroke="#263238" stroke-linecap="round" stroke-linejoin="round"/>
<path d="M148.609 179.114C148.609 179.114 145.203 189.784 160.241 204.113C173.169 216.43 194.713 217.254 208.064 206.378" stroke="#263238" stroke-linecap="round" stroke-linejoin="round"/>
<path d="M148.891 187.347C148.891 187.347 148.322 206.241 166.197 219.046" stroke="#263238" stroke-linecap="round" stroke-linejoin="round"/>
<path d="M148.258 86.4059C148.258 86.4059 129.443 85.376 124.656 96.7045C119.87 108.033 133.271 110.436 132.965 112.118C132.658 113.8 127.539 117.611 131.047 120.357C134.556 123.103 139.023 124.12 139.355 125.493C139.688 126.866 142.225 132.688 142.225 132.688C142.225 132.688 145.42 134.748 147.644 133.375C149.868 132.001 149.236 125.822 151.153 122.753C153.07 119.684 153.07 115.887 159.461 110.759C165.852 105.63 180.826 105.266 183.376 106.31C185.926 107.353 189.767 107.683 191.352 110.429C192.937 113.175 192.63 127.209 193.908 127.209C195.186 127.209 194.547 117.961 197.417 111.109C200.286 104.257 205.725 97.7481 203.475 88.1566C201.226 78.5651 191.678 73.4296 188.808 77.5422C185.939 81.6548 185.932 85.0945 180.5 80.6249C175.068 76.1553 167.392 69.9967 155.588 73.3884C143.784 76.7801 142.519 79.8971 148.258 86.4059Z" fill="#263238" stroke="#263238" stroke-linecap="round" stroke-linejoin="round"/>
<path d="M157.595 76.9587C156.767 76.6363 155.91 76.4062 155.039 76.2721" stroke="#7D7D7D" stroke-linecap="round" stroke-linejoin="round"/>
<path d="M170.204 101.765C170.204 101.765 176.716 98.1808 176.716 92.8392C176.716 86.66 168.408 81.5244 162.017 78.6888" stroke="#7D7D7D" stroke-linecap="round" stroke-linejoin="round"/>
<path d="M168.491 102.376C168.491 102.376 170.594 94.5693 163.066 90.7039C157.704 87.9576 151.063 87.6349 151.063 87.6349" stroke="#7D7D7D" stroke-linecap="round" stroke-linejoin="round"/>
<path d="M132.076 97.1301C131.252 97.1301 130.529 97.1301 129.922 97.1301" stroke="#7D7D7D" stroke-linecap="round" stroke-linejoin="round"/>
<path d="M162.797 99.6157C162.797 99.6157 159.084 95.0087 149.651 95.9287C143.867 96.4986 139.049 96.8282 135.393 97.0067" stroke="#7D7D7D" stroke-linecap="round" stroke-linejoin="round"/>
<path d="M191.837 92.8805C192.68 92.2283 193.471 91.5027 194.202 90.7109C198.203 86.4198 194.202 80.2749 194.202 80.2749" stroke="#7D7D7D" stroke-linecap="round" stroke-linejoin="round"/>
<path d="M185.919 95.9287C187.209 95.5889 188.451 95.0671 189.613 94.3771" stroke="#7D7D7D" stroke-linecap="round" stroke-linejoin="round"/>
<path d="M146.749 109.063C146.749 109.063 139.304 116.169 135.585 117.055" stroke="#7D7D7D" stroke-linecap="round" stroke-linejoin="round"/>
<path d="M192.15 123.399C192.15 123.399 193.16 115.647 198.637 119.018C204.114 122.389 199.385 133.711 197.998 137.316C196.611 140.92 193.684 142.479 192.847 139.169C192.01 135.86 192.15 123.399 192.15 123.399Z" fill="white" stroke="#263238" stroke-linecap="round" stroke-linejoin="round"/>
<path d="M145.069 127.855C145.069 127.855 142.199 120.659 137.732 125.458C133.265 130.258 140.602 139.876 142.845 142.932C145.088 145.987 148.264 146.701 148.264 143.275C148.264 139.849 145.069 127.855 145.069 127.855Z" fill="white" stroke="#263238" stroke-linecap="round" stroke-linejoin="round"/>
<path d="M145.849 122.952C145.849 122.952 147.938 153.21 151.767 161.772C155.595 170.333 168.984 180.954 177.912 180.611C186.84 180.268 194.528 166.88 195.768 156.293C197.008 145.706 193.537 109.015 193.537 109.015C193.537 109.015 190.668 98.3936 185.568 97.707C180.468 97.0205 175.042 102.513 169.623 102.849C164.203 103.186 160.036 97.3569 154.317 99.7668C148.597 102.177 146.008 107.319 148.258 109.379C150.508 111.439 152.732 113.148 150.175 116.931C147.619 120.714 145.849 122.952 145.849 122.952Z" fill="white" stroke="#263238" stroke-linecap="round" stroke-linejoin="round"/>
<path d="M191.626 115.524C191.626 115.524 190.029 113.464 186.514 113.464C184.35 113.497 182.243 114.213 180.455 115.524" stroke="#263238" stroke-width="3" stroke-linecap="round" stroke-linejoin="round"/>
<path d="M167.073 118.95C167.073 118.95 160.375 115.867 155.269 122.032" stroke="#263238" stroke-width="3" stroke-linecap="round" stroke-linejoin="round"/>
<path d="M164.203 128.713C164.203 130.512 163.417 131.967 162.446 131.967C161.474 131.967 160.695 130.512 160.695 128.713C160.695 126.914 161.481 125.458 162.446 125.458C163.411 125.458 164.203 126.914 164.203 128.713Z" fill="#263238"/>
<path d="M184.929 125.973C184.929 127.772 184.143 129.228 183.171 129.228C182.2 129.228 181.42 127.772 181.42 125.973C181.42 124.174 182.206 122.719 183.171 122.719C184.136 122.719 184.929 124.174 184.929 125.973Z" fill="#263238"/>
<path d="M158.458 133.34L164.836 133.683" stroke="#263238" stroke-linecap="round" stroke-linejoin="round"/>
<path d="M183.651 132.31L188.757 129.571" stroke="#263238" stroke-linecap="round" stroke-linejoin="round"/>
<path d="M195.768 156.292C196.266 152.173 196.043 144.154 195.582 135.867C195.401 138.501 194.929 141.103 194.176 143.618C192.579 148.424 192.579 150.127 191.62 151.171C190.661 152.214 189.703 149.797 188.111 147.401C186.52 145.005 172.166 147.401 172.166 147.401C170.568 147.058 162.919 148.431 159.384 149.804C155.85 151.177 155.237 155.626 155.55 157.357C155.863 159.087 152.048 154.96 150.13 149.118C148.213 143.275 146.296 133.017 146.296 133.017C146.296 133.017 147.101 139.883 147.996 147.305C149.108 153.285 150.399 158.833 151.722 161.792C155.556 170.354 168.939 180.975 177.867 180.632C186.795 180.288 194.496 166.907 195.768 156.292Z" fill="#263238" stroke="#263238" stroke-linecap="round" stroke-linejoin="round"/>
<path d="M158.177 169.372C158.177 169.372 162.113 174.913 170 178.497" stroke="#7D7D7D" stroke-linecap="round" stroke-linejoin="round"/>
<path d="M168.344 156.293C168.344 156.293 170.575 160.742 175.374 161.428C180.174 162.115 181.433 154.233 181.433 154.233L168.996 154.919C168.996 154.919 167.705 154.233 168.344 156.293Z" fill="white" stroke="#263238" stroke-linecap="round" stroke-linejoin="round"/>
<path d="M167.073 154.919C167.073 154.919 168.351 163.158 175.042 164.531C181.733 165.905 183.35 153.546 183.35 153.546L167.073 154.919Z" fill="white" stroke="#263238" stroke-linecap="round" stroke-linejoin="round"/>
<path d="M171.38 155.228C171.38 155.228 172.019 159.265 175.291 159.938C178.564 160.611 179.362 154.555 179.362 154.555L171.38 155.228Z" fill="#263238" stroke="#263238" stroke-linecap="round" stroke-linejoin="round"/>
<path d="M186.52 152.523C186.52 152.523 178.551 156.292 173.738 156.292C170.389 156.185 167.068 155.608 163.858 154.576C163.858 154.576 172.805 151.83 176.927 151.83C181.05 151.83 186.52 152.523 186.52 152.523Z" fill="white" stroke="#263238" stroke-linecap="round" stroke-linejoin="round"/>
<path d="M179.509 117.577C179.509 117.577 175.675 123.406 176.001 124.442C176.327 125.479 181.114 143.632 178.87 146.372C176.627 149.111 173.119 148.768 170.562 147.058C168.006 145.349 165.449 142.609 166.421 141.236C167.075 140.379 167.973 139.778 168.977 139.526" fill="white"/>
<path d="M179.509 117.577C179.509 117.577 175.675 123.406 176.001 124.442C176.327 125.479 181.114 143.632 178.87 146.372C176.627 149.111 173.119 148.768 170.562 147.058C168.006 145.349 165.449 142.609 166.421 141.236C167.075 140.379 167.973 139.778 168.977 139.526" stroke="#263238" stroke-linecap="round" stroke-linejoin="round"/>
<path d="M84.0807 181.771L89.449 167.127C89.449 167.127 90.0881 165.754 87.4359 161.984C84.7837 158.215 85.8446 153.999 87.6085 146.104C89.1039 139.396 91.443 114.899 92.1268 107.703C92.18 107.113 92.3992 106.553 92.7554 106.1C93.1115 105.646 93.5877 105.319 94.1208 105.163C94.5283 105.043 94.9563 105.025 95.3713 105.111C95.7863 105.198 96.1772 105.385 96.5136 105.66C96.8499 105.935 97.1227 106.29 97.3107 106.697C97.4987 107.104 97.5968 107.551 97.5974 108.006V129.379L101.048 129.592L104.883 102.685C104.984 102.021 105.292 101.414 105.756 100.963C106.221 100.513 106.815 100.246 107.439 100.206C107.827 100.183 108.215 100.249 108.578 100.397C108.94 100.546 109.27 100.775 109.545 101.07C109.82 101.365 110.034 101.718 110.173 102.108C110.312 102.497 110.374 102.913 110.354 103.33L109.165 130.107L111.082 130.367L116.738 103.639C116.887 102.907 117.283 102.261 117.85 101.825C118.416 101.389 119.113 101.194 119.806 101.277C120.542 101.365 121.217 101.761 121.684 102.379C122.152 102.997 122.375 103.787 122.305 104.58L119.927 130.965L129.373 111.239C129.609 110.749 129.995 110.361 130.467 110.142C130.939 109.923 131.467 109.886 131.961 110.038C132.26 110.129 132.537 110.286 132.776 110.499C133.014 110.712 133.209 110.977 133.346 111.276C133.483 111.575 133.561 111.902 133.573 112.235C133.586 112.568 133.533 112.9 133.418 113.21L123.749 139.478C123.749 139.478 127.583 136.004 131.386 132.846C135.189 129.688 138.416 130.01 137.259 133.793C136.102 137.576 133.15 139.478 129.916 144.209C126.682 148.939 124.918 155.256 122.247 160.309C119.576 165.362 110.405 167.127 110.405 167.127C110.405 167.127 100.211 186.509 99.3293 187.14L84.0807 181.771Z" fill="white" stroke="#263238" stroke-linecap="round" stroke-linejoin="round"/>
<path d="M94.6958 129.241L121.774 131.274" stroke="#263238" stroke-linecap="round" stroke-linejoin="round"/>
<path d="M103.094 163.515C103.094 163.515 100.243 157.467 106.999 148.314C113.754 139.162 117.575 140.426 117.575 140.426" fill="white"/>
<path d="M103.094 163.515C103.094 163.515 100.243 157.467 106.999 148.314C113.754 139.162 117.575 140.426 117.575 140.426" stroke="#263238" stroke-linecap="round" stroke-linejoin="round"/>
<path d="M79.4792 226.564L96.4215 193.45L81.1473 178.929L79.4792 180.371V226.564Z" fill="white"/>
<path d="M80.9937 195.702C81.0749 195.703 81.1539 195.674 81.2174 195.62L85.9914 191.5C86.057 191.434 86.0969 191.343 86.1032 191.247C86.1094 191.15 86.0815 191.055 86.025 190.979C85.9685 190.904 85.8876 190.854 85.7984 190.84C85.7093 190.826 85.6184 190.848 85.544 190.903L80.7764 195.022C80.7034 195.086 80.6564 195.177 80.6457 195.277C80.6349 195.378 80.6612 195.478 80.7189 195.558C80.7513 195.603 80.793 195.639 80.8406 195.664C80.8883 195.689 80.9407 195.702 80.9937 195.702Z" fill="#B2B2B2"/>
<path d="M89.6152 201.661C89.5785 201.57 89.5099 201.497 89.424 201.458C89.3381 201.42 89.2416 201.419 89.155 201.456C89.068 201.495 88.9989 201.57 88.963 201.664C88.9271 201.758 88.9272 201.863 88.9633 201.957L90.3054 205.39L90.74 204.538L89.6152 201.661Z" fill="#B2B2B2"/>
<path d="M79.4792 226.564L96.4215 193.45L81.1473 178.929L79.4792 180.371V226.564Z" stroke="#263238" stroke-linecap="round" stroke-linejoin="round"/>
<path d="M83.7867 171.672L79.4792 178.407V183.563L96.7155 197.872L106.116 183.982L83.7867 171.672Z" fill="white" stroke="#263238" stroke-linecap="round" stroke-linejoin="round"/>
<path d="M117.035 276.917C122.043 276.382 125.701 271.587 125.203 266.207C124.706 260.826 120.243 256.897 115.234 257.431C110.226 257.965 106.568 262.76 107.066 268.141C107.563 273.522 112.026 277.451 117.035 276.917Z" fill="white" stroke="#263238" stroke-width="0.724166" stroke-linecap="round" stroke-linejoin="round"/>
<path d="M116.144 269.591C115.656 269.591 115.187 269.383 114.842 269.012C114.497 268.641 114.303 268.138 114.303 267.614V261.352C114.303 260.828 114.497 260.325 114.842 259.954C115.187 259.583 115.656 259.375 116.144 259.375C116.631 259.377 117.097 259.586 117.441 259.957C117.785 260.327 117.978 260.829 117.978 261.352V267.614C117.978 268.137 117.785 268.639 117.441 269.01C117.097 269.38 116.631 269.59 116.144 269.591Z" fill="#263238"/>
<path d="M116.144 271.013C115.281 271.011 114.455 270.642 113.845 269.987C113.236 269.332 112.892 268.444 112.891 267.518V264.579C112.891 264.483 112.926 264.39 112.99 264.322C113.053 264.254 113.14 264.216 113.229 264.216C113.274 264.216 113.317 264.225 113.358 264.243C113.399 264.262 113.436 264.289 113.467 264.323C113.498 264.356 113.522 264.397 113.538 264.441C113.555 264.485 113.563 264.532 113.562 264.579V267.518C113.562 268.253 113.833 268.957 114.317 269.477C114.801 269.996 115.456 270.288 116.14 270.288C116.824 270.288 117.48 269.996 117.964 269.477C118.447 268.957 118.719 268.253 118.719 267.518V264.579C118.719 264.483 118.755 264.39 118.818 264.322C118.882 264.254 118.968 264.216 119.058 264.216C119.148 264.216 119.234 264.254 119.297 264.322C119.361 264.39 119.397 264.483 119.397 264.579V267.518C119.395 268.444 119.052 269.332 118.442 269.987C117.832 270.642 117.006 271.011 116.144 271.013Z" fill="#263238"/>
<path d="M116.144 274.768C116.054 274.768 115.968 274.73 115.904 274.662C115.841 274.593 115.805 274.501 115.805 274.404V270.649C115.805 270.552 115.841 270.46 115.904 270.391C115.968 270.323 116.054 270.285 116.144 270.285C116.234 270.285 116.32 270.323 116.383 270.391C116.447 270.46 116.482 270.552 116.482 270.649V274.404C116.482 274.501 116.447 274.593 116.383 274.662C116.32 274.73 116.234 274.768 116.144 274.768Z" fill="#263238"/>
<path d="M118.381 274.96H113.907C113.82 274.955 113.739 274.915 113.68 274.847C113.62 274.779 113.587 274.69 113.587 274.597C113.587 274.549 113.596 274.502 113.613 274.458C113.63 274.415 113.655 274.375 113.687 274.342C113.719 274.308 113.756 274.282 113.797 274.265C113.838 274.247 113.882 274.239 113.926 274.24H118.4C118.488 274.24 118.572 274.277 118.635 274.344C118.697 274.411 118.732 274.502 118.732 274.597C118.733 274.646 118.724 274.695 118.707 274.74C118.689 274.786 118.663 274.827 118.63 274.861C118.597 274.895 118.558 274.922 118.515 274.939C118.472 274.956 118.426 274.963 118.381 274.96Z" fill="#263238"/>
<path d="M178.596 276.674C183.493 275.423 186.519 270.145 185.355 264.885C184.191 259.624 179.278 256.373 174.381 257.623C169.484 258.874 166.458 264.152 167.622 269.413C168.786 274.673 173.699 277.924 178.596 276.674Z" fill="white" stroke="#263238" stroke-width="0.724166" stroke-linecap="round" stroke-linejoin="round"/>
<path d="M182.091 264.298L179.414 265.953V264.58C179.414 264.27 179.299 263.973 179.095 263.754C178.892 263.535 178.615 263.412 178.327 263.412H172.313C172.025 263.412 171.749 263.535 171.545 263.754C171.341 263.973 171.227 264.27 171.227 264.58V269.791C171.227 270.1 171.341 270.397 171.545 270.616C171.749 270.835 172.025 270.958 172.313 270.958H178.327C178.615 270.958 178.892 270.835 179.095 270.616C179.299 270.397 179.414 270.1 179.414 269.791V268.418L182.072 270.072L182.091 264.298Z" fill="#263238"/>
<path d="M148.424 276.679C153.321 275.428 156.347 270.15 155.183 264.889C154.019 259.629 149.106 256.378 144.21 257.628C139.313 258.878 136.287 264.157 137.451 269.417C138.614 274.678 143.528 277.929 148.424 276.679Z" fill="#263238" stroke="#263238" stroke-width="0.724166" stroke-linecap="round" stroke-linejoin="round"/>
<path d="M150.916 265.101H141.707C141.451 265.101 141.199 265.161 140.967 265.277C140.735 265.393 140.53 265.563 140.367 265.774C140.203 265.985 140.085 266.233 140.021 266.498C139.956 266.764 139.947 267.042 139.994 267.312L140.263 268.857C140.281 268.963 140.333 269.059 140.41 269.128C140.487 269.197 140.584 269.235 140.684 269.235H143.464C143.578 269.235 143.687 269.186 143.767 269.1C143.848 269.014 143.893 268.896 143.893 268.774V267.092H148.737V268.774C148.737 268.896 148.782 269.014 148.862 269.1C148.943 269.186 149.052 269.235 149.165 269.235H151.932C152.033 269.235 152.13 269.197 152.207 269.128C152.284 269.059 152.336 268.963 152.354 268.857L152.623 267.312C152.669 267.043 152.661 266.765 152.597 266.5C152.533 266.235 152.415 265.988 152.252 265.777C152.089 265.566 151.885 265.396 151.654 265.279C151.423 265.162 151.171 265.102 150.916 265.101Z" fill="#92E3A9"/>
<path d="M221.529 101.469C221.652 101.47 221.775 101.445 221.888 101.395C222.002 101.345 222.106 101.271 222.193 101.178C222.281 101.085 222.35 100.974 222.397 100.852C222.445 100.73 222.469 100.599 222.469 100.467V73.4639C222.469 73.3317 222.445 73.2008 222.397 73.0787C222.35 72.9566 222.281 72.8458 222.193 72.7526C222.106 72.6595 222.002 72.5858 221.888 72.5358C221.775 72.4858 221.652 72.4606 221.529 72.4615H219.088V20.8858C219.089 19.183 218.777 17.4966 218.171 15.9231C217.565 14.3497 216.677 12.9199 215.556 11.7155C214.436 10.511 213.105 9.55561 211.641 8.90376C210.177 8.2519 208.607 7.91638 207.022 7.91638H89.1871C87.602 7.91638 86.0325 8.2519 84.5681 8.90376C83.1038 9.55561 81.7734 10.511 80.6529 11.7155C79.5324 12.9199 78.6437 14.3497 78.0377 15.9231C77.4317 17.4966 77.1203 19.183 77.1211 20.8858V287.037C77.1211 290.475 78.3923 293.772 80.6551 296.203C82.9179 298.634 85.987 300 89.1871 300H207.022C210.222 300 213.291 298.634 215.554 296.203C217.817 293.772 219.088 290.475 219.088 287.037V124.683H221.529C221.777 124.683 222.015 124.577 222.191 124.389C222.367 124.202 222.467 123.947 222.469 123.68V111.665C222.469 111.533 222.445 111.402 222.397 111.28C222.35 111.158 222.281 111.047 222.193 110.954C222.106 110.861 222.002 110.787 221.888 110.737C221.775 110.687 221.652 110.662 221.529 110.663H219.088V101.469H221.529ZM215.011 276.938C214.996 278.169 214.755 279.384 214.303 280.515C213.851 281.646 213.195 282.67 212.375 283.529C211.554 284.388 210.584 285.064 209.519 285.52C208.455 285.976 207.318 286.202 206.172 286.186H90.0435C88.8973 286.203 87.7592 285.978 86.6943 285.522C85.6293 285.067 84.6584 284.39 83.8369 283.531C83.0155 282.672 82.3597 281.648 81.9069 280.517C81.4542 279.385 81.2135 278.169 81.1985 276.938V23.6871C81.2135 22.4554 81.4542 21.239 81.9068 20.1073C82.3595 18.9756 83.0152 17.9507 83.8365 17.0913C84.6579 16.2319 85.6288 15.5547 86.6938 15.0984C87.7588 14.6421 88.897 14.4157 90.0435 14.432H135.815L137.732 18.2219C138.76 20.2133 140.265 21.8729 142.091 23.0285C143.917 24.184 145.998 24.7934 148.117 24.7934C150.237 24.7934 152.318 24.184 154.144 23.0285C155.97 21.8729 157.475 20.2133 158.503 18.2219L160.42 14.432H206.198C208.508 14.4063 210.734 15.3664 212.386 17.1015C214.038 18.8366 214.982 21.2051 215.011 23.6871V276.938Z" fill="#263238" stroke="#263238" stroke-linecap="round" stroke-linejoin="round"/>
<path d="M151.255 15.8808C151.255 15.2116 151.071 14.5575 150.725 14.001C150.379 13.4445 149.887 13.0107 149.312 12.7543C148.736 12.4979 148.103 12.4305 147.492 12.5605C146.881 12.6906 146.32 13.0123 145.879 13.4849C145.438 13.9576 145.137 14.5601 145.015 15.2162C144.893 15.8724 144.954 16.5527 145.192 17.1714C145.429 17.79 145.832 18.3191 146.349 18.6918C146.867 19.0646 147.475 19.2643 148.098 19.2656C148.512 19.2665 148.923 19.1796 149.306 19.0099C149.689 18.8402 150.037 18.5911 150.33 18.2767C150.623 17.9623 150.856 17.5888 151.015 17.1777C151.173 16.7666 151.255 16.3259 151.255 15.8808Z" fill="white" stroke="#263238" stroke-linecap="round" stroke-linejoin="round"/>
<path d="M129.884 31.2396H90.9954V103.158H129.884V31.2396Z" fill="white" stroke="white" stroke-width="3" stroke-linecap="round" stroke-linejoin="round"/>
<path d="M129.884 103.159V81.1881C129.573 80.7416 129.205 80.3441 128.791 80.0072C125.538 77.3638 115.428 78.7233 113.517 78.84C111.606 78.9567 108.788 78.9498 108.788 78.9498C108.788 78.9498 103.164 79.1627 98.4343 79.3755C97.0125 79.4756 95.6301 79.9198 94.3906 80.6748C93.1511 81.4297 92.0865 82.476 91.2765 83.7353V103.159H129.884Z" fill="#92E3A9" stroke="#263238" stroke-linecap="round" stroke-linejoin="round"/>
<path d="M104.64 78.9773C103.318 79.2276 102.107 79.9293 101.186 80.9782C100.265 82.0271 99.683 83.3672 99.5274 84.7994C98.8372 89.99 100.512 93.1688 104.455 96.025C106.778 97.7095 108.977 99.5849 111.031 101.634C111.031 101.634 119.409 94.0133 120.688 89.1386C121.966 84.2639 120.1 80.0346 118.029 79.2931C115.958 78.5516 104.64 78.9773 104.64 78.9773Z" fill="#A3A3A3" stroke="#263238" stroke-miterlimit="10"/>
<path d="M129.884 103.158V98.016L128.299 98.4623L127.756 103.158H129.884Z" fill="#A3A3A3" stroke="#263238" stroke-miterlimit="10"/>
<path d="M95.2261 103.158L94.8873 101.634L91.2765 101.25V103.158H95.2261Z" fill="#A3A3A3" stroke="#263238" stroke-miterlimit="10"/>
<path d="M92.9192 92.0016L94.9131 101.202" stroke="#263238" stroke-miterlimit="10"/>
<path d="M128.286 69.9968C128.631 69.7084 129.251 69.3102 129.903 68.7747V48.5344C129.174 47.8478 128.024 47.4496 127.762 46.5708C127.366 45.2663 128.682 43.5224 127.762 41.9227C126.842 40.323 123.288 41.7785 121.582 41.3391C119.876 40.8997 119.479 40.0346 118.828 38.4349C118.176 36.8351 115.651 37.5629 114.865 37.7277C114.079 37.8925 116.834 34.9814 115.389 33.2237C113.945 31.4661 109.209 33.0796 108.685 34.8235C108.161 36.5674 106.186 34.8235 105.662 33.3679C105.138 31.9124 101.329 30.6216 101.329 33.2237C101.318 33.7124 101.399 34.1983 101.567 34.6525C101.735 35.1067 101.987 35.5198 102.307 35.8671C101.061 35.0226 99.0606 33.9721 97.776 34.8235C95.8076 36.128 98.8305 37.8719 98.8305 37.8719H95.1494C93.7932 37.9488 92.4701 38.3499 91.2765 39.0459V44.4218V77.6521C92.6825 77.6521 93.705 77.1921 93.705 77.9542C93.705 79.1145 94.1013 81.291 96.2039 80.4259C98.3065 79.5608 100.038 77.9542 100.038 79.1145C100.038 80.2749 101.086 82.4582 102.403 81.8609C103.72 81.2635 104.64 78.373 105.426 79.6844C106.212 80.9958 108.187 83.0212 109.503 81.5725C110.82 80.1238 111.472 78.9566 113.05 81.1331C114.629 83.3095 116.597 83.7489 117.121 81.5725C117.645 79.396 118.834 80.4122 120.802 81.5725C122.771 82.7328 125.666 82.1492 125.666 79.9728C125.666 77.7963 124.611 75.9082 125.928 75.613C127.244 75.3178 129.871 74.4527 129.213 72.9971C128.554 71.5416 127.219 70.8344 128.286 69.9968Z" fill="#263238"/>
<path d="M127.877 101.621C128.278 98.1648 128.682 94.7113 129.091 91.2601" stroke="#263238" stroke-miterlimit="10"/>
<path d="M105.043 86.7081C105.043 86.7081 105.337 81.0919 105.337 79.1557V74.7067L114.795 74.0682C114.795 74.0682 115.287 82.0119 117.262 85.2937" fill="#A3A3A3"/>
<path d="M105.043 86.7081C105.043 86.7081 105.337 81.0919 105.337 79.1557V74.7067L114.795 74.0682C114.795 74.0682 115.287 82.0119 117.262 85.2937" stroke="#263238" stroke-miterlimit="10"/>
<path d="M98.7221 62.7742C98.7221 62.7742 96.709 65.1429 96.709 65.953C96.709 66.7632 98.0958 68.9259 99.1631 69.2623C100.23 69.5987 100.607 68.7954 100.607 68.3217C100.607 67.848 98.7221 62.7742 98.7221 62.7742Z" fill="#A3A3A3" stroke="#263238" stroke-linecap="round" stroke-linejoin="round"/>
<path d="M118.841 61.8266C118.841 61.8266 121.557 63.1517 121.857 63.8863C122.158 64.621 121.672 67.2025 120.809 67.9646C120.7 68.1037 120.56 68.2108 120.402 68.2758C120.245 68.3408 120.074 68.3616 119.906 68.3362C119.739 68.3108 119.58 68.24 119.445 68.1306C119.31 68.0211 119.203 67.8766 119.135 67.7106C118.962 67.2849 118.841 61.8266 118.841 61.8266Z" fill="#A3A3A3" stroke="#263238" stroke-miterlimit="10"/>
<path d="M101.783 49.4475C101.783 49.4475 98.134 52.0084 97.7122 55.6267C97.2904 59.2449 100.269 70.8481 101.502 72.7911C102.735 74.7341 109.638 79.2655 111.6 78.9703C113.562 78.6751 118.195 71.8848 119.039 70.3744C119.882 68.8639 119.179 57.5697 118.476 52.7431C117.773 47.9164 112.865 46.866 108.251 46.866C103.637 46.866 101.783 49.4475 101.783 49.4475Z" fill="#A3A3A3" stroke="#263238" stroke-linecap="round" stroke-linejoin="round"/>
<path d="M106.596 61.1468C106.596 61.8333 106.27 62.4238 105.861 62.4238C105.452 62.4238 105.126 61.8471 105.126 61.1468C105.126 60.4464 105.458 59.8629 105.861 59.8629C106.263 59.8629 106.596 60.4396 106.596 61.1468Z" fill="#263238"/>
<path d="M114.469 60.1651C114.469 60.8517 114.143 61.4421 113.734 61.4421C113.325 61.4421 113 60.8723 113 60.1651C113 59.4579 113.332 58.8881 113.734 58.8881C114.137 58.8881 114.469 59.4579 114.469 60.1651Z" fill="#263238"/>
<path d="M111.031 58.9087C111.031 58.9087 110.731 62.781 111.536 63.0282C112.341 63.2753 113.038 65.1771 111.536 65.8225C110.034 66.4679 109.331 65.7195 109.126 64.9643" stroke="#263238" stroke-linecap="round" stroke-linejoin="round"/>
<path d="M103.797 63.1037L106.5 63.0007" stroke="#263238" stroke-width="0.5" stroke-linecap="round" stroke-linejoin="round"/>
<path d="M113.51 62.1355L115.818 60.9546" stroke="#263238" stroke-width="0.5" stroke-linecap="round" stroke-linejoin="round"/>
<path d="M100.518 48.2461C100.518 48.2461 102.902 48.9945 102.064 50.2029C101.227 51.4113 99.54 53.368 100.786 53.6358C102.032 53.9035 102.333 54.24 101.489 54.5352C100.646 54.8304 99.1054 56.1967 101.349 56.4988C103.592 56.8009 104.544 56.1967 105.279 54.0889C106.014 51.9811 105.976 52.5784 107.663 53.6358C109.35 54.6931 110.609 51.3769 109.906 50.2029C109.203 49.0288 108.085 49.9008 108.225 48.0951C108.283 47.0584 108.623 46.0627 109.203 45.2321L111.306 46.6052C111.306 46.6052 109.625 48.1157 110.89 49.4682C112.156 50.8208 113.696 51.1298 112.712 51.4319C111.727 51.7339 110.328 53.5396 112.149 53.8417C113.971 54.1438 115.236 52.7844 115.236 51.576C115.236 50.3677 114.392 49.1662 115.236 48.2667L117.057 46.3031C117.057 46.3031 116.783 43.907 111.74 42.9664C106.698 42.0257 102.627 44.3395 101.783 45.2321C100.94 46.1246 100.518 48.2461 100.518 48.2461Z" fill="#263238"/>
<path d="M105.279 68.7061C105.279 68.7061 107.375 71.7751 108.615 72.5166C109.855 73.2581 112.328 72.9766 113.453 72.0017C114.578 71.0268 115.441 67.5801 115.441 67.5801C113.744 68.4471 111.909 68.9575 110.034 69.0837C108.44 69.176 106.843 69.0491 105.279 68.7061Z" fill="#A6A6A6" stroke="#263238" stroke-width="0.5" stroke-miterlimit="10"/>
<path d="M107.529 69.633C107.889 70.1057 108.342 70.4865 108.856 70.7477C109.37 71.0089 109.932 71.1441 110.5 71.1434C111.319 71.0865 112.105 70.7744 112.761 70.2451C113.417 69.7158 113.915 68.9925 114.194 68.1637L106.525 68.9464L107.529 69.633Z" fill="white" stroke="#263238" stroke-linecap="round" stroke-linejoin="round"/>
<path d="M115.652 67.127C115.052 67.5497 114.349 67.7697 113.632 67.7586C112.683 67.8229 111.742 67.9955 110.826 68.2735C110.053 68.1036 109.253 68.1365 108.494 68.3697C107.316 68.5745 106.116 68.5907 104.934 68.4177C104.934 68.4177 106.602 69.6398 110.641 69.3171C115.262 68.9532 115.652 67.127 115.652 67.127Z" fill="#808080" stroke="#263238" stroke-width="0.5" stroke-miterlimit="10"/>
<path d="M102.224 58.6409C102.755 57.8997 103.449 57.3121 104.244 56.9313C105.963 56.0319 107.024 56.4781 107.024 56.4781" stroke="#263238" stroke-width="2" stroke-miterlimit="10" stroke-linecap="round"/>
<path d="M111.51 55.2423C112.025 54.9427 112.59 54.7567 113.173 54.6954C113.756 54.6341 114.344 54.6987 114.904 54.8853C115.47 55.0816 115.972 55.4458 116.354 55.9358" stroke="#263238" stroke-width="2" stroke-miterlimit="10" stroke-linecap="round"/>
<path d="M10.0549 300H295.727" stroke="#263238" stroke-linecap="round" stroke-linejoin="round"/>
</svg>
